# This file uses centimeters as units for non-parametric coordinates.

mtllib Hallway_Floor.mtl
g Hallway_Floor
v -5.473110 -0.157753 -3.500000
v -5.473110 -0.157753 3.500000
v -5.473110 0.157753 3.500000
v -5.473110 0.157753 -3.500000
v 5.473110 0.157753 -3.500000
v 5.473110 -0.157753 -3.500000
v 5.473110 -0.157753 3.500000
v 5.473110 0.157753 3.500000
vt 0.483084 0.042325
vt 0.483147 0.018468
vt 0.963227 0.047005
vt 0.483021 0.733112
vt 0.041269 0.042325
vt 0.041269 0.733112
vt 0.041269 0.753023
vt 0.521476 0.737792
vt 0.502932 0.733112
vt 0.483021 0.753023
vt 0.021358 0.733112
vt 0.521476 0.047005
vt 0.502932 0.042325
vt 0.963227 0.737792
vt 0.021358 0.042325
vt 0.041269 0.018468
vn 0.000000 0.000000 -1.000000
vn 0.000000 0.000000 -1.000000
vn 0.000000 0.000000 -1.000000
vn 0.000000 0.000000 -1.000000
vn 0.000000 -1.000000 0.000000
vn 0.000000 -1.000000 0.000000
vn 0.000000 -1.000000 0.000000
vn 0.000000 -1.000000 0.000000
vn 0.000000 0.000000 1.000000
vn 0.000000 0.000000 1.000000
vn 0.000000 0.000000 1.000000
vn 0.000000 0.000000 1.000000
vn 0.000000 1.000000 0.000000
vn 0.000000 1.000000 0.000000
vn 0.000000 1.000000 0.000000
vn 0.000000 1.000000 0.000000
vn -1.000000 0.000000 0.000000
vn -1.000000 0.000000 0.000000
vn -1.000000 0.000000 0.000000
vn -1.000000 0.000000 0.000000
vn 1.000000 0.000000 0.000000
vn 1.000000 0.000000 0.000000
vn 1.000000 0.000000 0.000000
vn 1.000000 0.000000 0.000000
s 1
usemtl lambert9SG
f 1/1/1 4/13/2 6/4/3
f 6/4/3 4/13/2 5/9/4
s 2
f 2/5/5 1/1/6 7/6/7
f 7/6/7 1/1/6 6/4/8
s 3
f 8/11/9 3/15/10 7/6/11
f 7/6/11 3/15/10 2/5/12
s 4
f 5/3/13 4/14/14 8/12/15
f 8/12/15 4/14/14 3/8/16
s 5
f 1/1/17 2/5/18 4/2/19
f 4/2/19 2/5/18 3/16/20
s 6
f 7/6/21 6/4/22 8/7/23
f 8/7/23 6/4/22 5/10/24
