# This file uses meters as units for non-parametric coordinates.

mtllib CameraTurretHolderFIXEDSIZE.mtl
g default
v -0.030610 -0.233963 0.030851
v 0.020831 -0.233963 0.030851
v -0.030610 -0.010774 0.030851
v 0.020831 -0.010774 0.030851
v -0.030610 -0.010774 -0.025365
v 0.020831 -0.010774 -0.025365
v -0.030610 -0.233963 -0.025365
v 0.020831 -0.233963 -0.025365
v -0.030610 -0.186782 -0.025365
v -0.030610 -0.186782 0.030851
v 0.020831 -0.186782 0.030851
v 0.020831 -0.186782 -0.025365
v 0.020831 -0.186782 -0.353941
v -0.030610 -0.186782 -0.353941
v -0.030610 -0.233963 -0.353941
v 0.020831 -0.233963 -0.353941
v 0.157180 -0.061725 -0.367285
v -0.166959 -0.061725 -0.367285
v 0.157180 -0.359021 -0.367285
v -0.166959 -0.359021 -0.367285
v 0.157180 -0.061725 -0.351943
v -0.166959 -0.061725 -0.351943
v -0.166959 -0.359021 -0.351943
v 0.157180 -0.359021 -0.351943
vt 0.095660 0.409343
vt 0.189343 0.409343
vt 0.095660 0.674525
vt 0.189343 0.674525
vt 0.352679 0.610839
vt 0.290762 0.610839
vt 0.352679 0.238344
vt 0.290762 0.238344
vt 0.283027 0.001992
vt 0.283027 0.338258
vt 0.189343 0.001992
vt 0.189343 0.338258
vt 0.283027 0.409343
vt 0.283027 0.674524
vt 0.001976 0.409343
vt 0.001976 0.674525
vt 0.001976 0.338258
vt 0.095659 0.338258
vt 0.095660 0.338258
vt 0.189343 0.338258
vt 0.805479 0.507875
vt 0.568492 0.507875
vt 0.805479 0.298418
vt 0.568492 0.298418
vt 0.352679 0.003083
vt 0.290762 0.003083
vt 0.440775 0.238343
vt 0.427686 0.238344
vt 0.440775 0.003083
vt 0.427686 0.003083
vt 0.365769 0.238344
vt 0.365769 0.003083
vt 0.805479 0.046045
vt 0.568492 0.046045
vt 0.805479 0.003129
vt 0.568492 0.003129
vt 0.815743 0.298418
vt 0.815743 0.507875
vt 0.568492 0.255502
vt 0.805479 0.255502
vt 0.558228 0.507875
vt 0.558228 0.298418
vt 0.705790 0.134153
vt 0.668181 0.134153
vt 0.705790 0.167394
vt 0.668181 0.167394
vn 0.000000 0.000000 1.000000
vn 0.000000 0.000000 1.000000
vn 0.000000 0.000000 1.000000
vn 0.000000 0.000000 1.000000
vn 0.000000 0.000000 -1.000000
vn 0.000000 0.000000 -1.000000
vn 0.000000 0.000000 -1.000000
vn 0.000000 0.000000 -1.000000
vn 0.000000 -1.000000 0.000000
vn 0.000000 -1.000000 0.000000
vn 0.000000 -1.000000 0.000000
vn 0.000000 -1.000000 0.000000
vn 1.000000 0.000000 0.000000
vn 1.000000 0.000000 0.000000
vn 1.000000 0.000000 0.000000
vn 1.000000 0.000000 0.000000
vn -1.000000 0.000000 0.000000
vn -1.000000 0.000000 0.000000
vn -1.000000 0.000000 0.000000
vn -1.000000 0.000000 0.000000
vn -1.000000 0.000000 0.000000
vn -1.000000 0.000000 0.000000
vn 0.000000 0.000000 1.000000
vn 0.000000 0.000000 1.000000
vn 1.000000 0.000000 0.000000
vn 1.000000 0.000000 0.000000
vn 0.000000 0.000000 -1.000000
vn 0.000000 0.000000 -1.000000
vn 0.000000 0.000000 -1.000000
vn 0.000000 0.000000 -1.000000
vn 0.000000 1.000000 0.000000
vn 0.000000 1.000000 0.000000
vn 0.000000 1.000000 0.000000
vn 0.000000 1.000000 0.000000
vn 1.000000 0.000000 0.000000
vn 1.000000 0.000000 0.000000
vn 0.000000 -1.000000 0.000000
vn 0.000000 -1.000000 0.000000
vn -1.000000 0.000000 0.000000
vn -1.000000 0.000000 0.000000
vn 0.000000 1.000000 0.000000
vn 0.000000 1.000000 0.000000
vn 0.000000 1.000000 0.000000
vn 0.000000 1.000000 0.000000
vn -1.000000 0.000000 0.000000
vn -1.000000 0.000000 0.000000
vn -1.000000 0.000000 0.000000
vn -1.000000 0.000000 0.000000
vn 0.000000 -1.000000 0.000000
vn 0.000000 -1.000000 0.000000
vn 0.000000 -1.000000 0.000000
vn 0.000000 -1.000000 0.000000
vn 1.000000 0.000000 0.000000
vn 1.000000 0.000000 0.000000
vn 1.000000 0.000000 0.000000
vn 1.000000 0.000000 0.000000
vn 0.000000 -0.015974 0.999873
vn 0.000000 -0.015974 0.999872
vn 0.000000 -0.015974 0.999873
vn 0.000000 -0.015974 0.999872
vn 0.014653 0.000000 0.999893
vn 0.014651 0.000000 0.999893
vn 0.014651 0.000000 0.999893
vn 0.014651 0.000000 0.999893
vn 0.000000 0.015974 0.999872
vn 0.000000 0.015974 0.999872
vn 0.000000 0.015974 0.999872
vn 0.000000 0.015974 0.999872
vn -0.014653 0.000000 0.999893
vn -0.014651 0.000000 0.999893
vn -0.014651 0.000000 0.999893
vn -0.014651 0.000000 0.999893
s 1
g CameraTurretHolder CameraTurretHolder
usemtl lambert9SG
f 10/1/1 11/2/2 3/3/3
f 3/3/3 11/2/2 4/4/4
s 2
f 5/5/5 6/6/6 9/7/7
f 9/7/7 6/6/6 12/8/8
s 3
f 7/9/9 8/10/10 1/11/11
f 1/11/11 8/10/10 2/12/12
s 4
f 11/2/13 12/13/14 4/4/15
f 4/4/15 12/13/14 6/14/16
s 5
f 9/15/17 10/1/18 5/16/19
f 5/16/19 10/1/18 3/3/20
f 7/17/21 1/18/22 9/15/17
f 9/15/17 1/18/22 10/1/18
s 1
f 1/19/23 2/20/24 10/1/1
f 10/1/1 2/20/24 11/2/2
s 4
f 2/12/25 8/10/26 11/2/13
f 11/2/13 8/10/26 12/13/14
s 6
f 18/21/27 17/22/28 20/23/29
f 20/23/29 17/22/28 19/24/30
s 7
f 9/7/31 12/8/32 14/25/33
f 14/25/33 12/8/32 13/26/34
s 4
f 12/27/14 8/28/26 13/29/35
f 13/29/35 8/28/26 16/30/36
s 3
f 8/28/10 7/31/9 16/30/37
f 16/30/37 7/31/9 15/32/38
s 5
f 7/31/21 9/7/17 15/32/39
f 15/32/39 9/7/17 14/25/40
s 8
f 22/33/41 21/34/42 18/35/43
f 18/35/43 21/34/42 17/36/44
s 9
f 23/37/45 22/38/46 20/23/47
f 20/23/47 22/38/46 18/21/48
s 10
f 24/39/49 23/40/50 19/24/51
f 19/24/51 23/40/50 20/23/52
s 11
f 21/41/53 24/42/54 17/22/55
f 17/22/55 24/42/54 19/24/56
s 12
f 14/43/57 13/44/58 22/33/59
f 22/33/59 13/44/58 21/34/60
s 13
f 15/45/61 14/43/62 23/40/63
f 23/40/63 14/43/62 22/33/64
s 14
f 16/46/65 15/45/66 24/39/67
f 24/39/67 15/45/66 23/40/68
s 15
f 13/44/69 16/46/70 21/34/71
f 21/34/71 16/46/70 24/39/72
