# This file uses centimeters as units for non-parametric coordinates.

mtllib CrossHallway_Wall.mtl
g CrossHallway_Wall
v -0.315710 -1.651442 2.449260
v -0.410473 -1.651442 2.449260
v -0.315710 -1.612908 2.449260
v -0.410473 -1.612908 2.449260
v -0.315710 -1.612908 2.485703
v -0.410473 -1.612908 2.485703
v -0.315710 -1.651442 2.485703
v -0.410473 -1.651442 2.485703
v -0.375788 -1.612908 2.449260
v -0.375788 -1.612908 2.485703
v -0.375788 -1.651442 2.485703
v -0.375788 -1.651442 2.449260
v -0.375788 -1.651442 2.300953
v -0.375788 -1.612908 2.300953
v -0.410473 -1.651442 2.300953
v -0.410473 -1.612908 2.300953
v -0.345036 -1.605316 2.493776
v -0.345036 -1.629526 2.507753
v -0.345036 -1.657055 2.502899
v -0.345036 -1.675024 2.481485
v -0.345036 -1.675024 2.453530
v -0.345036 -1.657055 2.432116
v -0.345036 -1.629526 2.427262
v -0.345036 -1.605316 2.441239
v -0.345036 -1.595755 2.467508
v -0.310890 -1.589794 2.507335
v -0.310890 -1.626499 2.528526
v -0.310890 -1.668238 2.521166
v -0.310890 -1.695481 2.488699
v -0.310890 -1.695481 2.446316
v -0.310890 -1.668238 2.413849
v -0.310890 -1.626499 2.406489
v -0.310890 -1.589794 2.427680
v -0.310890 -1.575298 2.467508
v -0.345036 -1.636622 2.467508
v 0.315709 -1.619337 2.449260
v 0.410472 -1.619337 2.449260
v 0.315709 -1.657871 2.449260
v 0.410472 -1.657871 2.449260
v 0.315709 -1.657871 2.485703
v 0.410472 -1.657871 2.485703
v 0.315709 -1.619337 2.485703
v 0.410472 -1.619337 2.485703
v 0.375787 -1.657871 2.449260
v 0.375787 -1.657871 2.485703
v 0.375787 -1.619337 2.485703
v 0.375787 -1.619337 2.449260
v 0.375787 -1.619337 2.300953
v 0.375787 -1.657871 2.300953
v 0.410472 -1.619337 2.300953
v 0.410472 -1.657871 2.300953
v 0.345035 -1.665463 2.493776
v 0.345035 -1.641254 2.507753
v 0.345035 -1.613724 2.502899
v 0.345035 -1.595755 2.481485
v 0.345035 -1.595755 2.453530
v 0.345035 -1.613724 2.432116
v 0.345035 -1.641254 2.427262
v 0.345035 -1.665463 2.441239
v 0.345035 -1.675024 2.467508
v 0.310888 -1.680986 2.507335
v 0.310888 -1.644281 2.528526
v 0.310888 -1.602541 2.521166
v 0.310888 -1.575298 2.488699
v 0.310888 -1.575298 2.446316
v 0.310888 -1.602541 2.413849
v 0.310888 -1.644281 2.406489
v 0.310888 -1.680985 2.427680
v 0.310888 -1.695481 2.467508
v 0.345035 -1.634157 2.467508
v -0.316854 -0.618194 2.568946
v -0.316854 -0.618194 1.431054
v 0.315648 -0.618194 1.431054
v 0.315648 -0.618194 2.568946
v -0.316854 -2.684489 1.431054
v -0.316854 -2.684489 2.568945
v 0.315648 -2.684489 1.431054
v 0.315648 -2.684489 2.568945
v 0.399025 -2.700705 1.363020
v -0.396475 -2.700705 1.363020
v 0.399025 -0.500705 1.363020
v -0.396475 -0.500705 1.363020
v 0.399025 -0.500705 2.636980
v -0.396475 -0.500705 2.636980
v 0.399025 -2.700705 2.636980
v -0.396475 -2.700705 2.636980
v -0.396475 -2.700705 2.568946
v -0.396475 -2.700705 1.431054
v -0.396475 -0.618194 2.568946
v -0.396475 -0.618194 1.431054
v 0.399025 -2.700705 2.568946
v 0.399025 -2.700705 1.431054
v 0.399025 -0.618194 1.431054
v 0.399025 -0.618194 2.568946
v 0.255655 -3.000000 8.000000
v 0.255655 3.000000 8.000000
v 0.255655 3.000000 -4.000000
v 0.255655 -3.000000 -4.000000
v -0.271235 3.000000 8.000000
v -0.271235 3.000000 -4.000000
v -0.271235 -3.000000 -4.000000
v -0.271235 -3.000000 8.000000
v -0.271235 2.684494 -4.000000
v 0.255655 2.684494 -4.000000
v 0.255655 2.684494 8.000000
v -0.271235 2.684494 8.000000
v -0.271235 -2.684495 -4.000000
v 0.255655 -2.684495 -4.000000
v 0.255655 -2.684495 8.000000
v -0.271235 -2.684495 8.000000
vt 0.860213 0.275211
vt 0.860213 0.233330
vt 0.890690 0.233330
vt 0.890690 0.275211
vt 0.928835 0.233330
vt 0.928835 0.275211
vt 0.966795 0.233330
vt 0.966795 0.275211
vt 0.928835 0.106184
vt 0.928835 0.146421
vt 0.890690 0.146421
vt 0.890690 0.106184
vt 0.890690 0.172917
vt 0.928835 0.172917
vt 0.928835 0.207065
vt 0.890690 0.207065
vt 0.966795 0.207065
vt 0.729620 0.207065
vt 0.729620 0.172917
vt 0.764220 0.172917
vt 0.764220 0.207065
vt 0.890690 0.106184
vt 0.764220 0.146421
vt 0.764220 0.106184
vt 0.764220 0.233330
vt 0.801645 0.307382
vt 0.810703 0.292738
vt 0.835522 0.295616
vt 0.818591 0.325536
vt 0.808224 0.275675
vt 0.829197 0.261825
vt 0.795325 0.264202
vt 0.802643 0.240062
vt 0.778070 0.263730
vt 0.768366 0.240462
vt 0.764576 0.274463
vt 0.742379 0.262751
vt 0.761147 0.291334
vt 0.736752 0.296506
vt 0.769342 0.306448
vt 0.754105 0.326023
vt 0.785319 0.312780
vt 0.786407 0.337520
vt 0.786058 0.287602
vt 0.860213 0.275211
vt 0.860213 0.233330
vt 0.890690 0.233330
vt 0.890690 0.275211
vt 0.928835 0.233330
vt 0.928835 0.275211
vt 0.966795 0.233330
vt 0.966795 0.275211
vt 0.928835 0.106184
vt 0.928835 0.146421
vt 0.890690 0.146421
vt 0.890690 0.106184
vt 0.890690 0.172917
vt 0.928835 0.172917
vt 0.928835 0.207065
vt 0.890690 0.207065
vt 0.966795 0.207065
vt 0.729620 0.207065
vt 0.729620 0.172917
vt 0.764220 0.172917
vt 0.764220 0.207065
vt 0.890690 0.106184
vt 0.764220 0.146421
vt 0.764220 0.106184
vt 0.764220 0.233330
vt 0.801645 0.307382
vt 0.810703 0.292738
vt 0.835522 0.295616
vt 0.818591 0.325536
vt 0.808224 0.275675
vt 0.829197 0.261825
vt 0.795325 0.264202
vt 0.802643 0.240062
vt 0.778070 0.263730
vt 0.768366 0.240462
vt 0.764576 0.274463
vt 0.742379 0.262751
vt 0.761147 0.291334
vt 0.736752 0.296506
vt 0.769342 0.306448
vt 0.754105 0.326023
vt 0.785319 0.312780
vt 0.786407 0.337520
vt 0.786058 0.287602
vt 0.834161 0.660605
vt 0.995506 0.660605
vt 0.995506 0.744903
vt 0.834161 0.744903
vt 0.834161 0.411770
vt 0.995506 0.411770
vt 0.995506 0.993740
vt 0.834161 0.993740
vt 0.732972 0.981478
vt 0.665975 0.981197
vt 0.666859 0.770636
vt 0.733856 0.770917
vt 0.667461 0.627071
vt 0.734459 0.627353
vt 0.668345 0.416511
vt 0.735342 0.416792
vt 0.659842 0.615794
vt 0.660678 0.416478
vt 0.655646 0.762922
vt 0.656185 0.634691
vt 0.658308 0.981165
vt 0.659145 0.781849
vt 0.741476 0.782194
vt 0.740639 0.981510
vt 0.745671 0.635067
vt 0.745133 0.763297
vt 0.743009 0.416823
vt 0.742172 0.616140
vt 0.754155 0.971576
vt 0.754455 0.772258
vt 0.821452 0.772360
vt 0.821152 0.971677
vt 0.754648 0.644027
vt 0.754948 0.444709
vt 0.821945 0.444810
vt 0.821645 0.644128
vt 0.732940 0.989145
vt 0.665944 0.988864
vt 0.668378 0.408844
vt 0.735374 0.409125
vt 0.045993 0.056296
vt 0.655934 0.056296
vt 0.655934 0.074511
vt 0.045993 0.074511
vt 0.045993 0.433103
vt 0.045993 0.402684
vt 0.655934 0.402684
vt 0.655934 0.433103
vt 0.701845 0.056296
vt 0.701845 0.074511
vt 0.045993 0.025878
vt 0.655934 0.025878
vt 0.000082 0.074511
vt 0.000082 0.056296
vt 0.655934 0.384470
vt 0.701845 0.384470
vt 0.701845 0.402684
vt 0.045993 0.384470
vt 0.000082 0.402684
vt 0.000082 0.384470
vt 0.044234 0.762441
vt 0.044234 0.452481
vt 0.654175 0.452481
vt 0.654175 0.762441
vt 0.044234 0.434267
vt 0.654175 0.434267
vt 0.654175 0.780655
vt 0.044234 0.780655
vn 0.000000 -0.687124 -0.726540
vn 0.540158 -0.812620 -0.218813
vn 0.000000 0.687124 -0.726540
vn 0.540158 0.812620 -0.218813
vn 0.000000 0.687124 -0.726540
vn 0.540158 0.812620 -0.218813
vn 0.000000 0.687124 0.726540
vn 0.000000 0.687124 0.726541
vn 0.000000 0.687124 0.726540
vn 0.000000 0.687124 0.726541
vn 0.000000 -0.687124 0.726540
vn 0.000000 -0.687124 0.726541
vn 0.000000 -0.687124 0.726540
vn 0.000000 -0.687124 0.726541
vn 0.000000 -0.687124 -0.726540
vn 0.540158 -0.812620 -0.218813
vn -0.743252 -0.669012 0.000000
vn -0.606783 -0.546172 0.577504
vn -0.743252 0.669012 0.000000
vn -0.606783 0.546172 0.577504
vn 0.540158 0.812620 -0.218813
vn -0.743252 0.669012 0.000000
vn 0.000000 0.687124 0.726541
vn -0.606783 0.546172 0.577504
vn 0.000000 -0.687124 0.726541
vn 0.000000 0.687124 0.726541
vn -0.606783 -0.546172 0.577504
vn -0.606783 0.546172 0.577504
vn 0.540158 -0.812620 -0.218813
vn 0.000000 -0.687124 0.726541
vn -0.743252 -0.669012 0.000000
vn -0.606783 -0.546172 0.577504
vn 0.732271 0.659128 -0.171257
vn 0.732271 -0.659128 -0.171257
vn -0.732271 0.659128 -0.171257
vn -0.732271 -0.659128 -0.171257
vn 0.540158 0.812620 -0.218813
vn 0.540158 -0.812620 -0.218813
vn 0.732271 0.659128 -0.171257
vn 0.732271 -0.659128 -0.171257
vn 0.540158 -0.812620 -0.218813
vn -0.743252 -0.669012 0.000000
vn 0.732271 -0.659128 -0.171257
vn -0.732271 -0.659128 -0.171257
vn -0.743252 -0.669012 0.000000
vn -0.743252 0.669012 0.000000
vn -0.732271 -0.659128 -0.171257
vn -0.732271 0.659128 -0.171257
vn -0.743252 0.669012 0.000000
vn 0.540158 0.812620 -0.218813
vn -0.732271 0.659128 -0.171257
vn 0.732271 0.659128 -0.171257
vn -0.683282 0.560286 0.468194
vn -0.687355 0.128348 0.714891
vn -0.516699 0.654451 0.552010
vn -0.523596 0.144666 0.839595
vn -0.687355 0.128348 0.714891
vn -0.691933 -0.359284 0.626214
vn -0.523596 0.144666 0.839595
vn -0.531280 -0.426109 0.732238
vn -0.691933 -0.359284 0.626214
vn -0.694890 -0.675485 0.246673
vn -0.531280 -0.426109 0.732238
vn -0.536206 -0.793571 0.287625
vn -0.694890 -0.675485 0.246673
vn -0.694891 -0.675484 -0.246674
vn -0.536206 -0.793571 0.287625
vn -0.536208 -0.793570 -0.287625
vn -0.691933 -0.359285 -0.626213
vn -0.531282 -0.426105 -0.732239
vn -0.694891 -0.675484 -0.246674
vn -0.536208 -0.793570 -0.287625
vn -0.687355 0.128342 -0.714893
vn -0.523595 0.144665 -0.839595
vn -0.691933 -0.359285 -0.626213
vn -0.531282 -0.426105 -0.732239
vn -0.683281 0.560287 -0.468194
vn -0.516696 0.654455 -0.552009
vn -0.687355 0.128342 -0.714893
vn -0.523595 0.144665 -0.839595
vn -0.681663 0.731667 0.000000
vn -0.513937 0.857828 0.000000
vn -0.683281 0.560287 -0.468194
vn -0.516696 0.654455 -0.552009
vn -0.681663 0.731667 0.000000
vn -0.683282 0.560286 0.468194
vn -0.513937 0.857828 0.000000
vn -0.516699 0.654451 0.552010
vn -0.687355 0.128348 0.714891
vn -0.683282 0.560286 0.468194
vn -1.000000 0.000002 0.000000
vn -0.691933 -0.359284 0.626214
vn -0.687355 0.128348 0.714891
vn -1.000000 0.000002 0.000000
vn -0.694890 -0.675485 0.246673
vn -0.691933 -0.359284 0.626214
vn -1.000000 0.000002 0.000000
vn -0.694891 -0.675484 -0.246674
vn -0.694890 -0.675485 0.246673
vn -1.000000 0.000002 0.000000
vn -0.691933 -0.359285 -0.626213
vn -0.694891 -0.675484 -0.246674
vn -1.000000 0.000002 0.000000
vn -0.687355 0.128342 -0.714893
vn -0.691933 -0.359285 -0.626213
vn -1.000000 0.000002 0.000000
vn -0.683281 0.560287 -0.468194
vn -0.687355 0.128342 -0.714893
vn -1.000000 0.000002 0.000000
vn -0.681663 0.731667 0.000000
vn -0.683281 0.560287 -0.468194
vn -1.000000 0.000002 0.000000
vn -0.683282 0.560286 0.468194
vn -0.681663 0.731667 0.000000
vn -1.000000 0.000002 0.000000
vn 0.000000 0.687124 -0.726540
vn -0.540158 0.812620 -0.218813
vn 0.000000 -0.687124 -0.726540
vn -0.540158 -0.812620 -0.218813
vn 0.000000 -0.687124 -0.726540
vn -0.540158 -0.812620 -0.218813
vn 0.000000 -0.687124 0.726540
vn 0.000000 -0.687124 0.726541
vn 0.000000 -0.687124 0.726540
vn 0.000000 -0.687124 0.726541
vn 0.000000 0.687124 0.726540
vn 0.000000 0.687124 0.726541
vn 0.000000 0.687124 0.726540
vn 0.000000 0.687124 0.726541
vn 0.000000 0.687124 -0.726540
vn -0.540158 0.812620 -0.218813
vn 0.743252 0.669012 0.000000
vn 0.606783 0.546172 0.577504
vn 0.743252 -0.669012 0.000000
vn 0.606783 -0.546172 0.577504
vn -0.540158 -0.812620 -0.218813
vn 0.743252 -0.669012 0.000000
vn 0.000000 -0.687124 0.726541
vn 0.606783 -0.546172 0.577504
vn 0.000000 0.687124 0.726541
vn 0.000000 -0.687124 0.726541
vn 0.606783 0.546172 0.577504
vn 0.606783 -0.546172 0.577504
vn -0.540158 0.812620 -0.218813
vn 0.000000 0.687124 0.726541
vn 0.743252 0.669012 0.000000
vn 0.606783 0.546172 0.577504
vn -0.732271 -0.659128 -0.171257
vn -0.732271 0.659128 -0.171257
vn 0.732271 -0.659128 -0.171257
vn 0.732271 0.659128 -0.171257
vn -0.540158 -0.812620 -0.218813
vn -0.540158 0.812620 -0.218813
vn -0.732271 -0.659128 -0.171257
vn -0.732271 0.659128 -0.171257
vn -0.540158 0.812620 -0.218813
vn 0.743252 0.669012 0.000000
vn -0.732271 0.659128 -0.171257
vn 0.732271 0.659128 -0.171257
vn 0.743252 0.669012 0.000000
vn 0.743252 -0.669012 0.000000
vn 0.732271 0.659128 -0.171257
vn 0.732271 -0.659128 -0.171257
vn 0.743252 -0.669012 0.000000
vn -0.540158 -0.812620 -0.218813
vn 0.732271 -0.659128 -0.171257
vn -0.732271 -0.659128 -0.171257
vn 0.683281 -0.560286 0.468194
vn 0.687355 -0.128345 0.714892
vn 0.516697 -0.654454 0.552009
vn 0.523596 -0.144666 0.839595
vn 0.687355 -0.128345 0.714892
vn 0.691934 0.359285 0.626213
vn 0.523596 -0.144666 0.839595
vn 0.531281 0.426109 0.732238
vn 0.691934 0.359285 0.626213
vn 0.694891 0.675485 0.246671
vn 0.531281 0.426109 0.732238
vn 0.536207 0.793571 0.287622
vn 0.694891 0.675485 0.246671
vn 0.694894 0.675481 -0.246673
vn 0.536207 0.793571 0.287622
vn 0.536211 0.793568 -0.287625
vn 0.691936 0.359279 -0.626214
vn 0.531284 0.426102 -0.732240
vn 0.694894 0.675481 -0.246673
vn 0.536211 0.793568 -0.287625
vn 0.687355 -0.128345 -0.714892
vn 0.523595 -0.144665 -0.839595
vn 0.691936 0.359279 -0.626214
vn 0.531284 0.426102 -0.732240
vn 0.683282 -0.560284 -0.468196
vn 0.516697 -0.654451 -0.552012
vn 0.687355 -0.128345 -0.714892
vn 0.523595 -0.144665 -0.839595
vn 0.681663 -0.731667 0.000000
vn 0.513937 -0.857828 0.000000
vn 0.683282 -0.560284 -0.468196
vn 0.516697 -0.654451 -0.552012
vn 0.681663 -0.731667 0.000000
vn 0.683281 -0.560286 0.468194
vn 0.513937 -0.857828 0.000000
vn 0.516697 -0.654454 0.552009
vn 0.687355 -0.128345 0.714892
vn 0.683281 -0.560286 0.468194
vn 1.000000 -0.000002 0.000000
vn 0.691934 0.359285 0.626213
vn 0.687355 -0.128345 0.714892
vn 1.000000 -0.000002 0.000000
vn 0.694891 0.675485 0.246671
vn 0.691934 0.359285 0.626213
vn 1.000000 -0.000002 0.000000
vn 0.694894 0.675481 -0.246673
vn 0.694891 0.675485 0.246671
vn 1.000000 -0.000002 0.000000
vn 0.691936 0.359279 -0.626214
vn 0.694894 0.675481 -0.246673
vn 1.000000 -0.000002 0.000000
vn 0.687355 -0.128345 -0.714892
vn 0.691936 0.359279 -0.626214
vn 1.000000 -0.000002 0.000000
vn 0.683282 -0.560284 -0.468196
vn 0.687355 -0.128345 -0.714892
vn 1.000000 -0.000002 0.000000
vn 0.681663 -0.731667 0.000000
vn 0.683282 -0.560284 -0.468196
vn 1.000000 -0.000002 0.000000
vn 0.683281 -0.560286 0.468194
vn 0.681663 -0.731667 0.000000
vn 1.000000 -0.000002 0.000000
vn 0.000000 -1.000000 0.000000
vn 0.000000 -1.000000 0.000000
vn 0.000000 -1.000000 0.000000
vn 0.000000 -1.000000 0.000000
vn -1.000000 0.000000 0.000000
vn -1.000000 0.000000 0.000000
vn -1.000000 0.000000 0.000000
vn -1.000000 0.000000 0.000000
vn 1.000000 0.000000 0.000000
vn 1.000000 0.000000 0.000000
vn 1.000000 0.000000 0.000000
vn 1.000000 0.000000 0.000000
vn 0.000000 0.000000 -1.000000
vn 0.000000 0.000000 -1.000000
vn 0.000000 0.000000 -1.000000
vn 0.000000 0.000000 -1.000000
vn 0.000000 1.000000 0.000000
vn 0.000000 1.000000 0.000000
vn 0.000000 1.000000 0.000000
vn 0.000000 1.000000 0.000000
vn 0.000000 0.000000 1.000000
vn 0.000000 0.000000 1.000000
vn 0.000000 0.000000 1.000000
vn 0.000000 0.000000 1.000000
vn -1.000000 0.000000 0.000000
vn -1.000000 0.000000 0.000000
vn -1.000000 0.000000 0.000000
vn -1.000000 0.000000 0.000000
vn -1.000000 0.000003 0.000000
vn -1.000000 0.000003 0.000000
vn -1.000000 0.000003 0.000000
vn -1.000000 0.000003 0.000000
vn -1.000000 0.000000 0.000000
vn -1.000000 0.000000 0.000000
vn -1.000000 0.000000 0.000000
vn -1.000000 0.000000 0.000000
vn 1.000000 0.000000 0.000000
vn 1.000000 0.000000 0.000000
vn 1.000000 0.000000 0.000000
vn 1.000000 0.000000 0.000000
vn 1.000000 -0.000001 0.000000
vn 1.000000 -0.000001 0.000000
vn 1.000000 -0.000001 0.000000
vn 1.000000 -0.000001 0.000000
vn 1.000000 0.000000 0.000000
vn 1.000000 0.000000 0.000000
vn 1.000000 0.000000 0.000000
vn 1.000000 0.000000 0.000000
vn 0.000000 0.000000 -1.000000
vn 0.000000 0.000000 -1.000000
vn 0.000000 0.000000 -1.000000
vn 0.000000 0.000000 -1.000000
vn 0.000000 0.000000 1.000000
vn 0.000000 0.000000 1.000000
vn 0.000000 0.000000 1.000000
vn 0.000000 0.000000 1.000000
vn 0.000000 -1.000000 0.000000
vn 0.000000 -1.000000 0.000000
vn 0.000000 -1.000000 0.000000
vn 0.000000 -1.000000 0.000000
vn 0.000000 -1.000000 0.000000
vn 0.000000 -1.000000 0.000000
vn 0.000000 -1.000000 0.000000
vn 0.000000 -1.000000 0.000000
vn 0.000000 -1.000000 0.000000
vn 0.000000 -1.000000 0.000000
vn 0.000000 -1.000000 0.000000
vn 0.000000 -1.000000 0.000000
vn 1.000000 0.000000 0.000000
vn 1.000000 0.000000 0.000000
vn 1.000000 0.000000 0.000000
vn 1.000000 0.000000 0.000000
vn 0.000000 1.000000 0.000000
vn 0.000000 1.000000 0.000000
vn 0.000000 1.000000 0.000000
vn 0.000000 1.000000 0.000000
vn 0.000000 0.000000 -1.000000
vn 0.000000 0.000000 -1.000000
vn 0.000000 0.000000 -1.000000
vn 0.000000 0.000000 -1.000000
vn 0.000000 -1.000000 0.000000
vn 0.000000 -1.000000 0.000000
vn 0.000000 -1.000000 0.000000
vn 0.000000 -1.000000 0.000000
vn 0.000000 0.000000 1.000000
vn 0.000000 0.000000 1.000000
vn 0.000000 0.000000 1.000000
vn 0.000000 0.000000 1.000000
vn 0.000000 0.000000 -1.000000
vn 0.000000 0.000000 -1.000000
vn 0.000000 0.000000 -1.000000
vn 0.000000 0.000000 -1.000000
vn 1.000000 0.000000 0.000000
vn 1.000000 0.000000 0.000000
vn 1.000000 0.000000 0.000000
vn 1.000000 0.000000 0.000000
vn 0.000000 0.000000 1.000000
vn 0.000000 0.000000 1.000000
vn 0.000000 0.000000 1.000000
vn 0.000000 0.000000 1.000000
vn 0.000000 0.000000 -1.000000
vn 0.000000 0.000000 -1.000000
vn 0.000000 0.000000 -1.000000
vn 0.000000 0.000000 -1.000000
vn 1.000000 0.000000 0.000000
vn 1.000000 0.000000 0.000000
vn 1.000000 0.000000 0.000000
vn 1.000000 0.000000 0.000000
vn 0.000000 0.000000 1.000000
vn 0.000000 0.000000 1.000000
vn 0.000000 0.000000 1.000000
vn 0.000000 0.000000 1.000000
vn -1.000000 0.000000 0.000000
vn -1.000000 0.000000 0.000000
vn -1.000000 0.000000 0.000000
vn -1.000000 0.000000 0.000000
vn -1.000000 0.000000 0.000000
vn -1.000000 0.000000 0.000000
vn -1.000000 0.000000 0.000000
vn -1.000000 0.000000 0.000000
vn -1.000000 0.000000 0.000000
vn -1.000000 0.000000 0.000000
vn -1.000000 0.000000 0.000000
vn -1.000000 0.000000 0.000000
s 1
usemtl Hallway_Wall:lambert7SG
f 1/1/1 12/2/2 3/4/3
f 3/4/3 12/2/2 9/3/4
s 2
f 3/4/5 9/3/6 5/6/7
f 5/6/7 9/3/6 10/5/8
s 3
f 5/6/9 10/5/10 7/8/11
f 7/8/11 10/5/10 11/7/12
s 4
f 7/9/13 11/10/14 1/12/15
f 1/12/15 11/10/14 12/11/16
s 5
f 2/13/17 8/14/18 4/16/19
f 4/16/19 8/14/18 6/15/20
s 6
f 9/3/21 4/16/22 10/5/23
f 10/5/23 4/16/22 6/15/24
s 7
f 11/7/25 10/5/26 8/17/27
f 8/17/27 10/5/26 6/15/28
s 8
f 12/11/29 11/10/30 2/13/31
f 2/13/31 11/10/30 8/14/32
s 9
f 14/18/33 13/19/34 16/21/35
f 16/21/35 13/19/34 15/20/36
s 10
f 9/22/37 12/11/38 14/24/39
f 14/24/39 12/11/38 13/23/40
s 11
f 12/11/41 2/13/42 13/23/43
f 13/23/43 2/13/42 15/20/44
s 12
f 2/13/45 4/16/46 15/20/47
f 15/20/47 4/16/46 16/21/48
s 13
f 4/16/49 9/3/50 16/21/51
f 16/21/51 9/3/50 14/25/52
s 14
f 17/26/53 18/27/54 26/29/55
f 26/29/55 18/27/54 27/28/56
s 15
f 18/27/57 19/30/58 27/28/59
f 27/28/59 19/30/58 28/31/60
s 16
f 19/30/61 20/32/62 28/31/63
f 28/31/63 20/32/62 29/33/64
s 17
f 20/32/65 21/34/66 29/33/67
f 29/33/67 21/34/66 30/35/68
s 18
f 22/36/69 31/37/70 21/34/71
f 21/34/71 31/37/70 30/35/72
s 19
f 23/38/73 32/39/74 22/36/75
f 22/36/75 32/39/74 31/37/76
s 20
f 24/40/77 33/41/78 23/38/79
f 23/38/79 33/41/78 32/39/80
s 21
f 25/42/81 34/43/82 24/40/83
f 24/40/83 34/43/82 33/41/84
s 22
f 25/42/85 17/26/86 34/43/87
f 34/43/87 17/26/86 26/29/88
s off
f 18/27/89 17/26/90 35/44/91
f 19/30/92 18/27/93 35/44/94
f 20/32/95 19/30/96 35/44/97
f 21/34/98 20/32/99 35/44/100
f 22/36/101 21/34/102 35/44/103
f 23/38/104 22/36/105 35/44/106
f 24/40/107 23/38/108 35/44/109
f 25/42/110 24/40/111 35/44/112
f 17/26/113 25/42/114 35/44/115
s 23
f 36/45/116 47/46/117 38/48/118
f 38/48/118 47/46/117 44/47/119
s 24
f 38/48/120 44/47/121 40/50/122
f 40/50/122 44/47/121 45/49/123
s 25
f 40/50/124 45/49/125 42/52/126
f 42/52/126 45/49/125 46/51/127
s 26
f 42/53/128 46/54/129 36/56/130
f 36/56/130 46/54/129 47/55/131
s 27
f 37/57/132 43/58/133 39/60/134
f 39/60/134 43/58/133 41/59/135
s 28
f 44/47/136 39/60/137 45/49/138
f 45/49/138 39/60/137 41/59/139
s 29
f 46/51/140 45/49/141 43/61/142
f 43/61/142 45/49/141 41/59/143
s 30
f 47/55/144 46/54/145 37/57/146
f 37/57/146 46/54/145 43/58/147
s 31
f 49/62/148 48/63/149 51/65/150
f 51/65/150 48/63/149 50/64/151
s 32
f 44/66/152 47/55/153 49/68/154
f 49/68/154 47/55/153 48/67/155
s 33
f 47/55/156 37/57/157 48/67/158
f 48/67/158 37/57/157 50/64/159
s 34
f 37/57/160 39/60/161 50/64/162
f 50/64/162 39/60/161 51/65/163
s 35
f 39/60/164 44/47/165 51/65/166
f 51/65/166 44/47/165 49/69/167
s 36
f 52/70/168 53/71/169 61/73/170
f 61/73/170 53/71/169 62/72/171
s 37
f 53/71/172 54/74/173 62/72/174
f 62/72/174 54/74/173 63/75/175
s 38
f 54/74/176 55/76/177 63/75/178
f 63/75/178 55/76/177 64/77/179
s 39
f 55/76/180 56/78/181 64/77/182
f 64/77/182 56/78/181 65/79/183
s 40
f 57/80/184 66/81/185 56/78/186
f 56/78/186 66/81/185 65/79/187
s 41
f 58/82/188 67/83/189 57/80/190
f 57/80/190 67/83/189 66/81/191
s 42
f 59/84/192 68/85/193 58/82/194
f 58/82/194 68/85/193 67/83/195
s 43
f 60/86/196 69/87/197 59/84/198
f 59/84/198 69/87/197 68/85/199
s 44
f 60/86/200 52/70/201 69/87/202
f 69/87/202 52/70/201 61/73/203
s off
f 53/71/204 52/70/205 70/88/206
f 54/74/207 53/71/208 70/88/209
f 55/76/210 54/74/211 70/88/212
f 56/78/213 55/76/214 70/88/215
f 57/80/216 56/78/217 70/88/218
f 58/82/219 57/80/220 70/88/221
f 59/84/222 58/82/223 70/88/224
f 60/86/225 59/84/226 70/88/227
f 52/70/228 60/86/229 70/88/230
s 45
f 76/89/231 75/90/232 78/92/233
f 78/92/233 75/90/232 77/91/234
s 46
f 71/93/235 72/94/236 76/89/237
f 76/89/237 72/94/236 75/90/238
s 47
f 73/95/239 74/96/240 77/91/241
f 77/91/241 74/96/240 78/92/242
s 48
f 79/97/243 80/98/244 81/100/245
f 81/100/245 80/98/244 82/99/246
s 49
f 81/100/247 82/99/248 83/102/249
f 83/102/249 82/99/248 84/101/250
s 50
f 83/102/251 84/101/252 85/104/253
f 85/104/253 84/101/252 86/103/254
s 51
f 84/101/255 89/105/256 86/103/257
f 86/103/257 89/105/256 87/106/258
s 52
f 84/101/259 82/99/260 89/108/261
f 89/108/261 82/99/260 90/107/262
s 53
f 82/99/263 80/98/264 90/110/265
f 90/110/265 80/98/264 88/109/266
s 54
f 81/100/267 93/111/268 79/97/269
f 79/97/269 93/111/268 92/112/270
s 55
f 81/100/271 83/102/272 93/114/273
f 93/114/273 83/102/272 94/113/274
s 56
f 83/102/275 85/104/276 94/116/277
f 94/116/277 85/104/276 91/115/278
s 57
f 87/117/279 89/118/280 91/120/281
f 91/120/281 89/118/280 94/119/282
s 58
f 90/121/283 88/122/284 93/124/285
f 93/124/285 88/122/284 92/123/286
s 59
f 89/118/287 90/121/288 94/119/289
f 94/119/289 90/121/288 93/124/290
s 60
f 80/98/291 79/97/292 88/126/293
f 88/126/293 79/97/292 92/125/294
s 61
f 86/103/295 87/127/296 85/104/297
f 85/104/297 87/127/296 91/128/298
s 62
f 95/129/299 98/130/300 109/132/301
f 109/132/301 98/130/300 108/131/302
s 63
f 99/133/303 96/134/304 100/136/305
f 100/136/305 96/134/304 97/135/306
s 64
f 101/137/307 107/138/308 98/130/309
f 98/130/309 107/138/308 108/131/310
s 65
f 102/139/311 101/140/312 95/129/313
f 95/129/313 101/140/312 98/130/314
s 66
f 110/141/315 102/142/316 109/132/317
f 109/132/317 102/142/316 95/129/318
s 67
f 104/143/319 103/144/320 97/135/321
f 97/135/321 103/144/320 100/145/322
s 68
f 105/146/323 104/143/324 96/134/325
f 96/134/325 104/143/324 97/135/326
s 69
f 99/147/327 106/148/328 96/134/329
f 96/134/329 106/148/328 105/146/330
s 70
f 108/131/331 107/138/332 104/143/333
f 104/143/333 107/138/332 103/144/334
s 71
f 109/132/335 108/131/336 105/146/337
f 105/146/337 108/131/336 104/143/338
s 72
f 106/148/339 110/141/340 105/146/341
f 105/146/341 110/141/340 109/132/342
s 73
f 103/149/343 107/150/344 106/152/345
f 106/152/345 107/150/344 110/151/346
s 74
f 101/153/347 102/154/348 107/150/349
f 107/150/349 102/154/348 110/151/350
s 75
f 99/155/351 100/156/352 106/152/353
f 106/152/353 100/156/352 103/149/354
