# This file uses centimeters as units for non-parametric coordinates.

g CrossHallway_Ceilling
v -6.000000 0.157753 6.000000
v -6.000000 0.157753 -6.000000
v -6.000000 -0.157753 6.000000
v -6.000000 -0.157753 -6.000000
v 6.000000 0.157753 6.000000
v 6.000000 0.157753 -6.000000
v 6.000000 -0.157753 -6.000000
v 6.000000 -0.157753 6.000000
vt 0.028029 0.971306
vt 0.028029 0.475649
vt 0.482240 0.475649
vt 0.482240 0.971306
vt 0.502712 0.475649
vt 0.502712 0.971306
vt 0.007557 0.971306
vt 0.007557 0.475649
vt 0.978161 0.464702
vt 0.978161 0.960359
vt 0.523950 0.960359
vt 0.523950 0.464702
vt 0.028029 0.461362
vt 0.482240 0.461362
vt 0.482240 0.989415
vt 0.028029 0.989415
vn 0.000000 1.000000 0.000000
vn 0.000000 1.000000 0.000000
vn 0.000000 1.000000 0.000000
vn 0.000000 1.000000 0.000000
vn 0.000000 0.000000 -1.000000
vn 0.000000 0.000000 -1.000000
vn 0.000000 0.000000 -1.000000
vn 0.000000 0.000000 -1.000000
vn 0.000000 0.000000 1.000000
vn 0.000000 0.000000 1.000000
vn 0.000000 0.000000 1.000000
vn 0.000000 0.000000 1.000000
vn 0.000000 -1.000000 0.000000
vn 0.000000 -1.000000 0.000000
vn 0.000000 -1.000000 0.000000
vn 0.000000 -1.000000 0.000000
vn 1.000000 0.000000 0.000000
vn 1.000000 0.000000 0.000000
vn 1.000000 0.000000 0.000000
vn 1.000000 0.000000 0.000000
vn -1.000000 0.000000 0.000000
vn -1.000000 0.000000 0.000000
vn -1.000000 0.000000 0.000000
vn -1.000000 0.000000 0.000000
s 1
f 1/1/1 5/2/2 2/4/3
f 2/4/3 5/2/2 6/3/4
s 2
f 7/5/5 4/6/6 6/3/7
f 6/3/7 4/6/6 2/4/8
s 3
f 1/1/9 3/7/10 5/2/11
f 5/2/11 3/7/10 8/8/12
s 4
f 4/9/13 7/10/14 3/12/15
f 3/12/15 7/10/14 8/11/16
s 5
f 6/3/17 5/2/18 7/14/19
f 7/14/19 5/2/18 8/13/20
s 6
f 1/1/21 2/4/22 3/16/23
f 3/16/23 2/4/22 4/15/24
