# This file uses centimeters as units for non-parametric coordinates.

mtllib CrossHallway_Floor.mtl
g CrossHallway_Floor
v -6.000000 -0.157753 -6.000000
v -6.000000 -0.157753 6.000000
v -6.000000 0.157753 6.000000
v -6.000000 0.157753 -6.000000
v 6.000000 0.157753 -6.000000
v 6.000000 -0.157753 -6.000000
v 6.000000 -0.157753 6.000000
v 6.000000 0.157753 6.000000
vt 0.497847 0.025816
vt 0.497912 0.010089
vt 0.996446 0.028902
vt 0.497782 0.481209
vt 0.039049 0.025816
vt 0.039049 0.481209
vt 0.039049 0.494335
vt 0.537715 0.484294
vt 0.518458 0.481209
vt 0.497782 0.494335
vt 0.018373 0.481209
vt 0.537715 0.028902
vt 0.518458 0.025816
vt 0.996446 0.484294
vt 0.018373 0.025816
vt 0.039049 0.010089
vn 0.000000 0.000000 -1.000000
vn 0.000000 0.000000 -1.000000
vn 0.000000 0.000000 -1.000000
vn 0.000000 0.000000 -1.000000
vn 0.000000 -1.000000 0.000000
vn 0.000000 -1.000000 0.000000
vn 0.000000 -1.000000 0.000000
vn 0.000000 -1.000000 0.000000
vn 0.000000 0.000000 1.000000
vn 0.000000 0.000000 1.000000
vn 0.000000 0.000000 1.000000
vn 0.000000 0.000000 1.000000
vn 0.000000 1.000000 0.000000
vn 0.000000 1.000000 0.000000
vn 0.000000 1.000000 0.000000
vn 0.000000 1.000000 0.000000
vn -1.000000 0.000000 0.000000
vn -1.000000 0.000000 0.000000
vn -1.000000 0.000000 0.000000
vn -1.000000 0.000000 0.000000
vn 1.000000 0.000000 0.000000
vn 1.000000 0.000000 0.000000
vn 1.000000 0.000000 0.000000
vn 1.000000 0.000000 0.000000
s 1
g CrossHallway_Floor
usemtl lambert7SG
f 1/1/1 4/13/2 6/4/3
f 6/4/3 4/13/2 5/9/4
s 2
f 2/5/5 1/1/6 7/6/7
f 7/6/7 1/1/6 6/4/8
s 3
f 8/11/9 3/15/10 7/6/11
f 7/6/11 3/15/10 2/5/12
s 4
f 5/3/13 4/14/14 8/12/15
f 8/12/15 4/14/14 3/8/16
s 5
f 1/1/17 2/5/18 4/2/19
f 4/2/19 2/5/18 3/16/20
s 6
f 7/6/21 6/4/22 8/7/23
f 8/7/23 6/4/22 5/10/24
