# This file uses centimeters as units for non-parametric coordinates.

g Document1
v -0.196216 -0.196216 0.024718
v 0.196216 -0.196216 0.024718
v -0.196216 0.196216 0.024718
v 0.196216 0.196216 0.024718
v -0.196216 0.196216 -0.024718
v 0.196216 0.196216 -0.024718
v -0.196216 -0.196216 -0.024718
v 0.196216 -0.196216 -0.024718
v 0.179055 0.196216 0.024718
v 0.179055 0.196216 -0.024718
v 0.179055 -0.196216 -0.024718
v 0.179055 -0.196216 0.024718
v -0.179055 0.196216 0.024718
v -0.179055 0.196216 -0.024718
v -0.179055 -0.196216 -0.024718
v -0.179055 -0.196216 0.024718
v 0.179055 0.182914 0.024718
v -0.179055 0.182914 0.024718
v -0.196216 0.182914 0.024718
v -0.196216 0.182914 -0.024718
v -0.179055 0.182914 -0.024718
v 0.179055 0.182914 -0.024718
v 0.196216 0.182914 -0.024718
v 0.196216 0.182914 0.024718
v -0.196216 -0.173649 0.124489
v -0.179055 -0.173649 0.124489
v -0.179055 0.182914 0.132629
v -0.196216 0.182914 0.132629
v -0.187682 0.194775 0.094178
v -0.204843 0.194775 0.094178
v 0.179055 -0.173649 0.124489
v 0.196216 -0.173649 0.124489
v 0.179055 0.182914 0.132629
v 0.170428 0.194775 0.094178
v 0.196216 0.182914 0.132629
v 0.187589 0.194775 0.094178
v 0.196216 0.086640 0.173834
v 0.179055 0.086640 0.173834
v 0.179055 0.086640 0.024718
v -0.179055 0.086640 0.024718
v -0.179055 0.086640 0.173834
v -0.196216 0.086640 0.173834
v -0.196216 0.086640 0.024718
v -0.196216 0.086640 -0.024718
v -0.179055 0.086640 -0.024718
v 0.179055 0.086640 -0.024718
v 0.196216 0.086640 -0.024718
v 0.196216 0.086640 0.024718
v -0.165878 0.086640 0.160270
v 0.165878 0.086640 0.160270
v 0.165878 -0.152473 0.036187
v -0.165878 -0.152473 0.036187
v -0.196216 -0.196216 0.106436
v -0.196216 0.086640 0.146852
v -0.196216 0.182914 0.113103
v -0.203282 0.195036 0.081609
v -0.186121 0.195036 0.081609
v -0.179055 0.182914 0.113103
v -0.179055 0.086640 0.146852
v -0.179055 -0.196216 0.106436
v 0.179055 0.086640 0.136750
v 0.179055 0.182914 0.105792
v 0.172574 0.195134 0.076904
v 0.189735 0.195134 0.076904
v 0.196216 0.182914 0.105792
v 0.196216 0.086640 0.136750
v 0.196216 -0.196216 0.099677
v 0.179055 -0.196216 0.099677
vt 0.390083 0.035964
vt 0.436184 0.034853
vt 0.434464 0.252603
vt 0.388364 0.252603
vt 0.512441 0.033057
vt 0.548360 0.252603
vt 0.433879 0.337673
vt 0.387779 0.338783
vt 0.530923 0.050132
vt 0.565125 0.252603
vt 0.516302 0.338278
vt 0.433520 0.347859
vt 0.387428 0.348376
vt 0.534216 0.338738
vt 0.486561 0.348249
vt 0.498289 0.347355
vt 0.433388 0.358264
vt 0.387299 0.358671
vt 0.486432 0.358654
vt 0.498161 0.357760
vt 0.548923 0.341698
vt 0.583439 0.253923
vt 0.390187 0.025558
vt 0.436288 0.024447
vt 0.512494 0.022611
vt 0.529403 0.033108
vt 0.584623 0.253723
vt 0.512908 0.022811
vt 0.548536 0.053072
vt 0.436288 0.024447
vt 0.533684 0.358765
vt 0.327396 0.052681
vt 0.371031 0.052499
vt 0.371903 0.255270
vt 0.328267 0.255270
vt 0.372199 0.332912
vt 0.328564 0.333094
vt 0.260727 0.053484
vt 0.229378 0.255270
vt 0.372240 0.342750
vt 0.328606 0.342932
vt 0.257000 0.333392
vt 0.235232 0.067742
vt 0.199934 0.255270
vt 0.282537 0.342323
vt 0.232941 0.332767
vt 0.267285 0.342121
vt 0.328641 0.355624
vt 0.372293 0.355443
vt 0.282554 0.355014
vt 0.267310 0.354813
vt 0.228320 0.349230
vt 0.187087 0.255087
vt 0.327343 0.039988
vt 0.370979 0.039806
vt 0.260527 0.040868
vt 0.220623 0.065248
vt 0.217250 0.338940
vt 0.220365 0.064909
vt 0.308340 0.846747
vt 0.168133 0.848074
vt 0.167886 0.822015
vt 0.308093 0.820688
vt 0.306359 0.637518
vt 0.306638 0.667044
vt 0.166432 0.668371
vt 0.166152 0.638846
vt 0.313357 0.666980
vt 0.314405 0.777723
vt 0.307687 0.777787
vt 0.314762 0.815416
vt 0.308043 0.815480
vt 0.167480 0.779114
vt 0.314812 0.820624
vt 0.167837 0.816807
vt 0.159713 0.668435
vt 0.160761 0.779178
vt 0.161118 0.816871
vt 0.161168 0.822079
vt 0.571512 0.856250
vt 0.444035 0.853780
vt 0.490644 0.626221
vt 0.575937 0.627873
vt 0.471448 0.644076
vt 0.415873 0.853235
vt 0.567927 0.951643
vt 0.567731 0.964259
vt 0.509461 0.962236
vt 0.477374 0.950238
vt 0.496588 0.961789
vt 0.457369 0.949928
vt 0.444213 0.858386
vt 0.569343 0.860327
vt 0.416569 0.857958
vt 0.809179 0.946416
vt 0.809138 0.937677
vt 0.876743 0.934742
vt 0.848725 0.947734
vt 0.808846 0.874425
vt 0.906587 0.867516
vt 0.904378 0.934198
vt 0.893036 0.946312
vt 0.963824 0.864890
vt 0.881871 0.631379
vt 0.808120 0.631601
vt 0.906340 0.650256
vt 0.955549 0.868692
vt 0.919062 0.868802
vt 0.808837 0.869135
vt 0.679301 0.022054
vt 0.679295 0.197208
vt 0.895959 0.197208
vt 0.895965 0.022055
vt 0.601733 0.208140
vt 0.687267 0.211877
vt 0.666564 0.365734
vt 0.888011 0.211877
vt 0.972852 0.211877
vt 0.892673 0.365734
vt 0.653642 0.204366
vt 0.916295 0.201545
vt 0.573902 0.947498
vt 0.573861 0.938759
vt 0.809177 0.946416
vt 0.573571 0.875507
vt 0.581506 0.718372
vt 0.799466 0.717370
vn 0.000000 -0.186261 0.982500
vn 0.000000 -0.186261 0.982500
vn 0.000000 -0.022823 0.999740
vn 0.000000 -0.022823 0.999740
vn 0.000000 0.999934 0.011489
vn 0.000000 1.000000 0.000959
vn 0.000000 1.000000 0.000000
vn 0.000000 1.000000 0.000000
vn 0.000000 0.000000 -1.000000
vn 0.000000 0.000000 -1.000000
vn 0.000000 0.000000 -1.000000
vn 0.000000 -0.000000 -1.000000
vn 0.000000 -1.000000 0.000000
vn 0.000000 -1.000000 0.000000
vn 0.000000 -1.000000 0.000000
vn 0.000000 -1.000000 0.000000
vn 1.000000 0.000000 0.000000
vn 1.000000 0.000000 0.000000
vn 1.000000 0.000000 0.000000
vn 1.000000 0.000000 0.000000
vn -1.000000 0.000000 0.000000
vn -1.000000 0.000000 0.000000
vn -1.000000 0.000000 0.000000
vn -1.000000 -0.000000 0.000000
vn 0.000000 0.999999 0.001027
vn 0.000000 0.999948 0.010229
vn 0.000000 1.000000 0.000000
vn 0.000000 1.000000 0.000000
vn 0.000000 0.000000 -1.000000
vn 0.000000 0.000000 -1.000000
vn 0.000000 -0.000000 -1.000000
vn 0.000000 -0.000000 -1.000000
vn 0.000000 -1.000000 -0.000000
vn 0.000000 -1.000000 0.000000
vn 0.000000 -1.000000 -0.000000
vn 0.000000 -1.000000 0.000000
vn 0.000000 -0.186261 0.982500
vn 0.000000 -0.186261 0.982500
vn 0.000000 -0.022823 0.999740
vn 0.000000 -0.022823 0.999740
vn 0.000000 0.000000 1.000000
vn 0.000000 -0.000000 1.000000
vn 0.000000 0.000000 1.000000
vn 0.000000 -0.000000 1.000000
vn 0.000000 0.572986 0.819565
vn 0.000000 0.955571 0.294762
vn 0.000000 0.611603 0.791165
vn 0.000000 0.955571 0.294762
vn -1.000000 -0.000000 0.000000
vn -0.999963 -0.006519 -0.005528
vn -1.000000 0.000000 0.000000
vn -0.997826 0.000000 -0.065904
vn 0.000000 0.000000 -1.000000
vn 0.000000 0.000000 -1.000000
vn 0.000000 -0.000000 -1.000000
vn 0.000000 -0.000000 -1.000000
vn 0.000000 -0.000000 -1.000000
vn 0.000000 0.000000 -1.000000
vn 0.000000 -0.000000 -1.000000
vn 0.000000 0.000000 -1.000000
vn 0.999967 0.006200 0.005271
vn 1.000000 -0.000000 0.000000
vn 0.997998 0.000000 0.063245
vn 1.000000 0.000000 0.000000
vn 0.000000 0.955571 0.294762
vn 0.000000 0.611603 0.791165
vn 0.000000 0.955571 0.294762
vn 0.000000 0.572986 0.819565
vn -0.000000 -0.466346 0.884602
vn -0.000000 -0.466346 0.884602
vn -0.000000 -0.466346 0.884602
vn 0.000000 -0.466346 0.884602
vn 0.000000 -0.975361 0.220615
vn 0.000000 -0.975361 0.220616
vn 1.000000 0.000000 0.000000
vn 1.000000 -0.000000 0.000000
vn 1.000000 -0.000000 0.000000
vn 1.000000 -0.000000 -0.000000
vn 0.992375 0.000000 0.123254
vn 0.873589 0.486572 0.009468
vn 0.999909 0.010302 0.008736
vn 0.999524 0.030855 0.000220
vn 0.000000 0.999785 0.020741
vn 0.000000 0.999785 0.020741
vn -0.873590 -0.486570 -0.009468
vn -0.999524 -0.030855 -0.000220
vn -1.000000 -0.000000 0.000000
vn -1.000000 0.000000 0.000000
vn 0.000000 -0.975361 0.220615
vn 0.000000 -0.975361 0.220615
vn 1.000000 -0.000000 0.000000
vn 1.000000 0.000000 0.000000
vn -0.992375 0.000000 -0.123254
vn -0.999912 -0.010122 -0.008605
vn -0.891180 -0.453496 -0.011849
vn -0.999296 -0.037522 -0.000593
vn 0.891180 0.453496 0.011849
vn 0.999296 0.037522 0.000593
vn 0.000000 0.999785 0.020741
vn 0.000000 0.999785 0.020742
vn -1.000000 -0.000000 0.000000
vn -1.000000 -0.000000 0.000000
vn -1.000000 -0.000000 0.000000
vn -1.000000 0.000000 -0.000000
vn -1.000000 -0.000000 0.000000
vn -1.000000 -0.000000 -0.000000
vn 0.000000 0.033373 0.999443
vn 0.000000 0.033826 0.999428
vn 1.000000 0.000000 0.000000
vn 1.000000 0.000000 0.000000
vn 0.000000 1.000000 0.000000
vn 0.000000 1.000000 0.000000
vn 0.000000 1.000000 0.000000
vn 0.000000 1.000000 0.000000
vn 0.000000 1.000000 0.000000
vn 0.000000 1.000000 0.000000
vn 0.000000 1.000000 0.000000
vn 0.000000 1.000000 0.000000
vn 0.000000 1.000000 0.000000
vn 0.000000 1.000000 0.000000
vn 0.000000 1.000000 0.000000
vn 0.000000 1.000000 0.000000
vn 0.994056 0.050148 -0.096637
vn 0.994056 0.050148 -0.096637
vn 0.994056 0.050148 -0.096637
vn 0.000000 0.460604 -0.887606
vn 0.000000 0.460604 -0.887606
vn 0.000000 0.460604 -0.887606
vn 0.000000 0.460604 -0.887606
vn -0.994056 0.050148 -0.096637
vn -0.994056 0.050148 -0.096637
vn -0.994056 0.050148 -0.096637
vn 0.000000 0.047912 0.998852
vn 0.000000 0.047912 0.998852
vn -1.000000 -0.000000 0.000000
vn -1.000000 -0.000000 0.000000
vn -0.999881 -0.015411 0.000000
vn -0.733215 -0.674236 -0.088324
vn 0.000000 0.999785 0.020741
vn 0.000000 0.999785 0.020741
vn 0.733214 0.674237 0.088323
vn 0.999881 0.015412 0.000000
vn 1.000000 0.000000 0.000000
vn 1.000000 -0.000000 -0.000001
vn 1.000000 0.000000 0.000000
vn 0.000000 -0.624687 0.780875
vn 0.000000 -0.624687 0.780875
vn -0.999886 -0.015129 -0.000000
vn -1.000000 0.000000 -0.000000
vn -0.768048 -0.635558 -0.078542
vn 0.000000 0.999785 0.020742
vn 0.000000 0.999785 0.020744
vn 0.768049 0.635557 0.078541
vn 0.999886 0.015128 0.000000
vn 1.000000 -0.000000 0.000000
vn 1.000000 -0.000000 0.000000
vn 0.000000 -0.739785 0.672844
vn 0.000000 -0.739785 0.672844
vn -1.000000 0.000000 -0.000000
vn -1.000000 0.000000 -0.000001
s 1
f 25/9/1 26/29/2 42/10/3
f 42/10/3 26/29/2 41/27/4
s 2
f 3/12/5 13/17/6 5/13/7
f 5/13/7 13/17/6 14/18/8
s 3
f 15/65/9 7/68/10 45/70/11
f 45/70/11 7/68/10 44/69/12
s 4
f 7/1/13 15/23/14 1/2/15
f 1/2/15 15/23/14 16/24/16
s 5
f 2/32/17 8/33/18 48/35/19
f 48/35/19 8/33/18 47/34/20
s 6
f 7/1/21 1/2/22 44/4/23
f 44/4/23 1/2/22 43/3/24
s 2
f 9/48/25 4/41/26 10/49/27
f 10/49/27 4/41/26 6/40/28
s 3
f 8/76/29 11/66/30 47/77/31
f 47/77/31 11/66/30 46/73/32
s 4
f 12/54/33 11/55/34 2/32/35
f 2/32/35 11/55/34 8/33/36
s 10
f 31/57/37 32/43/38 38/53/39
f 38/53/39 32/43/38 37/44/40
s 2
f 13/60/6 9/61/25 14/63/8
f 14/63/8 9/61/25 10/62/27
s 3
f 11/66/30 15/65/9 46/73/32
f 46/73/32 15/65/9 45/70/11
s 4
f 16/64/16 15/65/14 12/67/33
f 12/67/33 15/65/14 11/66/34
s 11
f 13/122/41 18/123/42 9/124/43
f 9/124/43 18/123/42 17/96/44
s 1
f 27/31/45 29/20/46 28/14/47
f 28/14/47 29/20/46 30/16/48
s 6
f 20/8/49 19/7/50 5/13/51
f 5/13/51 19/7/50 3/12/52
s 3
f 5/74/53 14/63/54 20/71/55
f 20/71/55 14/63/54 21/72/56
f 22/75/57 21/72/56 10/62/58
f 10/62/58 21/72/56 14/63/54
f 23/78/59 22/75/57 6/79/60
f 6/79/60 22/75/57 10/62/58
s 5
f 24/37/61 23/36/62 4/41/63
f 4/41/63 23/36/62 6/40/64
s 10
f 34/51/65 33/52/66 36/47/67
f 36/47/67 33/52/66 35/46/68
s 19
f 41/111/69 16/110/70 38/112/71
f 38/112/71 16/110/70 12/113/72
s 4
f 1/2/15 16/30/16 53/5/73
f 53/5/73 16/30/16 60/25/74
s 20
f 16/83/75 40/80/76 60/82/77
f 60/82/77 40/80/76 59/81/78
s 21
f 13/87/79 57/88/80 18/86/81
f 18/86/81 57/88/80 58/89/82
s 2
f 13/17/6 3/12/5 57/19/83
f 57/19/83 3/12/5 56/15/84
s 6
f 3/12/52 19/7/50 56/15/85
f 56/15/85 19/7/50 55/11/86
f 54/6/87 43/3/24 53/5/88
f 53/5/88 43/3/24 1/2/22
s 4
f 12/54/33 2/32/35 68/56/89
f 68/56/89 2/32/35 67/38/90
s 5
f 2/32/17 48/35/19 67/38/91
f 67/38/91 48/35/19 66/39/92
s 23
f 9/95/93 17/96/94 63/98/95
f 63/98/95 17/96/94 62/97/96
s 5
f 4/41/63 64/45/97 24/37/61
f 24/37/61 64/45/97 65/42/98
s 2
f 4/41/26 9/48/25 64/45/99
f 64/45/99 9/48/25 63/50/100
s 24
f 12/105/101 68/104/102 39/109/103
f 39/109/103 68/104/102 61/108/104
s 10
f 35/46/68 33/58/66 37/44/40
f 37/44/40 33/58/66 38/53/39
s 23
f 17/96/94 39/99/105 62/97/96
f 62/97/96 39/99/105 61/100/106
s 11
f 18/123/42 40/125/107 17/96/44
f 17/96/44 40/125/107 39/99/108
s 21
f 59/92/109 40/93/110 58/89/82
f 58/89/82 40/93/110 18/86/81
s 1
f 42/10/3 41/22/4 28/14/47
f 28/14/47 41/22/4 27/21/45
s 6
f 19/7/50 43/3/24 55/11/86
f 55/11/86 43/3/24 54/6/87
f 44/4/23 43/3/24 20/8/49
f 20/8/49 43/3/24 19/7/50
s 3
f 20/71/55 21/72/56 44/69/12
f 44/69/12 21/72/56 45/70/11
f 46/73/32 45/70/11 22/75/57
f 22/75/57 45/70/11 21/72/56
f 47/77/31 46/73/32 23/78/59
f 23/78/59 46/73/32 22/75/57
s 5
f 48/35/19 47/34/20 24/37/61
f 24/37/61 47/34/20 23/36/62
f 66/39/92 48/35/19 65/42/98
f 65/42/98 48/35/19 24/37/61
s 25
f 40/114/111 59/120/112 49/115/113
f 49/115/113 59/120/112 41/111/114
s 26
f 41/111/115 38/112/116 49/115/117
f 49/115/117 38/112/116 50/117/118
s 27
f 38/112/119 61/121/120 50/117/121
f 50/117/121 61/121/120 39/118/122
s off
f 40/114/123 49/115/124 52/116/125
s 28
f 49/115/126 50/117/127 52/116/128
f 52/116/128 50/117/127 51/119/129
s off
f 50/117/130 39/118/131 51/119/132
s 11
f 39/99/108 40/125/107 51/127/133
f 51/127/133 40/125/107 52/126/134
s 6
f 42/10/135 54/6/87 25/9/136
f 25/9/136 54/6/87 53/5/88
f 55/11/86 54/6/87 28/14/137
f 28/14/137 54/6/87 42/10/135
f 56/15/85 55/11/86 30/16/138
f 30/16/138 55/11/86 28/14/137
s 2
f 57/19/83 56/15/84 29/20/139
f 29/20/139 56/15/84 30/16/140
s 21
f 57/88/80 29/90/141 58/89/82
f 58/89/82 29/90/141 27/91/142
f 41/94/143 59/92/109 27/91/142
f 27/91/142 59/92/109 58/89/82
s 20
f 60/82/77 59/81/78 26/84/144
f 26/84/144 59/81/78 41/85/145
s 4
f 53/5/73 60/28/74 25/9/146
f 25/9/146 60/28/74 26/26/147
s 23
f 62/97/96 61/100/106 33/101/148
f 33/101/148 61/100/106 38/103/149
f 63/98/95 62/97/96 34/102/150
f 34/102/150 62/97/96 33/101/148
s 2
f 64/45/99 63/50/100 36/47/151
f 36/47/151 63/50/100 34/51/152
s 5
f 64/45/97 36/47/153 65/42/98
f 65/42/98 36/47/153 35/46/154
f 37/44/155 66/39/92 35/46/154
f 35/46/154 66/39/92 65/42/98
f 67/38/91 66/39/92 32/43/156
f 32/43/156 66/39/92 37/44/155
s 4
f 68/56/89 67/38/90 31/59/157
f 31/59/157 67/38/90 32/43/158
s 24
f 38/107/159 61/108/104 31/106/160
f 31/106/160 61/108/104 68/104/102
