# This file uses centimeters as units for non-parametric coordinates.

mtllib ElevatorWall.mtl
g default
v 0.263445 -3.000000 3.500000
v 0.263445 -3.000000 -3.500000
v 0.263445 -2.684495 -3.500000
v 0.263446 -2.684495 -1.379882
v 0.263446 -2.684495 1.620118
v 0.263445 -2.684495 3.500000
v -0.263445 -2.684495 3.500000
v -0.263445 -3.000000 3.500000
v -0.263445 -3.000000 -3.500000
v -0.263445 -2.684495 -3.500000
v 0.263446 0.948992 1.620118
v 0.263446 0.948992 -1.379882
v 0.263445 2.684494 -3.500000
v 0.263445 2.684494 3.500000
v -0.263445 2.684494 3.500000
v -0.263445 -2.684495 1.620118
v -0.263445 -2.684495 -1.379882
v -0.263445 2.684494 -3.500000
v 0.263445 3.000000 -3.500000
v 0.263445 3.000000 3.500000
v -0.263445 3.000000 3.500000
v -0.263445 0.948992 -1.379882
v -0.263445 0.948992 1.620118
v -0.263445 3.000000 -3.500000
vt 0.041199 0.041199
vt 0.575569 0.041199
vt 0.575569 0.065284
vt 0.413722 0.065284
vt 0.184706 0.065284
vt 0.041199 0.065284
vt 0.000977 0.065284
vt 0.000977 0.041199
vt 0.041199 0.000977
vt 0.575569 0.000977
vt 0.615791 0.041199
vt 0.615791 0.065284
vt 0.184706 0.344481
vt 0.413722 0.344481
vt 0.575569 0.475145
vt 0.041199 0.475145
vt 0.000977 0.475145
vt 0.039658 0.540992
vt 0.574028 0.540992
vt 0.574028 0.565077
vt 0.430521 0.565077
vt 0.201505 0.565077
vt 0.039658 0.565077
vt 0.615791 0.475145
vt 0.575569 0.499230
vt 0.041199 0.499230
vt 0.000977 0.499230
vt 0.039658 0.974938
vt 0.201505 0.844274
vt 0.430521 0.844274
vt 0.574028 0.974938
vt 0.615791 0.499230
vt 0.041199 0.539453
vt 0.575569 0.539453
vt 0.574028 0.999023
vt 0.039658 0.999023
vt 0.674475 0.000000
vt 0.674475 0.250000
vt 0.638133 0.250000
vt 0.638133 0.000000
vt 0.674475 0.750000
vt 0.674475 1.000000
vt 0.638133 1.000000
vt 0.638133 0.750000
vt 0.674475 0.500000
vt 0.638133 0.500000
vn 1.000000 0.000000 0.000000
vn 1.000000 -0.000000 -0.000000
vn 1.000000 -0.000000 0.000000
vn 1.000000 -0.000000 0.000000
vn 1.000000 -0.000001 -0.000000
vn 1.000000 0.000000 -0.000000
vn 0.000000 0.000000 1.000000
vn 0.000000 0.000000 1.000000
vn 0.000000 0.000000 1.000000
vn 0.000000 0.000000 1.000000
vn 0.000000 -1.000000 0.000000
vn 0.000000 -1.000000 0.000000
vn 0.000000 -1.000000 0.000000
vn 0.000000 -1.000000 0.000000
vn 0.000000 0.000000 -1.000000
vn 0.000000 0.000000 -1.000000
vn 0.000000 0.000000 -1.000000
vn 0.000000 0.000000 -1.000000
vn 1.000000 0.000000 0.000000
vn 1.000000 0.000000 0.000000
vn 1.000000 0.000000 -0.000000
vn 1.000000 0.000000 -0.000000
vn 0.000000 0.000000 1.000000
vn 0.000000 0.000000 1.000000
vn -1.000000 0.000000 0.000000
vn -1.000000 0.000000 -0.000000
vn -1.000000 0.000000 0.000000
vn -1.000000 0.000001 0.000000
vn -1.000000 0.000000 -0.000000
vn -1.000000 0.000000 -0.000000
vn 0.000000 0.000000 -1.000000
vn 0.000000 0.000000 -1.000000
vn 1.000000 0.000000 0.000000
vn 1.000000 0.000000 0.000000
vn 0.000000 0.000000 1.000000
vn 0.000000 0.000000 1.000000
vn -1.000000 -0.000000 0.000000
vn -1.000000 -0.000000 0.000000
vn -1.000000 -0.000000 -0.000000
vn -1.000000 0.000000 -0.000000
vn 0.000000 0.000000 -1.000000
vn 0.000000 0.000000 -1.000000
vn 0.000000 1.000000 0.000000
vn 0.000000 1.000000 0.000000
vn 0.000000 1.000000 0.000000
vn 0.000000 1.000000 0.000000
vn -1.000000 0.000000 0.000000
vn -1.000000 0.000000 0.000000
vn 0.000000 0.000000 -1.000000
vn 0.000000 0.000000 -1.000000
vn 0.000000 0.000000 -1.000000
vn 0.000000 0.000000 -1.000000
vn 0.000000 1.000000 0.000000
vn 0.000000 1.000000 0.000000
vn 0.000000 1.000000 0.000000
vn 0.000000 1.000000 0.000000
vn 0.000000 -1.000000 0.000000
vn 0.000000 -1.000000 0.000000
vn 0.000000 -1.000000 0.000000
vn 0.000000 -1.000000 0.000000
vn 0.000000 0.000000 1.000000
vn 0.000000 0.000000 1.000000
vn 0.000000 0.000000 1.000000
vn 0.000000 0.000000 1.000000
s 1
g ElevatorWall
usemtl lambert10SG
f 1/1/1 2/2/2 6/6/3
f 6/6/3 2/2/2 5/5/4
f 5/5/4 2/2/2 4/4/5
f 2/2/2 3/3/6 4/4/5
s 2
f 7/7/7 8/8/8 6/6/9
f 6/6/9 8/8/8 1/1/10
s 3
f 8/9/11 9/10/12 1/1/13
f 1/1/13 9/10/12 2/2/14
s 4
f 9/11/15 10/12/16 2/2/17
f 2/2/17 10/12/16 3/3/18
s 1
f 6/6/3 5/5/4 14/16/19
f 5/5/4 11/13/20 14/16/19
f 14/16/19 11/13/20 13/15/21
f 11/13/20 12/14/22 13/15/21
f 13/15/21 12/14/22 3/3/6
f 12/14/22 4/4/5 3/3/6
s 2
f 15/17/23 7/7/7 14/16/24
f 14/16/24 7/7/7 6/6/9
s 5
f 9/18/25 8/19/26 10/23/27
f 10/23/27 8/19/26 17/22/28
f 17/22/28 8/19/26 16/21/29
f 8/19/26 7/20/30 16/21/29
s 4
f 3/3/18 10/12/16 13/15/31
f 13/15/31 10/12/16 18/24/32
s 1
f 14/16/19 13/15/21 20/26/33
f 20/26/33 13/15/21 19/25/34
s 2
f 21/27/35 15/17/23 20/26/36
f 20/26/36 15/17/23 14/16/24
s 5
f 10/23/27 17/22/28 18/28/37
f 17/22/28 22/29/38 18/28/37
f 18/28/37 22/29/38 15/31/39
f 22/29/38 23/30/40 15/31/39
f 15/31/39 23/30/40 7/20/30
f 23/30/40 16/21/29 7/20/30
s 4
f 13/15/31 18/24/32 19/25/41
f 19/25/41 18/24/32 24/32/42
s 6
f 21/33/43 20/26/44 24/34/45
f 24/34/45 20/26/44 19/25/46
s 5
f 21/35/47 24/36/48 15/31/39
f 15/31/39 24/36/48 18/28/37
s 7
f 16/37/49 23/38/50 5/40/51
f 5/40/51 23/38/50 11/39/52
s 8
f 17/41/53 16/42/54 4/44/55
f 4/44/55 16/42/54 5/43/56
s 9
f 23/38/57 22/45/58 11/39/59
f 11/39/59 22/45/58 12/46/60
s 10
f 22/45/61 17/41/62 12/46/63
f 12/46/63 17/41/62 4/44/64
