# This file uses meters as units for non-parametric coordinates.

g ExitSign
v 0.600000 -0.263845 -0.105859
v -0.600000 -0.263845 -0.105859
v -0.600000 -0.263845 0.105859
v 0.600000 -0.263845 0.105859
v 0.600000 -0.552561 -0.105859
v -0.600000 -0.552561 -0.105859
v -0.600000 -0.552561 0.105859
v 0.600000 -0.552561 0.105859
v 0.540404 -0.263845 -0.105859
v 0.540404 -0.214341 -0.105859
v 0.540404 -0.214341 0.105859
v 0.540404 -0.263845 0.105859
v 0.540404 -0.552561 0.105859
v 0.540404 -0.623039 0.105859
v 0.540404 -0.623039 -0.105859
v 0.540404 -0.552561 -0.105859
v -0.536905 -0.263845 -0.105859
v -0.536905 -0.214341 -0.105859
v -0.536905 -0.214341 0.105859
v -0.536905 -0.263845 0.105859
v -0.536905 -0.552561 0.105859
v -0.536905 -0.623039 0.105859
v -0.536905 -0.623039 -0.105859
v -0.536905 -0.552561 -0.105859
v -0.536905 -0.552561 -0.139664
v -0.536905 -0.263845 -0.139664
v 0.540404 -0.263845 -0.139664
v 0.540404 -0.552561 -0.139664
v -0.536905 -0.552561 0.139446
v 0.540404 -0.552561 0.139446
v 0.540404 -0.263845 0.139446
v -0.536905 -0.263845 0.139446
v -0.600000 -0.229191 0.105859
v -0.585150 -0.214341 0.105859
v -0.595651 -0.218690 0.105859
v -0.600000 -0.229191 -0.105859
v -0.595651 -0.218690 -0.105859
v -0.585150 -0.214341 -0.105859
v 0.585150 -0.214341 0.105859
v 0.600000 -0.229191 0.105859
v 0.595651 -0.218690 0.105859
v 0.585150 -0.214341 -0.105859
v 0.595651 -0.218690 -0.105859
v 0.600000 -0.229191 -0.105859
v -0.595651 -0.618690 0.105859
v -0.585150 -0.623039 0.105859
v -0.600000 -0.608189 0.105859
v -0.600000 -0.608189 -0.105859
v -0.585150 -0.623039 -0.105859
v -0.595651 -0.618690 -0.105859
v 0.585150 -0.623039 0.105859
v 0.595651 -0.618690 0.105859
v 0.600000 -0.608189 0.105859
v 0.585150 -0.623039 -0.105859
v 0.600000 -0.608189 -0.105859
v 0.595651 -0.618690 -0.105859
v 0.508987 -0.221636 -0.015217
v 0.491099 -0.221636 -0.009405
v 0.491099 -0.221636 0.009405
v 0.508987 -0.221636 0.015217
v 0.520043 -0.221636 0.000000
v 0.508987 0.039227 -0.015217
v 0.491099 0.039227 -0.009405
v 0.491099 0.039227 0.009405
v 0.508987 0.039227 0.015217
v 0.520043 0.039227 0.000000
v 0.504043 -0.221636 0.000000
v 0.504043 0.039227 0.000000
v -0.500361 -0.221636 -0.015217
v -0.518249 -0.221636 -0.009405
v -0.518249 -0.221636 0.009405
v -0.500361 -0.221636 0.015217
v -0.489305 -0.221636 0.000000
v -0.500361 0.039227 -0.015217
v -0.518249 0.039227 -0.009405
v -0.518249 0.039227 0.009405
v -0.500361 0.039227 0.015217
v -0.489305 0.039227 0.000000
v -0.505305 -0.221636 0.000000
v -0.505305 0.039227 0.000000
vt 0.743344 0.978527
vt 0.570244 0.978527
vt 0.570244 0.958259
vt 0.743344 0.958259
vt 0.570244 0.292091
vt 0.743344 0.292091
vt 0.743344 0.312359
vt 0.570244 0.312359
vt 0.791475 0.290955
vt 0.964574 0.290955
vt 0.964574 0.311092
vt 0.791475 0.311092
vt 0.964575 0.977130
vt 0.791475 0.977130
vt 0.791475 0.956993
vt 0.964575 0.956993
vt 0.549976 0.958259
vt 0.549976 0.312359
vt 0.763612 0.312359
vt 0.763612 0.958259
vt 0.771337 0.956993
vt 0.771337 0.311092
vt 0.984712 0.311092
vt 0.984712 0.956993
vt 0.173887 0.003556
vt 0.173888 0.063487
vt 0.164078 0.063488
vt 0.164078 0.003556
vt 0.255615 0.003556
vt 0.255616 0.063487
vt 0.161105 0.003556
vt 0.161106 0.064103
vt 0.268900 0.003555
vt 0.268900 0.063487
vt 0.271872 0.003555
vt 0.271873 0.064103
vt 0.173888 0.403176
vt 0.173888 0.463107
vt 0.164078 0.463107
vt 0.164078 0.403176
vt 0.255616 0.403176
vt 0.255616 0.463107
vt 0.160490 0.464031
vt 0.161106 0.402560
vt 0.268900 0.403176
vt 0.268900 0.463107
vt 0.272181 0.463723
vt 0.271873 0.402560
vt 0.159875 0.785925
vt 0.159875 0.798592
vt 0.099944 0.798592
vt 0.099944 0.785925
vt 0.160491 0.801564
vt 0.099944 0.801564
vt 0.159875 0.480968
vt 0.099943 0.480968
vt 0.099943 0.467311
vt 0.159875 0.467311
vt 0.099943 0.464339
vt 0.333036 0.785925
vt 0.333036 0.798591
vt 0.273105 0.798592
vt 0.273105 0.785925
vt 0.272489 0.801564
vt 0.333036 0.801564
vt 0.333036 0.480967
vt 0.273104 0.480968
vt 0.273104 0.467311
vt 0.333036 0.467310
vt 0.333036 0.464338
vt 0.255616 0.080357
vt 0.173888 0.080357
vt 0.159874 0.080357
vt 0.159874 0.067691
vt 0.273104 0.067691
vt 0.273104 0.080357
vt 0.159874 0.385315
vt 0.173888 0.385315
vt 0.255616 0.385315
vt 0.273104 0.385315
vt 0.159874 0.398972
vt 0.273104 0.398972
vt 0.255617 0.785925
vt 0.255617 0.802795
vt 0.173889 0.802795
vt 0.173889 0.785925
vt 0.268901 0.802795
vt 0.164079 0.802796
vt 0.255616 0.480968
vt 0.173888 0.480968
vt 0.001540 0.002269
vt 0.020340 0.002269
vt 0.001540 0.998008
vt 0.020340 0.998008
vt 0.039140 0.002269
vt 0.039140 0.998008
vt 0.057941 0.002269
vt 0.057941 0.998008
vt 0.076741 0.002269
vt 0.076741 0.998008
vt 0.095542 0.002269
vt 0.095542 0.998008
vt 0.443662 0.082822
vt 0.481142 0.070644
vt 0.470782 0.101186
vt 0.443662 0.122231
vt 0.481142 0.134409
vt 0.504306 0.102527
vt 0.546125 0.134705
vt 0.508645 0.122527
vt 0.535766 0.101482
vt 0.508645 0.083118
vt 0.546125 0.070940
vt 0.569289 0.102823
vt 0.001540 0.002269
vt 0.020340 0.002269
vt 0.001540 0.998008
vt 0.020340 0.998008
vt 0.039140 0.002269
vt 0.039140 0.998008
vt 0.057941 0.002269
vt 0.057941 0.998008
vt 0.076741 0.002269
vt 0.076741 0.998008
vt 0.095542 0.002269
vt 0.095542 0.998008
vt 0.443662 0.082822
vt 0.481142 0.070644
vt 0.470782 0.101186
vt 0.443662 0.122231
vt 0.481142 0.134409
vt 0.504306 0.102527
vt 0.546125 0.134705
vt 0.508645 0.122527
vt 0.535766 0.101482
vt 0.508645 0.083118
vt 0.546125 0.070940
vt 0.569289 0.102823
vn 0.000000 1.000000 0.000000
vn 0.078484 0.996915 0.000000
vn 0.000000 1.000000 0.000000
vn 0.078484 0.996915 0.000000
vn 0.000000 -1.000000 0.000000
vn 0.078484 -0.996915 0.000000
vn 0.000000 -1.000000 0.000000
vn 0.078484 -0.996915 0.000000
vn 1.000000 0.000000 0.000000
vn 1.000000 0.000000 0.000000
vn 0.995393 0.095879 0.000000
vn 0.995393 0.095879 0.000000
vn -1.000000 0.000000 0.000000
vn -1.000000 0.000000 0.000000
vn -0.995393 0.095879 0.000000
vn -0.995393 0.095879 0.000000
vn -0.000000 0.000000 -1.000000
vn 0.000000 0.000000 -1.000000
vn 0.000000 0.000000 -1.000000
vn 0.000000 0.000000 -1.000000
vn -1.000000 0.000000 0.000000
vn -1.000000 0.000000 0.000000
vn -0.000000 0.000000 1.000000
vn 0.000000 0.000000 1.000000
vn 0.000000 0.000000 1.000000
vn 0.000000 0.000000 1.000000
vn 1.000000 0.000000 0.000000
vn 1.000000 0.000000 0.000000
vn -0.997844 -0.065631 0.000000
vn -0.997844 -0.065631 0.000000
vn 0.997844 -0.065631 0.000000
vn 0.997844 -0.065631 0.000000
vn 0.000000 0.000000 -1.000000
vn 0.000000 0.000000 -1.000000
vn 0.000000 0.000000 -1.000000
vn 0.000000 1.000000 0.000000
vn 0.000000 1.000000 0.000000
vn 0.000000 0.000000 1.000000
vn 0.000000 0.000000 1.000000
vn 0.000000 0.000000 1.000000
vn 0.000000 0.000000 1.000000
vn 0.000000 0.000000 1.000000
vn 0.000000 0.000000 1.000000
vn 0.000000 0.000000 1.000000
vn 0.000000 0.000000 1.000000
vn 0.000000 0.000000 1.000000
vn 0.000000 0.000000 1.000000
vn 0.000000 -1.000000 0.000000
vn 0.000000 -1.000000 0.000000
vn 0.000000 0.000000 -1.000000
vn 0.000000 0.000000 -1.000000
vn 0.000000 0.000000 -1.000000
vn 0.000000 0.000000 -1.000000
vn 0.000000 0.000000 -1.000000
vn 0.000000 0.000000 -1.000000
vn 0.000000 0.000000 -1.000000
vn -0.073835 0.997270 0.000000
vn -0.073835 0.997270 0.000000
vn 0.000000 0.000000 1.000000
vn 0.000000 0.000000 1.000000
vn -0.073836 -0.997270 0.000000
vn -0.073836 -0.997270 0.000000
vn 0.000000 0.000000 -1.000000
vn 0.000000 0.000000 -1.000000
vn -1.000000 0.000000 0.000002
vn -1.000000 0.000000 -0.000002
vn -1.000000 0.000000 0.000002
vn -1.000000 0.000000 -0.000002
vn -0.000000 1.000000 -0.000001
vn -0.000000 1.000000 0.000001
vn -0.000000 1.000000 -0.000001
vn -0.000000 1.000000 0.000001
vn 1.000000 0.000000 0.000002
vn 1.000000 -0.000001 -0.000002
vn 1.000000 -0.000000 0.000002
vn 1.000000 -0.000001 -0.000002
vn 0.000000 -1.000000 -0.000000
vn 0.000000 -1.000000 -0.000000
vn 0.000000 -1.000000 -0.000000
vn 0.000000 -1.000000 0.000000
vn 0.000000 -1.000000 0.000000
vn 0.000000 -1.000000 0.000000
vn 0.000000 -1.000000 0.000000
vn 0.000000 -1.000000 0.000000
vn 1.000000 0.000000 0.000000
vn 1.000000 0.000000 0.000000
vn 1.000000 0.000000 0.000000
vn 1.000000 0.000000 0.000000
vn 0.000000 1.000000 0.000000
vn 0.000000 1.000000 0.000000
vn 0.000000 1.000000 0.000000
vn 0.000000 1.000000 0.000000
vn -1.000000 0.000000 0.000000
vn -1.000000 0.000000 0.000000
vn -1.000000 0.000000 0.000000
vn -1.000000 0.000000 0.000000
vn -0.923879 0.382685 0.000000
vn -0.923879 0.382685 0.000000
vn -0.382683 0.923880 0.000000
vn -0.382683 0.923880 0.000000
vn 0.382683 0.923880 0.000000
vn 0.382683 0.923880 0.000000
vn 0.923879 0.382685 0.000000
vn 0.923879 0.382685 0.000000
vn -0.382685 -0.923879 0.000000
vn -0.382685 -0.923879 0.000000
vn -0.923879 -0.382685 0.000000
vn -0.923879 -0.382685 0.000000
vn 0.923879 -0.382685 0.000000
vn 0.923879 -0.382685 0.000000
vn 0.382685 -0.923879 0.000000
vn 0.382685 -0.923879 0.000000
vn 0.000000 0.000000 1.000000
vn 0.000000 0.000000 1.000000
vn 0.000000 0.000000 1.000000
vn 0.000000 0.000000 -1.000000
vn 0.000000 0.000000 -1.000000
vn 0.000000 0.000000 -1.000000
vn 0.000000 0.000000 1.000000
vn 0.000000 0.000000 1.000000
vn 0.000000 0.000000 1.000000
vn 0.000000 0.000000 -1.000000
vn -0.000000 0.000000 -1.000000
vn -0.000000 0.000000 -1.000000
vn 0.000001 0.000000 1.000000
vn -0.000000 0.000000 1.000000
vn 0.000000 0.000000 1.000000
vn -0.000000 0.000000 -1.000000
vn 0.000001 0.000000 -1.000000
vn 0.000001 0.000000 -1.000000
vn 0.000000 0.000000 1.000000
vn -0.000001 0.000000 1.000000
vn -0.000001 0.000000 1.000000
vn -0.000000 0.000000 -1.000000
vn 0.000000 0.000000 -1.000000
vn -0.000001 0.000000 -1.000000
vn 0.308808 -0.036776 -0.950413
vn -0.808470 -0.036776 -0.587387
vn 0.308808 0.036776 -0.950413
vn -0.808470 0.036776 -0.587387
vn -0.808470 -0.036776 0.587387
vn -0.808470 0.036776 0.587387
vn 0.308808 -0.036776 0.950413
vn 0.308808 0.036776 0.950413
vn 0.999323 -0.036776 -0.000000
vn 0.999323 0.036776 0.000000
vn 0.000000 -1.000000 -0.000000
vn 0.000000 1.000000 0.000000
vn 0.308808 -0.036776 -0.950413
vn -0.808470 -0.036776 -0.587387
vn 0.308808 0.036776 -0.950413
vn -0.808470 0.036776 -0.587387
vn -0.808470 -0.036776 0.587387
vn -0.808470 0.036776 0.587387
vn 0.308808 -0.036776 0.950413
vn 0.308808 0.036776 0.950413
vn 0.999323 -0.036776 -0.000000
vn 0.999323 0.036776 0.000000
vn 0.000000 -1.000000 -0.000000
vn 0.000000 1.000000 0.000000
s 1
f 11/49/1 39/50/2 10/52/3
f 10/52/3 39/50/2 42/51/4
s 2
f 15/60/5 54/61/6 14/63/7
f 14/63/7 54/61/6 51/62/8
s 3
f 4/25/9 1/26/10 40/28/11
f 40/28/11 1/26/10 44/27/12
s 4
f 2/37/13 3/38/14 36/40/15
f 36/40/15 3/38/14 33/39/16
s 5
f 16/71/17 9/72/18 5/30/19
f 5/30/19 9/72/18 1/26/20
s 4
f 6/41/21 7/42/22 2/37/13
f 2/37/13 7/42/22 3/38/14
s 7
f 13/83/23 8/84/24 12/86/25
f 12/86/25 8/84/24 4/85/26
s 3
f 8/29/27 5/30/28 4/25/9
f 4/25/9 5/30/28 1/26/10
s 4
f 48/45/29 47/46/30 6/41/21
f 6/41/21 47/46/30 7/42/22
s 3
f 53/33/31 55/34/32 8/29/27
f 8/29/27 55/34/32 5/30/28
s 5
f 18/77/33 10/73/34 17/78/35
f 17/78/35 10/73/34 9/72/18
s 1
f 19/55/36 11/49/1 18/56/37
f 18/56/37 11/49/1 10/52/3
s 7
f 20/90/38 12/86/25 19/55/39
f 19/55/39 12/86/25 11/49/40
s 13
f 29/15/41 30/12/42 32/16/43
f 32/16/43 30/12/42 31/11/44
s 7
f 22/67/45 14/63/46 21/89/47
f 21/89/47 14/63/46 13/83/23
s 2
f 23/66/48 15/60/5 22/67/49
f 22/67/49 15/60/5 14/63/7
s 5
f 24/79/50 16/71/17 23/80/51
f 23/80/51 16/71/17 15/76/52
s 16
f 25/4/53 26/3/54 28/7/55
f 28/7/55 26/3/54 27/8/56
s 1
f 38/57/57 34/58/58 18/56/37
f 18/56/37 34/58/58 19/55/36
s 7
f 7/42/59 21/89/47 3/38/60
f 3/38/60 21/89/47 20/90/38
s 2
f 46/68/61 49/69/62 22/67/49
f 22/67/49 49/69/62 23/66/48
s 5
f 2/37/63 17/78/35 6/41/64
f 6/41/64 17/78/35 24/79/50
s 21
f 24/1/65 17/2/66 25/4/67
f 25/4/67 17/2/66 26/3/68
s 22
f 17/17/69 9/18/70 26/3/71
f 26/3/71 9/18/70 27/8/72
s 23
f 9/5/73 16/6/74 27/8/75
f 27/8/75 16/6/74 28/7/76
s 24
f 16/19/77 24/20/78 28/7/79
f 28/7/79 24/20/78 25/4/80
s 25
f 21/21/81 13/22/82 29/15/83
f 29/15/83 13/22/82 30/12/84
s 26
f 13/9/85 12/10/86 30/12/87
f 30/12/87 12/10/86 31/11/88
s 27
f 12/23/89 20/24/90 31/11/91
f 31/11/91 20/24/90 32/16/92
s 28
f 20/13/93 21/14/94 32/16/95
f 32/16/95 21/14/94 29/15/96
s 4
f 33/39/16 35/43/97 36/40/15
f 36/40/15 35/43/97 37/44/98
s 1
f 35/43/99 34/58/58 37/59/100
f 37/59/100 34/58/58 38/57/57
f 39/50/2 41/53/101 42/51/4
f 42/51/4 41/53/101 43/54/102
s 3
f 41/31/103 40/28/11 43/32/104
f 43/32/104 40/28/11 44/27/12
s 2
f 46/68/61 45/47/105 49/69/62
f 49/69/62 45/47/105 50/70/106
s 4
f 45/47/107 47/46/30 50/48/108
f 50/48/108 47/46/30 48/45/29
s 3
f 53/33/31 52/35/109 55/34/32
f 55/34/32 52/35/109 56/36/110
s 2
f 52/64/111 51/62/8 56/65/112
f 56/65/112 51/62/8 54/61/6
s 7
f 3/38/60 20/90/38 33/39/113
f 19/55/39 34/58/114 20/90/38
f 33/39/113 20/90/38 35/43/115
f 20/90/38 34/58/114 35/43/115
s 5
f 18/77/33 17/78/35 38/81/116
f 2/37/63 36/40/117 17/78/35
f 36/40/117 37/44/118 17/78/35
f 17/78/35 37/44/118 38/81/116
s 7
f 11/49/40 12/86/25 39/50/119
f 4/85/26 40/88/120 12/86/25
f 40/88/120 41/53/121 12/86/25
f 39/50/119 12/86/25 41/53/121
s 5
f 1/26/20 9/72/18 44/27/122
f 10/73/34 42/74/123 9/72/18
f 44/27/122 9/72/18 43/32/124
f 9/72/18 42/74/123 43/32/124
s 7
f 22/67/45 21/89/47 46/68/125
f 7/42/59 47/46/126 21/89/47
f 47/46/126 45/47/127 21/89/47
f 45/47/127 46/68/125 21/89/47
s 5
f 6/41/64 24/79/50 48/45/128
f 23/80/51 49/82/129 24/79/50
f 48/45/128 24/79/50 50/48/130
f 24/79/50 49/82/129 50/48/130
s 7
f 8/84/24 13/83/23 53/87/131
f 14/63/46 51/62/132 13/83/23
f 51/62/132 52/64/133 13/83/23
f 13/83/23 52/64/133 53/87/131
s 5
f 15/76/52 16/71/17 54/75/134
f 5/30/19 55/34/135 16/71/17
f 54/75/134 16/71/17 56/36/136
f 16/71/17 55/34/135 56/36/136
s 29
f 57/91/137 58/92/138 62/93/139
f 62/93/139 58/92/138 63/94/140
f 58/92/138 59/95/141 63/94/140
f 63/94/140 59/95/141 64/96/142
f 59/95/141 60/97/143 64/96/142
f 64/96/142 60/97/143 65/98/144
f 60/97/143 61/99/145 65/98/144
f 65/98/144 61/99/145 66/100/146
f 61/99/145 57/101/137 66/100/146
f 66/100/146 57/101/137 62/102/139
f 58/103/138 57/104/137 67/105/147
f 59/106/141 58/103/138 67/105/147
f 60/107/143 59/106/141 67/105/147
f 61/108/145 60/107/143 67/105/147
f 57/104/137 61/108/145 67/105/147
f 62/109/139 63/110/140 68/111/148
f 63/110/140 64/112/142 68/111/148
f 64/112/142 65/113/144 68/111/148
f 65/113/144 66/114/146 68/111/148
f 66/114/146 62/109/139 68/111/148
s 30
f 69/115/149 70/116/150 74/117/151
f 74/117/151 70/116/150 75/118/152
f 70/116/150 71/119/153 75/118/152
f 75/118/152 71/119/153 76/120/154
f 71/119/153 72/121/155 76/120/154
f 76/120/154 72/121/155 77/122/156
f 72/121/155 73/123/157 77/122/156
f 77/122/156 73/123/157 78/124/158
f 73/123/157 69/125/149 78/124/158
f 78/124/158 69/125/149 74/126/151
f 70/127/150 69/128/149 79/129/159
f 71/130/153 70/127/150 79/129/159
f 72/131/155 71/130/153 79/129/159
f 73/132/157 72/131/155 79/129/159
f 69/128/149 73/132/157 79/129/159
f 74/133/151 75/134/152 80/135/160
f 75/134/152 76/136/154 80/135/160
f 76/136/154 77/137/156 80/135/160
f 77/137/156 78/138/158 80/135/160
f 78/138/158 74/133/151 80/135/160
