# This file uses meters as units for non-parametric coordinates.

mtllib KeyboardFIXEDSIZE.mtl
g KeyboardFIXEDSIZE
v -0.107514 0.648040 0.488139
v 0.228267 0.648040 0.499949
v -0.107514 0.686652 0.488139
v 0.228267 0.686652 0.499949
v -0.072761 0.686652 -0.499949
v 0.263020 0.686652 -0.488139
v -0.072761 0.648040 -0.499949
v 0.263020 0.648040 -0.488139
vt 0.818205 0.254475
vt 0.820328 0.465629
vt 0.762590 0.465755
vt 0.760466 0.254601
vt 0.308106 0.466215
vt 0.305983 0.255061
vt 0.259651 0.466371
vt 0.257527 0.255217
vt 0.150855 0.466843
vt 0.148731 0.255690
vt 0.762920 0.498174
vt 0.308436 0.498635
vt 0.305685 0.225725
vt 0.760167 0.225264
vn -0.035150 0.000000 0.999382
vn -0.035150 0.000000 0.999382
vn -0.035150 0.000000 0.999382
vn -0.035150 0.000000 0.999382
vn 0.000000 1.000000 -0.000000
vn 0.000000 1.000000 -0.000000
vn 0.000000 1.000000 -0.000000
vn 0.000000 1.000000 -0.000000
vn 0.035150 0.000000 -0.999382
vn 0.035150 0.000000 -0.999382
vn 0.035150 0.000000 -0.999382
vn 0.035150 0.000000 -0.999382
vn 0.000000 -1.000000 0.000000
vn 0.000000 -1.000000 0.000000
vn 0.000000 -1.000000 0.000000
vn 0.000000 -1.000000 0.000000
vn 0.999382 0.000000 0.035150
vn 0.999382 0.000000 0.035150
vn 0.999382 0.000000 0.035150
vn 0.999382 0.000000 0.035150
vn -0.999382 0.000000 -0.035150
vn -0.999382 0.000000 -0.035150
vn -0.999382 0.000000 -0.035150
vn -0.999382 0.000000 -0.035150
s off
g KeyboardFIXEDSIZE
usemtl lambert4SG
f 1/1/1 2/2/2 4/3/3 3/4/4
f 3/4/5 4/3/6 6/5/7 5/6/8
f 5/6/9 6/5/10 8/7/11 7/8/12
f 7/8/13 8/7/14 2/9/15 1/10/16
f 2/11/17 8/12/18 6/5/19 4/3/20
f 7/13/21 1/14/22 3/4/23 5/6/24
