# This file uses meters as units for non-parametric coordinates.

mtllib MagazinesObjectFIXEDSIZE.mtl
g default
v -0.129546 0.522163 -0.033951
v -0.115837 0.522163 -0.011805
v -0.124669 0.522163 -0.017213
v -0.129687 0.522163 -0.025319
v -0.129546 0.533665 -0.033951
v -0.129687 0.533665 -0.025319
v -0.124669 0.533665 -0.017213
v -0.115837 0.533665 -0.011805
v 0.127917 0.522163 0.055898
v 0.122656 0.522163 0.062743
v 0.113684 0.522163 0.065967
v 0.103405 0.522163 0.064706
v 0.127917 0.533665 0.055898
v 0.103405 0.533665 0.064706
v 0.113684 0.533665 0.065967
v 0.122656 0.533665 0.062743
v -0.072098 0.533665 -0.167856
v -0.081069 0.533665 -0.164632
v -0.086330 0.533665 -0.157787
v -0.061819 0.533665 -0.166595
v -0.086330 0.522163 -0.157787
v -0.081069 0.522163 -0.164632
v -0.072098 0.522163 -0.167856
v -0.061819 0.522163 -0.166595
v 0.171273 0.533665 -0.076570
v 0.166255 0.533665 -0.084676
v 0.157424 0.533665 -0.090085
v 0.171133 0.533665 -0.067938
v 0.171133 0.522163 -0.067938
v 0.157424 0.522163 -0.090085
v 0.166255 0.522163 -0.084676
v 0.171273 0.522163 -0.076570
v -0.132657 0.510854 0.077828
v -0.112754 0.510854 0.094629
v -0.122827 0.510854 0.092227
v -0.130112 0.510854 0.086078
v -0.132657 0.522357 0.077828
v -0.130112 0.522357 0.086078
v -0.122827 0.522357 0.092227
v -0.112754 0.522357 0.094629
v 0.139977 0.510854 0.083368
v 0.137099 0.510854 0.091508
v 0.129570 0.510854 0.097357
v 0.119408 0.510854 0.099347
v 0.139977 0.522357 0.083368
v 0.119408 0.522357 0.099347
v 0.129570 0.522357 0.097357
v 0.137099 0.522357 0.091508
v -0.119585 0.522357 -0.067293
v -0.127114 0.522357 -0.061445
v -0.129992 0.522357 -0.053305
v -0.109423 0.522357 -0.069283
v -0.129992 0.510854 -0.053305
v -0.127114 0.510854 -0.061445
v -0.119585 0.510854 -0.067293
v -0.109423 0.510854 -0.069283
v 0.140097 0.522357 -0.056014
v 0.132812 0.522357 -0.062164
v 0.122739 0.522357 -0.064565
v 0.142642 0.522357 -0.047764
v 0.142642 0.510854 -0.047764
v 0.122739 0.510854 -0.064565
v 0.132812 0.510854 -0.062164
v 0.140097 0.510854 -0.056014
v -0.095334 0.499148 0.184091
v -0.070127 0.499148 0.190652
v -0.080250 0.499148 0.192835
v -0.089476 0.499148 0.190434
v -0.095334 0.510650 0.184091
v -0.089476 0.510650 0.190434
v -0.080250 0.510650 0.192835
v -0.070127 0.510650 0.190652
v 0.152969 0.499148 0.071372
v 0.153888 0.499148 0.079957
v 0.149623 0.499148 0.088483
v 0.141315 0.499148 0.094666
v 0.152969 0.510650 0.071372
v 0.141315 0.510650 0.094666
v 0.149623 0.510650 0.088483
v 0.153888 0.510650 0.079957
v -0.146203 0.510650 0.047551
v -0.150469 0.510650 0.056077
v -0.149550 0.510650 0.064662
v -0.137896 0.510650 0.041368
v -0.149550 0.499148 0.064662
v -0.150469 0.499148 0.056077
v -0.146203 0.499148 0.047551
v -0.137896 0.499148 0.041368
v 0.092896 0.510650 -0.054400
v 0.083670 0.510650 -0.056801
v 0.073547 0.510650 -0.054618
v 0.098753 0.510650 -0.048058
v 0.098753 0.499148 -0.048058
v 0.073547 0.499148 -0.054618
v 0.083670 0.499148 -0.056801
v 0.092896 0.499148 -0.054400
vt 0.042557 0.733137
vt 0.001727 0.733137
vt 0.042557 0.509890
vt 0.001727 0.509890
vt 0.001727 0.012044
vt 0.042557 0.012044
vt 0.001727 0.235290
vt 0.042557 0.235290
vt 0.042557 0.477459
vt 0.001727 0.477459
vt 0.042557 0.267722
vt 0.001727 0.267722
vt 0.042557 0.975306
vt 0.001727 0.975306
vt 0.042557 0.765569
vt 0.001727 0.765569
vt 0.001727 0.752462
vt 0.042557 0.752462
vt 0.001727 0.742867
vt 0.042557 0.742867
vt 0.001727 0.500161
vt 0.042557 0.500161
vt 0.001727 0.490566
vt 0.042557 0.490566
vt 0.042558 0.988413
vt 0.001727 0.988413
vt 0.042557 0.998008
vt 0.001727 0.998008
vt 0.042557 0.002314
vt 0.001727 0.002314
vt 0.042557 0.245020
vt 0.001727 0.245020
vt 0.042557 0.254615
vt 0.001727 0.254615
vt 0.850992 0.006006
vt 0.861533 0.016974
vt 0.836591 0.001992
vt 0.865392 0.031956
vt 0.606155 0.001992
vt 0.865392 0.375723
vt 0.591754 0.006006
vt 0.581212 0.016974
vt 0.577353 0.031956
vt 0.861533 0.390705
vt 0.850992 0.401672
vt 0.836591 0.405687
vt 0.591754 0.401672
vt 0.581212 0.390705
vt 0.606155 0.405687
vt 0.577353 0.375723
vt 0.850993 0.416474
vt 0.861534 0.427442
vt 0.836592 0.412459
vt 0.865393 0.442424
vt 0.606155 0.412459
vt 0.865393 0.786190
vt 0.591754 0.416474
vt 0.581212 0.427442
vt 0.577354 0.442423
vt 0.861534 0.801172
vt 0.850993 0.812140
vt 0.836592 0.816155
vt 0.591754 0.812140
vt 0.581212 0.801172
vt 0.606155 0.816154
vt 0.577353 0.786190
vt 0.042557 0.733137
vt 0.001727 0.733137
vt 0.042557 0.509890
vt 0.001727 0.509890
vt 0.001727 0.012044
vt 0.042557 0.012044
vt 0.001727 0.235290
vt 0.042557 0.235290
vt 0.042557 0.477459
vt 0.001727 0.477459
vt 0.042557 0.267722
vt 0.001727 0.267722
vt 0.042557 0.975306
vt 0.001727 0.975306
vt 0.042557 0.765569
vt 0.001727 0.765569
vt 0.001727 0.752462
vt 0.042557 0.752462
vt 0.001727 0.742867
vt 0.042557 0.742867
vt 0.001727 0.500161
vt 0.042557 0.500161
vt 0.001727 0.490566
vt 0.042557 0.490566
vt 0.042558 0.988413
vt 0.001727 0.988413
vt 0.042557 0.998008
vt 0.001727 0.998008
vt 0.042557 0.002314
vt 0.001727 0.002314
vt 0.042557 0.245020
vt 0.001727 0.245020
vt 0.042557 0.254615
vt 0.001727 0.254615
vt 0.850992 0.006006
vt 0.861533 0.016974
vt 0.836591 0.001992
vt 0.865392 0.031956
vt 0.606155 0.001992
vt 0.865392 0.375723
vt 0.591754 0.006006
vt 0.581212 0.016974
vt 0.577353 0.031956
vt 0.861533 0.390705
vt 0.850992 0.401672
vt 0.836591 0.405687
vt 0.591754 0.401672
vt 0.581212 0.390705
vt 0.606155 0.405687
vt 0.577353 0.375723
vt 0.850993 0.416474
vt 0.861534 0.427442
vt 0.836592 0.412459
vt 0.865393 0.442424
vt 0.606155 0.412459
vt 0.865393 0.786190
vt 0.591754 0.416474
vt 0.581212 0.427442
vt 0.577354 0.442423
vt 0.861534 0.801172
vt 0.850993 0.812140
vt 0.836592 0.816155
vt 0.591754 0.812140
vt 0.581212 0.801172
vt 0.606155 0.816154
vt 0.577353 0.786190
vt 0.042557 0.733137
vt 0.001727 0.733137
vt 0.042557 0.509890
vt 0.001727 0.509890
vt 0.001727 0.012044
vt 0.042557 0.012044
vt 0.001727 0.235290
vt 0.042557 0.235290
vt 0.042557 0.477459
vt 0.001727 0.477459
vt 0.042557 0.267722
vt 0.001727 0.267722
vt 0.042557 0.975306
vt 0.001727 0.975306
vt 0.042557 0.765569
vt 0.001727 0.765569
vt 0.001727 0.752462
vt 0.042557 0.752462
vt 0.001727 0.742867
vt 0.042557 0.742867
vt 0.001727 0.500161
vt 0.042557 0.500161
vt 0.001727 0.490566
vt 0.042557 0.490566
vt 0.042558 0.988413
vt 0.001727 0.988413
vt 0.042557 0.998008
vt 0.001727 0.998008
vt 0.042557 0.002314
vt 0.001727 0.002314
vt 0.042557 0.245020
vt 0.001727 0.245020
vt 0.042557 0.254615
vt 0.001727 0.254615
vt 0.850992 0.006006
vt 0.861533 0.016974
vt 0.836591 0.001992
vt 0.865392 0.031956
vt 0.606155 0.001992
vt 0.865392 0.375723
vt 0.591754 0.006006
vt 0.581212 0.016974
vt 0.577353 0.031956
vt 0.861533 0.390705
vt 0.850992 0.401672
vt 0.836591 0.405687
vt 0.591754 0.401672
vt 0.581212 0.390705
vt 0.606155 0.405687
vt 0.577353 0.375723
vt 0.850993 0.416474
vt 0.861534 0.427442
vt 0.836592 0.412459
vt 0.865393 0.442424
vt 0.606155 0.412459
vt 0.865393 0.786190
vt 0.591754 0.416474
vt 0.581212 0.427442
vt 0.577354 0.442423
vt 0.861534 0.801172
vt 0.850993 0.812140
vt 0.836592 0.816155
vt 0.591754 0.812140
vt 0.581212 0.801172
vt 0.606155 0.816154
vt 0.577353 0.786190
vn -0.338034 0.000000 0.941134
vn -0.338034 0.000000 0.941134
vn -0.320920 0.000000 0.947106
vn -0.320920 0.000000 0.947106
vn 0.320920 0.000000 -0.947106
vn 0.320920 0.000000 -0.947106
vn 0.338034 0.000000 -0.941134
vn 0.338034 0.000000 -0.941134
vn 0.937570 0.000000 0.347797
vn 0.937570 0.000000 0.347797
vn 0.950391 0.000000 0.311059
vn 0.950391 0.000000 0.311059
vn -0.937570 0.000000 -0.347797
vn -0.937570 0.000000 -0.347796
vn -0.950391 0.000000 -0.311059
vn -0.950391 0.000000 -0.311059
vn -0.999868 0.000000 -0.016260
vn -0.999868 0.000000 -0.016260
vn -0.850276 0.000000 0.526338
vn -0.698399 0.000000 0.715709
vn -0.850276 0.000000 0.526338
vn -0.698399 0.000000 0.715709
vn 0.101454 0.000000 0.994840
vn 0.101454 0.000000 0.994840
vn 0.338186 0.000000 0.941079
vn 0.338186 0.000000 0.941079
vn 0.792886 0.000000 0.609370
vn 0.792886 0.000000 0.609371
vn -0.792886 0.000000 -0.609370
vn -0.792887 0.000000 -0.609368
vn -0.338183 0.000000 -0.941080
vn -0.101452 0.000000 -0.994840
vn -0.338187 0.000000 -0.941079
vn -0.101455 0.000000 -0.994840
vn 0.698398 0.000000 -0.715710
vn 0.698398 0.000000 -0.715709
vn 0.850276 0.000000 -0.526336
vn 0.850276 0.000000 -0.526338
vn 0.999868 0.000000 0.016260
vn 0.999868 0.000000 0.016260
vn 0.000000 1.000000 -0.000005
vn 0.000000 1.000000 0.000006
vn 0.000000 1.000000 0.000001
vn 0.000000 1.000000 -0.000001
vn 0.000000 1.000000 -0.000000
vn 0.000000 1.000000 -0.000000
vn 0.000000 1.000000 0.000002
vn 0.000000 1.000000 0.000001
vn 0.000000 1.000000 -0.000001
vn 0.000000 1.000000 -0.000003
vn 0.000000 1.000000 0.000000
vn 0.000000 1.000000 0.000001
vn 0.000000 1.000000 0.000005
vn 0.000000 1.000000 0.000000
vn 0.000000 1.000000 0.000001
vn 0.000000 1.000000 0.000000
vn 0.000000 -1.000000 0.000009
vn 0.000000 -1.000000 0.000000
vn 0.000000 -1.000000 0.000001
vn 0.000000 -1.000000 -0.000000
vn 0.000000 -1.000000 -0.000000
vn 0.000000 -1.000000 -0.000000
vn 0.000000 -1.000000 0.000002
vn 0.000000 -1.000000 0.000003
vn 0.000000 -1.000000 -0.000000
vn 0.000000 -1.000000 0.000000
vn 0.000000 -1.000000 0.000000
vn 0.000000 -1.000000 0.000000
vn 0.000000 -1.000000 -0.000009
vn 0.000000 -1.000000 0.000012
vn 0.000000 -1.000000 0.000000
vn 0.000000 -1.000000 0.000000
vn -0.029379 0.000000 0.999568
vn -0.029379 0.000000 0.999568
vn -0.011257 0.000000 0.999937
vn -0.011257 0.000000 0.999937
vn 0.011257 0.000000 -0.999937
vn 0.011257 0.000000 -0.999937
vn 0.029379 0.000000 -0.999568
vn 0.029379 0.000000 -0.999568
vn 0.999209 0.000000 0.039766
vn 0.999209 0.000000 0.039766
vn 1.000000 0.000000 0.000864
vn 1.000000 0.000000 0.000864
vn -0.999209 0.000000 -0.039766
vn -0.999209 0.000000 -0.039766
vn -1.000000 0.000000 -0.000864
vn -1.000000 0.000000 -0.000864
vn -0.955578 0.000000 0.294739
vn -0.955578 0.000000 0.294738
vn -0.645028 0.000000 0.764159
vn -0.441897 0.000000 0.897066
vn -0.645030 0.000000 0.764157
vn -0.441897 0.000000 0.897066
vn 0.405085 0.000000 0.914279
vn 0.405085 0.000000 0.914279
vn 0.613458 0.000000 0.789727
vn 0.613458 0.000000 0.789727
vn 0.942814 0.000000 0.333319
vn 0.942814 0.000000 0.333318
vn -0.942814 0.000000 -0.333318
vn -0.942814 0.000000 -0.333320
vn -0.613458 0.000000 -0.789728
vn -0.405085 0.000000 -0.914279
vn -0.613458 0.000000 -0.789727
vn -0.405085 0.000000 -0.914279
vn 0.441897 0.000000 -0.897066
vn 0.441898 0.000000 -0.897065
vn 0.645032 0.000000 -0.764155
vn 0.645034 0.000000 -0.764154
vn 0.955578 0.000000 -0.294738
vn 0.955578 0.000000 -0.294739
vn 0.000000 1.000000 0.000009
vn 0.000000 1.000000 0.000000
vn 0.000000 1.000000 0.000000
vn 0.000000 1.000000 0.000000
vn 0.000000 1.000000 0.000000
vn 0.000000 1.000000 0.000000
vn 0.000000 1.000000 -0.000000
vn 0.000000 1.000000 -0.000000
vn 0.000000 1.000000 0.000001
vn 0.000000 1.000000 0.000000
vn 0.000000 1.000000 0.000000
vn 0.000000 1.000000 -0.000000
vn 0.000000 1.000000 -0.000009
vn 0.000000 1.000000 -0.000000
vn 0.000000 1.000000 -0.000000
vn 0.000000 1.000000 -0.000000
vn 0.000000 -1.000000 0.000004
vn 0.000000 -1.000000 0.000006
vn 0.000000 -1.000000 -0.000000
vn 0.000000 -1.000000 0.000000
vn 0.000000 -1.000000 0.000000
vn 0.000000 -1.000000 0.000000
vn 0.000000 -1.000000 -0.000002
vn 0.000000 -1.000000 -0.000001
vn 0.000000 -1.000000 -0.000001
vn 0.000000 -1.000000 0.000007
vn 0.000000 -1.000000 0.000005
vn 0.000000 -1.000000 -0.000001
vn 0.000000 -1.000000 -0.000004
vn 0.000000 -1.000000 -0.000006
vn 0.000000 -1.000000 0.000000
vn 0.000000 -1.000000 -0.000001
vn 0.405088 0.000000 0.914277
vn 0.405089 0.000000 0.914277
vn 0.421596 0.000000 0.906784
vn 0.421596 0.000000 0.906784
vn -0.421596 0.000000 -0.906784
vn -0.421596 0.000000 -0.906784
vn -0.405088 0.000000 -0.914278
vn -0.405088 0.000000 -0.914278
vn 0.918437 0.000000 -0.395566
vn 0.918437 0.000000 -0.395566
vn 0.902354 0.000000 -0.430996
vn 0.902354 0.000000 -0.430997
vn -0.918438 0.000000 0.395566
vn -0.918438 0.000000 0.395566
vn -0.902354 0.000000 0.430996
vn -0.902354 0.000000 0.430996
vn -0.734653 0.000000 0.678443
vn -0.734652 0.000000 0.678444
vn -0.251864 0.000000 0.967763
vn -0.011251 0.000000 0.999937
vn -0.251865 0.000000 0.967762
vn -0.011254 0.000000 0.999937
vn 0.760143 0.000000 0.649756
vn 0.760144 0.000000 0.649754
vn 0.894313 0.000000 0.447443
vn 0.894313 0.000000 0.447441
vn 0.994319 0.000000 -0.106436
vn 0.994320 0.000000 -0.106436
vn -0.994319 0.000000 0.106436
vn -0.994319 0.000000 0.106436
vn -0.894313 0.000000 -0.447441
vn -0.760144 0.000000 -0.649754
vn -0.894313 0.000000 -0.447443
vn -0.760143 0.000000 -0.649756
vn 0.011252 0.000000 -0.999937
vn 0.011252 0.000000 -0.999937
vn 0.251865 0.000000 -0.967762
vn 0.251865 0.000000 -0.967762
vn 0.734653 0.000000 -0.678443
vn 0.734652 0.000000 -0.678445
vn 0.000000 1.000000 0.000009
vn 0.000000 1.000000 -0.000012
vn 0.000000 1.000000 -0.000000
vn 0.000000 1.000000 0.000000
vn 0.000000 1.000000 -0.000001
vn 0.000000 1.000000 0.000000
vn 0.000000 1.000000 -0.000000
vn 0.000000 1.000000 0.000008
vn 0.000000 1.000000 0.000000
vn 0.000000 1.000000 -0.000007
vn 0.000000 1.000000 0.000000
vn 0.000000 1.000000 0.000001
vn 0.000000 1.000000 0.000009
vn 0.000000 1.000000 -0.000012
vn 0.000000 1.000000 -0.000000
vn 0.000000 1.000000 -0.000001
vn 0.000000 -1.000000 0.000000
vn 0.000000 -1.000000 0.000003
vn 0.000000 -1.000000 0.000000
vn 0.000000 -1.000000 0.000001
vn 0.000000 -1.000000 0.000000
vn 0.000000 -1.000000 0.000000
vn 0.000000 -1.000000 -0.000003
vn 0.000000 -1.000000 -0.000002
vn 0.000000 -1.000000 0.000000
vn 0.000000 -1.000000 0.000003
vn 0.000000 -1.000000 0.000002
vn 0.000000 -1.000000 0.000000
vn 0.000000 -1.000000 0.000000
vn 0.000000 -1.000000 -0.000003
vn 0.000000 -1.000000 -0.000000
vn 0.000000 -1.000000 -0.000000
s 1
g Magazines
usemtl lambert9SG
f 8/1/1 2/2/2 14/3/3
f 14/3/3 2/2/2 12/4/4
s 2
f 24/5/5 20/6/6 30/7/7
f 30/7/7 20/6/6 27/8/8
s 3
f 13/9/9 9/10/10 28/11/11
f 28/11/11 9/10/10 29/12/12
s 4
f 19/13/13 21/14/14 5/15/15
f 5/15/15 21/14/14 1/16/16
f 1/16/16 4/17/17 5/15/15
f 5/15/15 4/17/17 6/18/18
s 1
f 4/17/19 3/19/20 6/18/21
f 6/18/21 3/19/20 7/20/22
f 3/19/20 2/2/2 7/20/22
f 7/20/22 2/2/2 8/1/1
f 12/4/4 11/21/23 14/3/3
f 14/3/3 11/21/23 15/22/24
f 11/21/23 10/23/25 15/22/24
f 15/22/24 10/23/25 16/24/26
s 3
f 10/23/27 9/10/10 16/24/28
f 16/24/28 9/10/10 13/9/9
s 4
f 19/13/13 18/25/29 21/14/14
f 21/14/14 18/25/29 22/26/30
s 2
f 18/25/31 17/27/32 22/26/33
f 22/26/33 17/27/32 23/28/34
f 17/29/32 20/6/6 23/30/34
f 23/30/34 20/6/6 24/5/5
f 27/8/8 26/31/35 30/7/7
f 30/7/7 26/31/35 31/32/36
f 26/31/35 25/33/37 31/32/36
f 31/32/36 25/33/37 32/34/38
s 3
f 25/33/39 28/11/11 32/34/40
f 32/34/40 28/11/11 29/12/12
s 7
f 25/35/41 26/36/42 28/37/43
f 26/36/42 27/38/44 28/37/43
f 28/37/43 27/38/44 13/39/45
f 27/38/44 20/40/46 13/39/45
f 13/39/45 20/40/46 16/41/47
f 16/41/47 20/40/46 15/42/48
f 15/42/48 20/40/46 14/43/49
f 20/40/46 17/44/50 14/43/49
f 17/44/50 18/45/51 14/43/49
f 18/45/51 19/46/52 14/43/49
f 6/47/53 7/48/54 5/49/55
f 7/48/54 8/50/56 5/49/55
f 5/49/55 8/50/56 19/46/52
f 19/46/52 8/50/56 14/43/49
s 9
f 10/51/57 11/52/58 9/53/59
f 11/52/58 12/54/60 9/53/59
f 9/53/59 12/54/60 29/55/61
f 12/54/60 2/56/62 29/55/61
f 29/55/61 2/56/62 32/57/63
f 32/57/63 2/56/62 31/58/64
f 31/58/64 2/56/62 30/59/65
f 2/56/62 3/60/66 30/59/65
f 3/60/66 4/61/67 30/59/65
f 4/61/67 1/62/68 30/59/65
f 22/63/69 23/64/70 21/65/71
f 23/64/70 24/66/72 21/65/71
f 21/65/71 24/66/72 1/62/68
f 1/62/68 24/66/72 30/59/65
s 11
f 40/67/73 34/68/74 46/69/75
f 46/69/75 34/68/74 44/70/76
s 12
f 56/71/77 52/72/78 62/73/79
f 62/73/79 52/72/78 59/74/80
s 13
f 45/75/81 41/76/82 60/77/83
f 60/77/83 41/76/82 61/78/84
s 14
f 51/79/85 53/80/86 37/81/87
f 37/81/87 53/80/86 33/82/88
f 33/82/88 36/83/89 37/81/87
f 37/81/87 36/83/89 38/84/90
s 11
f 36/83/91 35/85/92 38/84/93
f 38/84/93 35/85/92 39/86/94
f 35/85/92 34/68/74 39/86/94
f 39/86/94 34/68/74 40/67/73
f 44/70/76 43/87/95 46/69/75
f 46/69/75 43/87/95 47/88/96
f 43/87/95 42/89/97 47/88/96
f 47/88/96 42/89/97 48/90/98
s 13
f 42/89/99 41/76/82 48/90/100
f 48/90/100 41/76/82 45/75/81
s 14
f 51/79/85 50/91/101 53/80/86
f 53/80/86 50/91/101 54/92/102
s 12
f 50/91/103 49/93/104 54/92/105
f 54/92/105 49/93/104 55/94/106
f 49/95/104 52/72/78 55/96/106
f 55/96/106 52/72/78 56/71/77
f 59/74/80 58/97/107 62/73/79
f 62/73/79 58/97/107 63/98/108
f 58/97/107 57/99/109 63/98/108
f 63/98/108 57/99/109 64/100/110
s 13
f 57/99/111 60/77/83 64/100/112
f 64/100/112 60/77/83 61/78/84
s 17
f 57/101/113 58/102/114 60/103/115
f 58/102/114 59/104/116 60/103/115
f 60/103/115 59/104/116 45/105/117
f 59/104/116 52/106/118 45/105/117
f 45/105/117 52/106/118 48/107/119
f 48/107/119 52/106/118 47/108/120
f 47/108/120 52/106/118 46/109/121
f 52/106/118 49/110/122 46/109/121
f 49/110/122 50/111/123 46/109/121
f 50/111/123 51/112/124 46/109/121
f 38/113/125 39/114/126 37/115/127
f 39/114/126 40/116/128 37/115/127
f 37/115/127 40/116/128 51/112/124
f 51/112/124 40/116/128 46/109/121
s 19
f 42/117/129 43/118/130 41/119/131
f 43/118/130 44/120/132 41/119/131
f 41/119/131 44/120/132 61/121/133
f 44/120/132 34/122/134 61/121/133
f 61/121/133 34/122/134 64/123/135
f 64/123/135 34/122/134 63/124/136
f 63/124/136 34/122/134 62/125/137
f 34/122/134 35/126/138 62/125/137
f 35/126/138 36/127/139 62/125/137
f 36/127/139 33/128/140 62/125/137
f 54/129/141 55/130/142 53/131/143
f 55/130/142 56/132/144 53/131/143
f 53/131/143 56/132/144 33/128/140
f 33/128/140 56/132/144 62/125/137
s 21
f 72/133/145 66/134/146 78/135/147
f 78/135/147 66/134/146 76/136/148
s 22
f 88/137/149 84/138/150 94/139/151
f 94/139/151 84/138/150 91/140/152
s 23
f 77/141/153 73/142/154 92/143/155
f 92/143/155 73/142/154 93/144/156
s 24
f 83/145/157 85/146/158 69/147/159
f 69/147/159 85/146/158 65/148/160
f 65/148/160 68/149/161 69/147/159
f 69/147/159 68/149/161 70/150/162
s 21
f 68/149/163 67/151/164 70/150/165
f 70/150/165 67/151/164 71/152/166
f 67/151/164 66/134/146 71/152/166
f 71/152/166 66/134/146 72/133/145
f 76/136/148 75/153/167 78/135/147
f 78/135/147 75/153/167 79/154/168
f 75/153/167 74/155/169 79/154/168
f 79/154/168 74/155/169 80/156/170
s 23
f 74/155/171 73/142/154 80/156/172
f 80/156/172 73/142/154 77/141/153
s 24
f 83/145/157 82/157/173 85/146/158
f 85/146/158 82/157/173 86/158/174
s 22
f 82/157/175 81/159/176 86/158/177
f 86/158/177 81/159/176 87/160/178
f 81/161/176 84/138/150 87/162/178
f 87/162/178 84/138/150 88/137/149
f 91/140/152 90/163/179 94/139/151
f 94/139/151 90/163/179 95/164/180
f 90/163/179 89/165/181 95/164/180
f 95/164/180 89/165/181 96/166/182
s 23
f 89/165/183 92/143/155 96/166/184
f 96/166/184 92/143/155 93/144/156
s 27
f 89/167/185 90/168/186 92/169/187
f 90/168/186 91/170/188 92/169/187
f 92/169/187 91/170/188 77/171/189
f 91/170/188 84/172/190 77/171/189
f 77/171/189 84/172/190 80/173/191
f 80/173/191 84/172/190 79/174/192
f 79/174/192 84/172/190 78/175/193
f 84/172/190 81/176/194 78/175/193
f 81/176/194 82/177/195 78/175/193
f 82/177/195 83/178/196 78/175/193
f 70/179/197 71/180/198 69/181/199
f 71/180/198 72/182/200 69/181/199
f 69/181/199 72/182/200 83/178/196
f 83/178/196 72/182/200 78/175/193
s 29
f 74/183/201 75/184/202 73/185/203
f 75/184/202 76/186/204 73/185/203
f 73/185/203 76/186/204 93/187/205
f 76/186/204 66/188/206 93/187/205
f 93/187/205 66/188/206 96/189/207
f 96/189/207 66/188/206 95/190/208
f 95/190/208 66/188/206 94/191/209
f 66/188/206 67/192/210 94/191/209
f 67/192/210 68/193/211 94/191/209
f 68/193/211 65/194/212 94/191/209
f 86/195/213 87/196/214 85/197/215
f 87/196/214 88/198/216 85/197/215
f 85/197/215 88/198/216 65/194/212
f 65/194/212 88/198/216 94/191/209
