# This file uses centimeters as units for non-parametric coordinates.

g Medicine Cabinet 2
v 0.048506 0.495501 0.333017
v 0.123897 0.495501 0.333017
v 0.048506 0.809209 0.333017
v 0.123897 0.809209 0.333017
v 0.048506 0.769157 0.332835
v 0.123897 0.769157 0.332835
v 0.048506 0.535552 0.332835
v 0.123897 0.535552 0.332835
v 0.048506 0.730782 0.378607
v 0.048506 0.730782 0.352449
v 0.123897 0.730782 0.352449
v 0.123897 0.730782 0.378607
v 0.048506 0.652355 0.389406
v 0.048506 0.652355 0.356169
v 0.123897 0.652355 0.356169
v 0.123897 0.652355 0.389406
v 0.048506 0.573928 0.378607
v 0.048506 0.573928 0.352449
v 0.123897 0.573928 0.352449
v 0.123897 0.573928 0.378607
v -0.904213 0.008041 0.333491
v 0.904213 0.008041 0.333491
v -0.904213 3.010532 0.333491
v 0.904213 3.010532 0.333491
v -0.904213 3.010532 -0.389708
v 0.904213 3.010532 -0.389708
v -0.904213 0.008041 -0.389708
v 0.904213 0.008041 -0.389708
v -0.766980 0.008041 0.333491
v -0.766980 0.008041 -0.389708
v -0.766980 3.010532 -0.389708
v -0.766980 3.010532 0.333491
v -0.158639 0.008041 0.333491
v -0.158639 0.008041 -0.389708
v -0.158639 3.010532 -0.389708
v -0.158639 3.010532 0.333491
v 0.158639 0.008041 0.333491
v 0.158639 0.008041 -0.389708
v 0.158639 3.010532 -0.389708
v 0.158639 3.010532 0.333491
v 0.766980 0.008041 0.333491
v 0.766980 0.008041 -0.389708
v 0.766980 3.010532 -0.389708
v 0.766980 3.010532 0.333491
v -0.766980 2.800518 0.333491
v -0.158639 2.800518 0.333491
v 0.158639 2.800518 0.333491
v 0.766980 2.800518 0.333491
v 0.904213 2.800518 0.333491
v 0.904213 2.800518 -0.389708
v 0.766980 2.800518 -0.389708
v 0.158639 2.800518 -0.389708
v -0.158639 2.800518 -0.389708
v -0.766980 2.800518 -0.389708
v -0.904213 2.800518 -0.389708
v -0.904213 2.800518 0.333491
v -0.766980 1.043474 0.333491
v -0.158639 1.043474 0.333491
v 0.158639 1.043474 0.333491
v 0.766980 1.043474 0.333491
v 0.904213 1.043474 0.333491
v 0.904213 1.043474 -0.389708
v 0.766980 1.043474 -0.389708
v 0.158639 1.043474 -0.389708
v -0.158639 1.043474 -0.389708
v -0.766980 1.043474 -0.389708
v -0.904213 1.043474 -0.389708
v -0.904213 1.043474 0.333491
v 0.048506 1.438535 0.333318
v 0.123897 1.438535 0.333318
v 0.048506 1.752243 0.333318
v 0.123897 1.752243 0.333318
v 0.048506 1.712191 0.333137
v 0.123897 1.712191 0.333137
v 0.048506 1.478586 0.333137
v 0.123897 1.478586 0.333137
v 0.048506 1.673816 0.378908
v 0.048506 1.673816 0.352751
v 0.123897 1.673816 0.352751
v 0.123897 1.673816 0.378908
v 0.048506 1.595389 0.389708
v 0.048506 1.595389 0.356470
v 0.123897 1.595389 0.356470
v 0.123897 1.595389 0.389708
v 0.048506 1.516962 0.378908
v 0.048506 1.516962 0.352751
v 0.123897 1.516962 0.352751
v 0.123897 1.516962 0.378908
vt 0.138759 0.635669
vt 0.141226 0.640974
vt 0.138628 0.646058
vt 0.135739 0.646058
vt 0.138135 0.656448
vt 0.135023 0.656448
vt 0.138628 0.666838
vt 0.135739 0.666838
vt 0.141226 0.671922
vt 0.138759 0.677228
vt 0.121416 0.640974
vt 0.123884 0.635669
vt 0.126903 0.646058
vt 0.124014 0.646058
vt 0.127619 0.656448
vt 0.124507 0.656448
vt 0.126903 0.666838
vt 0.124014 0.666838
vt 0.123883 0.677228
vt 0.121416 0.671922
vt 0.992633 0.651668
vt 0.916569 0.727733
vt 0.807665 0.618828
vt 0.883729 0.542764
vt 0.622863 0.434027
vt 0.698928 0.357962
vt 0.676839 0.335874
vt 0.600775 0.411938
vt 0.726363 0.917938
vt 0.650299 0.994003
vt 0.541395 0.885098
vt 0.617459 0.809034
vt 0.356593 0.700297
vt 0.432658 0.624232
vt 0.334505 0.678208
vt 0.410569 0.602144
vt 0.138758 0.635668
vt 0.141226 0.640974
vt 0.138628 0.646058
vt 0.135739 0.646058
vt 0.138135 0.656448
vt 0.135023 0.656448
vt 0.138628 0.666838
vt 0.135739 0.666838
vt 0.141227 0.671922
vt 0.138759 0.677228
vt 0.121415 0.640975
vt 0.123883 0.635669
vt 0.126903 0.646058
vt 0.124014 0.646058
vt 0.127619 0.656448
vt 0.124507 0.656448
vt 0.126904 0.666838
vt 0.124015 0.666838
vt 0.123884 0.677228
vt 0.121416 0.671922
vt 0.522357 0.490355
vt 0.488986 0.523726
vt 0.412922 0.447662
vt 0.446293 0.414291
vt 0.348938 0.511646
vt 0.425003 0.587710
vt 0.510276 0.350307
vt 0.586341 0.426372
vt 0.334505 0.526080
vt 0.524710 0.335874
vt 0.914216 0.882214
vt 0.880845 0.915585
vt 0.804781 0.839521
vt 0.838152 0.806150
vt 0.740797 0.903505
vt 0.816862 0.979569
vt 0.902135 0.742166
vt 0.978199 0.818231
vt 0.802428 0.994003
vt 0.992633 0.803797
vt 0.170441 0.666838
vt 0.180428 0.666838
vt 0.180428 0.671922
vt 0.170441 0.671922
vt 0.170441 0.656448
vt 0.180428 0.656448
vt 0.170441 0.646058
vt 0.180428 0.646058
vt 0.170441 0.640974
vt 0.180428 0.640974
vt 0.206032 0.240772
vt 0.097127 0.131868
vt 0.130498 0.098497
vt 0.239402 0.207401
vt 0.142048 0.304756
vt 0.033143 0.195852
vt 0.194481 0.034513
vt 0.303386 0.143417
vt 0.424204 0.392203
vt 0.390833 0.425573
vt 0.127614 0.319190
vt 0.018709 0.210285
vt 0.326850 0.489557
vt 0.208915 0.020079
vt 0.317820 0.128984
vt 0.488188 0.328219
vt 0.312416 0.503991
vt 0.502621 0.313785
vt 0.695877 0.730616
vt 0.729247 0.697246
vt 0.631893 0.794600
vt 0.511075 0.545815
vt 0.544446 0.512444
vt 0.793231 0.633262
vt 0.447091 0.609799
vt 0.608429 0.448460
vt 0.170441 0.666838
vt 0.180428 0.666838
vt 0.180428 0.671922
vt 0.170441 0.671922
vt 0.170441 0.656448
vt 0.180428 0.656448
vt 0.170441 0.646058
vt 0.180428 0.646058
vt 0.170441 0.640974
vt 0.180428 0.640974
vn 0.000000 -0.502560 0.864542
vn 0.000000 -0.502560 0.864542
vn 0.000000 -0.338305 0.941036
vn 0.000000 -0.338305 0.941036
vn 0.000000 0.195896 -0.980625
vn 0.000000 0.195896 -0.980625
vn 0.000000 0.455107 -0.890437
vn 0.000000 0.455106 -0.890437
vn 1.000000 0.000000 0.000000
vn 1.000000 0.000000 0.000000
vn 1.000000 0.000000 0.000000
vn 1.000000 0.000000 0.000000
vn -1.000000 0.000000 0.000000
vn -1.000000 0.000000 0.000000
vn -1.000000 0.000000 0.000000
vn -1.000000 -0.000000 0.000000
vn -1.000000 0.000000 0.000000
vn -1.000000 -0.000000 0.000000
vn -1.000000 -0.000000 0.000000
vn -1.000000 -0.000000 0.000000
vn 0.000000 -0.455107 -0.890437
vn 0.000000 -0.455106 -0.890437
vn 0.000000 -0.195896 -0.980625
vn 0.000000 -0.195896 -0.980625
vn 1.000000 0.000000 0.000000
vn 1.000000 0.000000 0.000000
vn 1.000000 0.000000 0.000000
vn 1.000000 0.000000 0.000000
vn 0.000000 0.338306 0.941036
vn 0.000000 0.338306 0.941036
vn 0.000000 0.502560 0.864542
vn 0.000000 0.502560 0.864542
vn -1.000000 0.000000 0.000000
vn -1.000000 0.000000 0.000000
vn 0.000000 -0.000000 -1.000000
vn 0.000000 -0.000000 -1.000000
vn 1.000000 0.000000 0.000000
vn 1.000000 0.000000 0.000000
vn 0.000000 -0.000000 1.000000
vn 0.000000 0.000000 1.000000
vn 0.000000 0.000000 1.000000
vn 0.000000 0.000000 1.000000
vn 0.000000 0.000000 1.000000
vn 0.000000 0.000000 1.000000
vn 0.000000 1.000000 0.000000
vn 0.000000 1.000000 0.000000
vn 0.000000 1.000000 0.000000
vn 0.000000 1.000000 0.000000
vn 0.000000 0.000000 -1.000000
vn 0.000000 0.000000 -1.000000
vn 0.000000 0.000000 -1.000000
vn 0.000000 0.000000 -1.000000
vn 0.000000 -1.000000 0.000000
vn 0.000000 -1.000000 0.000000
vn 0.000000 -1.000000 0.000000
vn 0.000000 -1.000000 0.000000
vn 1.000000 0.000000 0.000000
vn 1.000000 0.000000 0.000000
vn 1.000000 0.000000 0.000000
vn 1.000000 0.000000 0.000000
vn -1.000000 0.000000 0.000000
vn -1.000000 0.000000 0.000000
vn -1.000000 0.000000 0.000000
vn -1.000000 0.000000 0.000000
vn 0.000000 1.000000 0.000000
vn 0.000000 1.000000 0.000000
vn 0.000000 1.000000 0.000000
vn 0.000000 1.000000 0.000000
vn 0.000000 0.000000 -1.000000
vn 0.000000 0.000000 -1.000000
vn 0.000000 0.000000 -1.000000
vn 0.000000 0.000000 -1.000000
vn 0.000000 -1.000000 0.000000
vn 0.000000 -1.000000 0.000000
vn 0.000000 -1.000000 0.000000
vn 0.000000 -1.000000 0.000000
vn 0.000000 0.000000 1.000000
vn 0.000000 0.000000 1.000000
vn 0.000000 0.000000 1.000000
vn 0.000000 0.000000 1.000000
vn -1.000000 0.000000 0.000000
vn -1.000000 0.000000 0.000000
vn -1.000000 0.000000 0.000000
vn -1.000000 0.000000 0.000000
vn 0.000000 0.000000 -1.000000
vn 0.000000 0.000000 -1.000000
vn 0.000000 0.000000 -1.000000
vn 0.000000 0.000000 -1.000000
vn 0.000000 0.000000 -1.000000
vn 0.000000 0.000000 -1.000000
vn 0.000000 0.000000 -1.000000
vn 0.000000 0.000000 -1.000000
vn 1.000000 0.000000 0.000000
vn 1.000000 0.000000 0.000000
vn 1.000000 0.000000 0.000000
vn 1.000000 0.000000 0.000000
vn 0.000000 0.000000 1.000000
vn 0.000000 0.000000 1.000000
vn 0.000000 0.000000 1.000000
vn 0.000000 0.000000 1.000000
vn 0.000000 0.000000 1.000000
vn 0.000000 0.000000 1.000000
vn 0.000000 0.000000 1.000000
vn 0.000000 0.000000 1.000000
vn 0.000000 0.000000 1.000000
vn 0.000000 0.000000 1.000000
vn 0.000000 0.000000 1.000000
vn 0.000000 0.000000 1.000000
vn 0.000000 0.000000 1.000000
vn 0.000000 0.000000 1.000000
vn 0.000000 0.000000 1.000000
vn 0.000000 0.000000 1.000000
vn 0.000000 -1.000000 0.000000
vn 0.000000 -1.000000 0.000000
vn 0.000000 -1.000000 0.000000
vn 0.000000 -1.000000 0.000000
vn 0.000000 0.000000 -1.000000
vn 0.000000 0.000000 -1.000000
vn 0.000000 0.000000 -1.000000
vn 0.000000 0.000000 -1.000000
vn 0.000000 0.000000 -1.000000
vn 0.000000 0.000000 -1.000000
vn 0.000000 0.000000 -1.000000
vn 0.000000 0.000000 -1.000000
vn 0.000000 1.000000 0.000000
vn 0.000000 1.000000 0.000000
vn 0.000000 1.000000 0.000000
vn 0.000000 1.000000 0.000000
vn 0.000000 -0.502558 0.864543
vn 0.000000 -0.502559 0.864543
vn 0.000000 -0.338305 0.941036
vn 0.000000 -0.338306 0.941036
vn 0.000000 0.195896 -0.980625
vn 0.000000 0.195896 -0.980625
vn 0.000000 0.455107 -0.890437
vn 0.000000 0.455106 -0.890437
vn 1.000000 0.000000 0.000000
vn 1.000000 0.000000 0.000000
vn 1.000000 -0.000000 0.000000
vn 1.000000 0.000000 0.000000
vn -1.000000 0.000000 0.000000
vn -1.000000 0.000000 0.000000
vn -1.000000 0.000000 0.000000
vn -1.000000 -0.000000 0.000000
vn -1.000000 0.000000 0.000000
vn -1.000000 -0.000000 0.000000
vn -1.000000 -0.000000 0.000000
vn -1.000000 -0.000000 0.000000
vn 0.000000 -0.455108 -0.890436
vn 0.000000 -0.455108 -0.890436
vn 0.000000 -0.195896 -0.980625
vn 0.000000 -0.195896 -0.980625
vn 1.000000 0.000000 0.000000
vn 1.000000 0.000000 0.000000
vn 1.000000 0.000000 0.000000
vn 1.000000 0.000000 0.000000
vn 0.000000 0.338305 0.941037
vn 0.000000 0.338305 0.941037
vn 0.000000 0.502559 0.864543
vn 0.000000 0.502560 0.864542
vn -1.000000 0.000000 0.000000
vn -1.000000 0.000000 0.000000
vn 0.000000 0.000000 -1.000000
vn 0.000000 -0.000000 -1.000000
vn 1.000000 0.000000 0.000000
vn 1.000000 0.000000 0.000000
vn 0.000000 0.000000 1.000000
vn 0.000000 -0.000000 1.000000
s 1
f 1/12/1 2/1/2 17/13/3
f 17/13/3 2/1/2 20/4/4
s 2
f 18/77/5 19/78/6 7/80/7
f 7/80/7 19/78/6 8/79/8
s 3
f 2/1/9 8/2/10 20/4/11
f 20/4/11 8/2/10 19/3/12
s 4
f 1/12/13 17/13/14 7/11/15
f 7/11/15 17/13/14 18/14/16
f 10/18/17 9/17/18 5/20/19
f 5/20/19 9/17/18 3/19/20
s 2
f 5/85/21 6/86/22 10/83/23
f 10/83/23 6/86/22 11/84/24
s 3
f 11/7/25 6/9/26 12/8/27
f 12/8/27 6/9/26 4/10/28
s 1
f 9/17/29 12/8/30 3/19/31
f 3/19/31 12/8/30 4/10/32
s 4
f 13/15/33 9/17/18 14/16/34
f 14/16/34 9/17/18 10/18/17
s 2
f 10/83/23 11/84/24 14/81/35
f 14/81/35 11/84/24 15/82/36
s 3
f 16/6/37 15/5/38 12/8/27
f 12/8/27 15/5/38 11/7/25
s 1
f 13/15/39 16/6/40 9/17/29
f 9/17/29 16/6/40 12/8/30
s 4
f 18/14/16 17/13/14 14/16/34
f 14/16/34 17/13/14 13/15/33
s 2
f 14/81/35 15/82/36 18/77/5
f 18/77/5 15/82/36 19/78/6
s 3
f 19/3/12 15/5/38 20/4/11
f 20/4/11 15/5/38 16/6/37
s 1
f 17/13/3 20/4/4 13/15/39
f 13/15/39 20/4/4 16/6/40
s 11
f 58/87/41 33/88/42 59/90/43
f 59/90/43 33/88/42 37/89/44
s 12
f 39/57/45 35/58/46 40/60/47
f 40/60/47 35/58/46 36/59/48
s 13
f 38/70/49 34/69/50 64/106/51
f 64/106/51 34/69/50 65/105/52
s 14
f 37/67/53 33/68/54 38/70/55
f 38/70/55 33/68/54 34/69/56
s 15
f 22/21/57 28/22/58 61/24/59
f 61/24/59 28/22/58 62/23/60
s 16
f 27/29/61 21/30/62 67/32/63
f 67/32/63 21/30/62 68/31/64
s 12
f 44/63/65 24/66/66 43/64/67
f 43/64/67 24/66/66 26/28/68
s 13
f 28/22/69 42/73/70 62/23/71
f 62/23/71 42/73/70 63/110/72
s 14
f 41/74/73 42/73/74 22/76/75
f 22/76/75 42/73/74 28/22/76
s 11
f 60/94/77 41/93/78 61/101/79
f 61/101/79 41/93/78 22/100/80
s 16
f 55/34/81 56/33/82 25/36/83
f 25/36/83 56/33/82 23/35/84
s 13
f 52/109/85 53/108/86 39/57/87
f 39/57/87 53/108/86 35/58/88
f 26/28/89 50/25/90 43/64/91
f 43/64/91 50/25/90 51/112/92
s 15
f 24/27/93 49/26/94 26/28/95
f 26/28/95 49/26/94 50/25/96
s 11
f 48/102/97 49/104/98 44/63/99
f 44/63/99 49/104/98 24/66/100
f 46/96/101 47/95/102 36/59/103
f 36/59/103 47/95/102 40/60/104
f 23/65/105 56/103/106 32/61/107
f 32/61/107 56/103/106 45/99/108
f 68/97/109 21/98/110 57/91/111
f 57/91/111 21/98/110 29/92/112
s 14
f 27/29/113 30/71/114 21/75/115
f 21/75/115 30/71/114 29/72/116
s 13
f 30/71/117 27/29/118 66/107/119
f 66/107/119 27/29/118 67/32/120
f 54/111/121 55/34/122 31/62/123
f 31/62/123 55/34/122 25/36/124
s 12
f 23/65/125 32/61/126 25/36/127
f 25/36/127 32/61/126 31/62/128
s 11
f 32/61/107 45/99/108 36/59/103
f 36/59/103 45/99/108 46/96/101
f 57/91/111 29/92/112 58/87/41
f 58/87/41 29/92/112 33/88/42
s 14
f 30/71/114 34/69/56 29/72/116
f 29/72/116 34/69/56 33/68/54
s 13
f 34/69/50 30/71/117 65/105/52
f 65/105/52 30/71/117 66/107/119
f 53/108/86 54/111/121 35/58/88
f 35/58/88 54/111/121 31/62/123
s 12
f 32/61/126 36/59/48 31/62/128
f 31/62/128 36/59/48 35/58/46
s 11
f 40/60/104 47/95/102 44/63/99
f 44/63/99 47/95/102 48/102/97
f 59/90/43 37/89/44 60/94/77
f 60/94/77 37/89/44 41/93/78
s 14
f 37/67/53 38/70/55 41/74/73
f 41/74/73 38/70/55 42/73/74
s 13
f 42/73/70 38/70/49 63/110/72
f 63/110/72 38/70/49 64/106/51
f 51/112/92 52/109/85 43/64/91
f 43/64/91 52/109/85 39/57/87
s 12
f 40/60/47 44/63/65 39/57/45
f 39/57/45 44/63/65 43/64/67
s 11
f 46/96/101 45/99/108 58/87/41
f 58/87/41 45/99/108 57/91/111
f 47/95/102 46/96/101 59/90/43
f 59/90/43 46/96/101 58/87/41
f 48/102/97 47/95/102 60/94/77
f 60/94/77 47/95/102 59/90/43
f 49/104/98 48/102/97 61/101/79
f 61/101/79 48/102/97 60/94/77
s 15
f 50/25/96 49/26/94 62/23/60
f 62/23/60 49/26/94 61/24/59
s 13
f 51/112/92 50/25/90 63/110/72
f 63/110/72 50/25/90 62/23/71
f 52/109/85 51/112/92 64/106/51
f 64/106/51 51/112/92 63/110/72
f 64/106/51 65/105/52 52/109/85
f 52/109/85 65/105/52 53/108/86
f 54/111/121 53/108/86 66/107/119
f 66/107/119 53/108/86 65/105/52
f 55/34/122 54/111/121 67/32/120
f 67/32/120 54/111/121 66/107/119
s 16
f 56/33/82 55/34/81 68/31/64
f 68/31/64 55/34/81 67/32/63
s 11
f 57/91/111 45/99/108 68/97/109
f 68/97/109 45/99/108 56/103/106
s 33
f 69/48/129 70/37/130 85/49/131
f 85/49/131 70/37/130 88/40/132
s 34
f 86/113/133 87/114/134 75/116/135
f 75/116/135 87/114/134 76/115/136
s 35
f 70/37/137 76/38/138 88/40/139
f 88/40/139 76/38/138 87/39/140
s 36
f 69/48/141 85/49/142 75/47/143
f 75/47/143 85/49/142 86/50/144
f 78/54/145 77/53/146 73/56/147
f 73/56/147 77/53/146 71/55/148
s 34
f 73/121/149 74/122/150 78/119/151
f 78/119/151 74/122/150 79/120/152
s 35
f 79/43/153 74/45/154 80/44/155
f 80/44/155 74/45/154 72/46/156
s 33
f 77/53/157 80/44/158 71/55/159
f 71/55/159 80/44/158 72/46/160
s 36
f 81/51/161 77/53/146 82/52/162
f 82/52/162 77/53/146 78/54/145
s 34
f 78/119/151 79/120/152 82/117/163
f 82/117/163 79/120/152 83/118/164
s 35
f 84/42/165 83/41/166 80/44/155
f 80/44/155 83/41/166 79/43/153
s 33
f 81/51/167 84/42/168 77/53/157
f 77/53/157 84/42/168 80/44/158
s 36
f 86/50/144 85/49/142 82/52/162
f 82/52/162 85/49/142 81/51/161
s 34
f 82/117/163 83/118/164 86/113/133
f 86/113/133 83/118/164 87/114/134
s 35
f 87/39/140 83/41/166 88/40/139
f 88/40/139 83/41/166 84/42/165
s 33
f 85/49/131 88/40/132 81/51/167
f 81/51/167 88/40/132 84/42/168
