# This file uses centimeters as units for non-parametric coordinates.

g Medicine Cabinet
v -0.904213 0.008805 0.333491
v 0.904213 0.008805 0.333491
v -0.904213 3.011296 0.333491
v 0.904213 3.011296 0.333491
v -0.904213 3.011296 -0.389708
v 0.904213 3.011296 -0.389708
v -0.904213 0.008805 -0.389708
v 0.904213 0.008805 -0.389708
v -0.766980 0.008805 0.333491
v -0.766980 0.008805 -0.389708
v -0.766980 3.011296 -0.389708
v -0.766980 3.011296 0.333491
v -0.158639 0.008805 0.333491
v -0.158639 0.008805 -0.389708
v -0.158639 3.011296 -0.389708
v -0.158639 3.011296 0.333491
v 0.158639 0.008805 0.333491
v 0.158639 0.008805 -0.389708
v 0.158639 3.011296 -0.389708
v 0.158639 3.011296 0.333491
v 0.766980 0.008805 0.333491
v 0.766980 0.008805 -0.389708
v 0.766980 3.011296 -0.389708
v 0.766980 3.011296 0.333491
v -0.766980 2.801282 0.333491
v -0.158639 2.801282 0.333491
v 0.158639 2.801282 0.333491
v 0.766980 2.801282 0.333491
v 0.904213 2.801282 0.333491
v 0.904213 2.801282 -0.389708
v 0.766980 2.801282 -0.389708
v 0.158639 2.801282 -0.389708
v -0.158639 2.801282 -0.389708
v -0.766980 2.801282 -0.389708
v -0.904213 2.801282 -0.389708
v -0.904213 2.801282 0.333491
v -0.766980 0.218819 0.333491
v -0.158639 0.218819 0.333491
v 0.158639 0.218819 0.333491
v 0.766980 0.218819 0.333491
v 0.904213 0.218819 0.333491
v 0.904213 0.218819 -0.389708
v 0.766980 0.218819 -0.389708
v 0.158639 0.218819 -0.389708
v -0.158639 0.218819 -0.389708
v -0.766980 0.218819 -0.389708
v -0.904213 0.218819 -0.389708
v -0.904213 0.218819 0.333491
v 0.048506 1.439490 0.333318
v 0.123897 1.439490 0.333318
v 0.048506 1.753198 0.333318
v 0.123897 1.753198 0.333318
v 0.048506 1.713147 0.333137
v 0.123897 1.713147 0.333137
v 0.048506 1.479542 0.333137
v 0.123897 1.479542 0.333137
v 0.048506 1.674771 0.378908
v 0.048506 1.674771 0.352751
v 0.123897 1.674771 0.352751
v 0.123897 1.674771 0.378908
v 0.048506 1.596344 0.389708
v 0.048506 1.596344 0.356470
v 0.123897 1.596344 0.356470
v 0.123897 1.596344 0.389708
v 0.048506 1.517917 0.378908
v 0.048506 1.517917 0.352751
v 0.123897 1.517917 0.352751
v 0.123897 1.517917 0.378908
vt 0.986666 0.639422
vt 0.910562 0.715527
vt 0.888461 0.693426
vt 0.964566 0.617322
vt 0.616702 0.421667
vt 0.692806 0.345563
vt 0.670706 0.323462
vt 0.594602 0.399566
vt 0.720256 0.905832
vt 0.644152 0.981936
vt 0.622052 0.959836
vt 0.698156 0.883732
vt 0.350292 0.688076
vt 0.426396 0.611972
vt 0.328192 0.665976
vt 0.404296 0.589872
vt 0.167739 0.611030
vt 0.170206 0.616334
vt 0.167609 0.621417
vt 0.164720 0.621417
vt 0.167116 0.631805
vt 0.164005 0.631805
vt 0.167609 0.642192
vt 0.164720 0.642192
vt 0.170207 0.647275
vt 0.167739 0.652580
vt 0.150401 0.616334
vt 0.152868 0.611030
vt 0.155887 0.621417
vt 0.152999 0.621417
vt 0.156602 0.631805
vt 0.153491 0.631805
vt 0.155887 0.642192
vt 0.152998 0.642192
vt 0.152867 0.652580
vt 0.150400 0.647275
vt 0.516143 0.478025
vt 0.482755 0.511413
vt 0.406651 0.435309
vt 0.440039 0.401921
vt 0.342633 0.499326
vt 0.418737 0.575431
vt 0.504056 0.337904
vt 0.580160 0.414008
vt 0.328192 0.513768
vt 0.404296 0.589872
vt 0.518498 0.323462
vt 0.594602 0.399567
vt 0.908207 0.870089
vt 0.874819 0.903477
vt 0.798715 0.827373
vt 0.832103 0.793985
vt 0.734698 0.891391
vt 0.810802 0.967495
vt 0.896120 0.729968
vt 0.972225 0.806072
vt 0.720256 0.905832
vt 0.796361 0.981936
vt 0.910561 0.715526
vt 0.986666 0.791631
vt 0.112791 0.141449
vt 0.090691 0.119349
vt 0.124079 0.085960
vt 0.146179 0.108061
vt 0.048774 0.205466
vt 0.026673 0.183366
vt 0.188096 0.021943
vt 0.210196 0.044044
vt 0.417938 0.379821
vt 0.384550 0.413209
vt 0.034332 0.219908
vt 0.012232 0.197807
vt 0.320533 0.477226
vt 0.202537 0.007502
vt 0.224638 0.029602
vt 0.481956 0.315803
vt 0.306092 0.491667
vt 0.496397 0.301362
vt 0.328192 0.513768
vt 0.518498 0.323462
vt 0.776615 0.805273
vt 0.810003 0.771885
vt 0.712597 0.869290
vt 0.504855 0.533513
vt 0.538243 0.500125
vt 0.874020 0.707868
vt 0.440838 0.597531
vt 0.602260 0.436108
vt 0.111197 0.642192
vt 0.121183 0.642192
vt 0.121183 0.647275
vt 0.111197 0.647275
vt 0.111197 0.631805
vt 0.121183 0.631805
vt 0.111197 0.621417
vt 0.121183 0.621417
vt 0.111197 0.616334
vt 0.121183 0.616334
vn 0.000000 0.000000 1.000000
vn 0.000000 0.000000 1.000000
vn 0.000000 0.000000 1.000000
vn 0.000000 0.000000 1.000000
vn 0.000000 1.000000 0.000000
vn 0.000000 1.000000 0.000000
vn 0.000000 1.000000 0.000000
vn 0.000000 1.000000 0.000000
vn 0.000000 0.000000 -1.000000
vn 0.000000 0.000000 -1.000000
vn 0.000000 0.000000 -1.000000
vn 0.000000 0.000000 -1.000000
vn 0.000000 -1.000000 0.000000
vn 0.000000 -1.000000 0.000000
vn 0.000000 -1.000000 0.000000
vn 0.000000 -1.000000 0.000000
vn 1.000000 0.000000 0.000000
vn 1.000000 0.000000 0.000000
vn 1.000000 0.000000 0.000000
vn 1.000000 0.000000 0.000000
vn -1.000000 0.000000 0.000000
vn -1.000000 0.000000 0.000000
vn -1.000000 0.000000 0.000000
vn -1.000000 0.000000 0.000000
vn 0.000000 1.000000 0.000000
vn 0.000000 1.000000 0.000000
vn 0.000000 1.000000 0.000000
vn 0.000000 1.000000 0.000000
vn 0.000000 0.000000 -1.000000
vn 0.000000 0.000000 -1.000000
vn 0.000000 0.000000 -1.000000
vn 0.000000 0.000000 -1.000000
vn 0.000000 -1.000000 0.000000
vn 0.000000 -1.000000 0.000000
vn 0.000000 -1.000000 0.000000
vn 0.000000 -1.000000 0.000000
vn 0.000000 0.000000 1.000000
vn 0.000000 0.000000 1.000000
vn 0.000000 0.000000 1.000000
vn 0.000000 0.000000 1.000000
vn -1.000000 0.000000 0.000000
vn -1.000000 0.000000 0.000000
vn -1.000000 0.000000 0.000000
vn -1.000000 0.000000 0.000000
vn 0.000000 0.000000 -1.000000
vn 0.000000 0.000000 -1.000000
vn 0.000000 0.000000 -1.000000
vn 0.000000 0.000000 -1.000000
vn 0.000000 0.000000 -1.000000
vn 0.000000 0.000000 -1.000000
vn 0.000000 0.000000 -1.000000
vn 0.000000 0.000000 -1.000000
vn 1.000000 0.000000 0.000000
vn 1.000000 0.000000 0.000000
vn 1.000000 0.000000 0.000000
vn 1.000000 0.000000 0.000000
vn 0.000000 0.000000 1.000000
vn 0.000000 0.000000 1.000000
vn 0.000000 0.000000 1.000000
vn 0.000000 0.000000 1.000000
vn 0.000000 0.000000 1.000000
vn 0.000000 0.000000 1.000000
vn 0.000000 0.000000 1.000000
vn 0.000000 0.000000 1.000000
vn 0.000000 0.000000 1.000000
vn 0.000000 0.000000 1.000000
vn 0.000000 0.000000 1.000000
vn 0.000000 0.000000 1.000000
vn 0.000000 0.000000 1.000000
vn 0.000000 0.000000 1.000000
vn 0.000000 0.000000 1.000000
vn 0.000000 0.000000 1.000000
vn 0.000000 -1.000000 0.000000
vn 0.000000 -1.000000 0.000000
vn 0.000000 -1.000000 0.000000
vn 0.000000 -1.000000 0.000000
vn 0.000000 0.000000 -1.000000
vn 0.000000 0.000000 -1.000000
vn 0.000000 0.000000 -1.000000
vn 0.000000 0.000000 -1.000000
vn 0.000000 0.000000 -1.000000
vn 0.000000 0.000000 -1.000000
vn 0.000000 0.000000 -1.000000
vn 0.000000 0.000000 -1.000000
vn 0.000000 1.000000 0.000000
vn 0.000000 1.000000 0.000000
vn 0.000000 1.000000 0.000000
vn 0.000000 1.000000 0.000000
vn 0.000000 -0.502559 0.864543
vn 0.000000 -0.502559 0.864543
vn 0.000000 -0.338306 0.941036
vn 0.000000 -0.338306 0.941036
vn 0.000000 0.195896 -0.980625
vn 0.000000 0.195896 -0.980625
vn 0.000000 0.455107 -0.890436
vn 0.000000 0.455106 -0.890437
vn 1.000000 0.000000 0.000000
vn 1.000000 0.000000 0.000000
vn 1.000000 -0.000000 0.000000
vn 1.000000 0.000000 0.000000
vn -1.000000 -0.000000 0.000000
vn -1.000000 0.000000 0.000000
vn -1.000000 -0.000000 0.000000
vn -1.000000 0.000000 0.000000
vn -1.000000 -0.000000 0.000000
vn -1.000000 -0.000000 0.000000
vn -1.000000 0.000000 0.000000
vn -1.000000 0.000000 0.000000
vn 0.000000 -0.455108 -0.890436
vn 0.000000 -0.455106 -0.890437
vn 0.000000 -0.195896 -0.980625
vn 0.000000 -0.195895 -0.980625
vn 1.000000 0.000000 0.000000
vn 1.000000 0.000000 0.000000
vn 1.000000 0.000000 0.000000
vn 1.000000 0.000000 0.000000
vn 0.000000 0.338305 0.941037
vn 0.000000 0.338305 0.941036
vn 0.000000 0.502560 0.864543
vn 0.000000 0.502560 0.864542
vn -1.000000 0.000000 0.000000
vn -1.000000 -0.000000 0.000000
vn 0.000000 -0.000000 -1.000000
vn 0.000000 -0.000000 -1.000000
vn 1.000000 0.000000 0.000000
vn 1.000000 0.000000 0.000000
vn 0.000000 0.000000 1.000000
vn 0.000000 0.000000 1.000000
s 1
f 38/61/1 13/62/2 39/64/3
f 39/64/3 13/62/2 17/63/4
s 2
f 19/37/5 15/38/6 20/40/7
f 20/40/7 15/38/6 16/39/8
s 3
f 18/52/9 14/51/10 44/82/11
f 44/82/11 14/51/10 45/81/12
s 4
f 17/49/13 13/50/14 18/52/15
f 18/52/15 13/50/14 14/51/16
s 5
f 2/1/17 8/2/18 41/4/19
f 41/4/19 8/2/18 42/3/20
s 6
f 7/9/21 1/10/22 47/12/23
f 47/12/23 1/10/22 48/11/24
s 2
f 24/43/25 4/47/26 23/44/27
f 23/44/27 4/47/26 6/48/28
s 3
f 8/2/29 22/55/30 42/3/31
f 42/3/31 22/55/30 43/86/32
s 4
f 21/56/33 22/55/34 2/60/35
f 2/60/35 22/55/34 8/59/36
s 1
f 40/68/37 21/67/38 41/75/39
f 41/75/39 21/67/38 2/74/40
s 6
f 35/14/41 36/13/42 5/16/43
f 5/16/43 36/13/42 3/15/44
s 3
f 19/37/45 32/85/46 15/38/47
f 15/38/47 32/85/46 33/84/48
f 6/8/49 30/5/50 23/44/51
f 23/44/51 30/5/50 31/88/52
s 5
f 4/7/53 29/6/54 6/8/55
f 6/8/55 29/6/54 30/5/56
s 1
f 28/76/57 29/78/58 24/43/59
f 24/43/59 29/78/58 4/80/60
f 26/70/61 27/69/62 16/39/63
f 16/39/63 27/69/62 20/40/64
f 3/79/65 36/77/66 12/41/67
f 12/41/67 36/77/66 25/73/68
f 48/71/69 1/72/70 37/65/71
f 37/65/71 1/72/70 9/66/72
s 4
f 7/57/73 10/53/74 1/58/75
f 1/58/75 10/53/74 9/54/76
s 3
f 10/53/77 7/9/78 46/83/79
f 46/83/79 7/9/78 47/12/80
f 11/42/81 34/87/82 5/16/83
f 5/16/83 34/87/82 35/14/84
s 2
f 3/45/85 12/41/86 5/46/87
f 5/46/87 12/41/86 11/42/88
s 1
f 12/41/67 25/73/68 16/39/63
f 16/39/63 25/73/68 26/70/61
f 37/65/71 9/66/72 38/61/1
f 38/61/1 9/66/72 13/62/2
s 4
f 10/53/74 14/51/16 9/54/76
f 9/54/76 14/51/16 13/50/14
s 3
f 14/51/10 10/53/77 45/81/12
f 45/81/12 10/53/77 46/83/79
f 15/38/47 33/84/48 11/42/81
f 11/42/81 33/84/48 34/87/82
s 2
f 12/41/86 16/39/8 11/42/88
f 11/42/88 16/39/8 15/38/6
s 1
f 20/40/64 27/69/62 24/43/59
f 24/43/59 27/69/62 28/76/57
f 39/64/3 17/63/4 40/68/37
f 40/68/37 17/63/4 21/67/38
s 4
f 17/49/13 18/52/15 21/56/33
f 21/56/33 18/52/15 22/55/34
s 3
f 22/55/30 18/52/9 43/86/32
f 43/86/32 18/52/9 44/82/11
f 23/44/51 31/88/52 19/37/45
f 19/37/45 31/88/52 32/85/46
s 2
f 20/40/7 24/43/25 19/37/5
f 19/37/5 24/43/25 23/44/27
s 1
f 26/70/61 25/73/68 38/61/1
f 38/61/1 25/73/68 37/65/71
f 27/69/62 26/70/61 39/64/3
f 39/64/3 26/70/61 38/61/1
f 28/76/57 27/69/62 40/68/37
f 40/68/37 27/69/62 39/64/3
f 29/78/58 28/76/57 41/75/39
f 41/75/39 28/76/57 40/68/37
s 5
f 30/5/56 29/6/54 42/3/20
f 42/3/20 29/6/54 41/4/19
s 3
f 31/88/52 30/5/50 43/86/32
f 43/86/32 30/5/50 42/3/31
f 32/85/46 31/88/52 44/82/11
f 44/82/11 31/88/52 43/86/32
f 44/82/11 45/81/12 32/85/46
f 32/85/46 45/81/12 33/84/48
f 34/87/82 33/84/48 46/83/79
f 46/83/79 33/84/48 45/81/12
f 35/14/84 34/87/82 47/12/80
f 47/12/80 34/87/82 46/83/79
s 6
f 36/13/42 35/14/41 48/11/24
f 48/11/24 35/14/41 47/12/23
s 1
f 37/65/71 25/73/68 48/71/69
f 48/71/69 25/73/68 36/77/66
s 23
usemtl initialShadingGroup
f 49/28/89 50/17/90 65/29/91
f 65/29/91 50/17/90 68/20/92
s 24
f 66/89/93 67/90/94 55/92/95
f 55/92/95 67/90/94 56/91/96
s 25
f 50/17/97 56/18/98 68/20/99
f 68/20/99 56/18/98 67/19/100
s 26
f 49/28/101 65/29/102 55/27/103
f 55/27/103 65/29/102 66/30/104
f 58/34/105 57/33/106 53/36/107
f 53/36/107 57/33/106 51/35/108
s 24
f 53/97/109 54/98/110 58/95/111
f 58/95/111 54/98/110 59/96/112
s 25
f 59/23/113 54/25/114 60/24/115
f 60/24/115 54/25/114 52/26/116
s 23
f 57/33/117 60/24/118 51/35/119
f 51/35/119 60/24/118 52/26/120
s 26
f 61/31/121 57/33/106 62/32/122
f 62/32/122 57/33/106 58/34/105
s 24
f 58/95/111 59/96/112 62/93/123
f 62/93/123 59/96/112 63/94/124
s 25
f 64/22/125 63/21/126 60/24/115
f 60/24/115 63/21/126 59/23/113
s 23
f 61/31/127 64/22/128 57/33/117
f 57/33/117 64/22/128 60/24/118
s 26
f 66/30/104 65/29/102 62/32/122
f 62/32/122 65/29/102 61/31/121
s 24
f 62/93/123 63/94/124 66/89/93
f 66/89/93 63/94/124 67/90/94
s 25
f 67/19/100 63/21/126 68/20/99
f 68/20/99 63/21/126 64/22/125
s 23
f 65/29/91 68/20/92 61/31/127
f 61/31/127 68/20/92 64/22/128
