# This file uses centimeters as units for non-parametric coordinates.

g Monitor holder
v -0.173968 0.006898 -0.620441
v 0.173968 0.006898 -0.620441
v -0.173968 0.435692 -0.620441
v 0.173968 0.435692 -0.620441
v -0.205558 0.495152 -0.652322
v 0.205558 0.495152 -0.652322
v -0.205558 -0.052562 -0.652322
v 0.205558 -0.052562 -0.652322
v -0.205558 0.495152 -0.701144
v 0.205558 0.495152 -0.701144
v 0.205558 -0.052562 -0.701144
v -0.205558 -0.052562 -0.701144
v -0.065940 0.629348 0.073528
v 0.073528 0.629348 0.065940
v -0.065940 0.675701 0.073528
v 0.073528 0.675701 0.065940
v -0.073528 0.675701 -0.065940
v 0.065940 0.675701 -0.073528
v -0.073528 0.629348 -0.065940
v 0.065940 0.629348 -0.073528
v 0.030041 0.428309 0.373672
v 0.411824 0.428309 0.352902
v 0.026550 0.618264 0.309495
v 0.408333 0.618264 0.288726
v 0.026552 0.558296 0.309530
v 0.408335 0.558296 0.288760
v 0.029092 0.423834 0.356216
v 0.410875 0.423834 0.335446
v -0.394203 0.506982 0.369667
v -0.012420 0.506982 0.348897
v -0.396217 0.623655 0.332647
v -0.014434 0.623655 0.311877
v -0.396220 0.585117 0.332593
v -0.014437 0.585117 0.311823
v -0.394720 0.504547 0.360168
v -0.012937 0.504547 0.339398
v -0.409014 0.396081 0.333400
v 0.442768 0.396081 0.287061
v -0.409014 0.629348 0.333400
v 0.442768 0.629348 0.287061
v -0.441514 0.629348 -0.263998
v 0.410268 0.629348 -0.310337
v -0.441514 0.396081 -0.263998
v 0.410268 0.396081 -0.310337
v -0.065940 0.326675 0.073528
v 0.073528 0.326675 0.065940
v -0.065940 0.396721 0.073528
v 0.073528 0.396721 0.065940
v -0.073528 0.396721 -0.065940
v 0.065940 0.396721 -0.073528
v -0.073528 0.326675 -0.065940
v 0.065940 0.326675 -0.073528
v -0.339610 0.675195 0.266843
v 0.366554 0.675195 0.228426
v -0.339610 0.721549 0.266843
v 0.366554 0.721549 0.228426
v -0.366554 0.721549 -0.228426
v 0.339610 0.721549 -0.266843
v -0.366554 0.675195 -0.228426
v 0.339610 0.675195 -0.266843
v -0.032219 0.128962 0.071423
v 0.039777 0.128962 0.067507
v -0.032219 0.326598 0.071423
v 0.039777 0.326598 0.067507
v -0.069762 0.326598 -0.618671
v 0.002235 0.326598 -0.622588
v -0.069762 0.128962 -0.618671
v 0.002235 0.128962 -0.622588
v 0.017866 0.075763 0.000522
v -0.000319 0.075763 -0.005863
v -0.017704 0.075763 0.002457
v -0.024105 0.075763 0.020609
v -0.015773 0.075763 0.037960
v 0.002412 0.075763 0.044345
v 0.019797 0.075763 0.036025
v 0.026198 0.075763 0.017873
v 0.017866 0.129607 0.000522
v -0.000319 0.129607 -0.005863
v -0.017704 0.129607 0.002457
v -0.024105 0.129607 0.020609
v -0.015773 0.129607 0.037960
v 0.002412 0.129607 0.044345
v 0.019797 0.129607 0.036025
v 0.026198 0.129607 0.017873
v 0.024319 0.072150 -0.006660
v -0.000843 0.072150 -0.015495
v -0.024898 0.072150 -0.003982
v -0.037403 0.070043 0.021333
v -0.024665 0.070043 0.047857
v 0.003135 0.070043 0.057619
v 0.029711 0.070043 0.044899
v 0.039497 0.070043 0.017149
v 0.022682 0.045020 -0.004838
v -0.000710 0.044838 -0.013923
v -0.023073 0.047939 -0.002348
v -0.037403 0.047552 0.021333
v -0.024665 0.047552 0.047857
v 0.003135 0.047552 0.057619
v 0.029711 0.047552 0.044899
v 0.039497 0.047552 0.017149
v 0.026759 0.039944 0.005700
v -0.001041 0.039944 -0.008116
v 0.001130 0.039944 0.020775
v -0.019711 0.039944 0.002120
v -0.026826 0.039944 0.022296
v -0.017564 0.039944 0.041581
v 0.002648 0.039944 0.048678
v 0.021972 0.039944 0.039430
v 0.029086 0.039944 0.019254
vt 0.708547 0.758077
vt 0.708546 0.943523
vt 0.692016 0.943523
vt 0.692016 0.758077
vt 0.719341 0.923391
vt 0.719341 0.778209
vt 0.536290 0.943523
vt 0.536290 0.758077
vt 0.552820 0.758077
vt 0.552820 0.943523
vt 0.525495 0.923391
vt 0.525495 0.778209
vt 0.552820 0.741547
vt 0.692016 0.741547
vt 0.692016 0.960053
vt 0.552820 0.960053
vt 0.563515 0.576233
vt 0.681320 0.576233
vt 0.681320 0.721415
vt 0.563515 0.721415
vt 0.552820 0.556101
vt 0.692016 0.556101
vt 0.781771 0.638219
vt 0.841887 0.638219
vt 0.781771 0.658199
vt 0.841887 0.658199
vt 0.962121 0.658211
vt 0.902004 0.658202
vt 0.962124 0.638232
vt 0.902006 0.638223
vt 0.721655 0.638218
vt 0.721655 0.658198
vt 0.419596 0.184282
vt 0.588009 0.184193
vt 0.419596 0.270333
vt 0.588009 0.270333
vt 0.419596 0.118466
vt 0.588009 0.118376
vt 0.419596 0.177735
vt 0.588009 0.177645
vt 0.595939 0.183776
vt 0.595300 0.246514
vt 0.411687 0.183582
vt 0.410087 0.246303
vt 0.430840 0.061123
vt 0.599129 0.061123
vt 0.430840 0.112523
vt 0.599129 0.112586
vt 0.430840 0.020933
vt 0.599129 0.020995
vt 0.430840 0.057268
vt 0.599129 0.057268
vt 0.603402 0.058263
vt 0.603627 0.004338
vt 0.426598 0.058359
vt 0.424386 0.004478
vt 0.510188 0.639171
vt 0.142902 0.639172
vt 0.510187 0.538576
vt 0.142902 0.538578
vt 0.510255 0.280981
vt 0.142832 0.280980
vt 0.510119 0.997411
vt 0.142971 0.997411
vt 0.510188 0.896863
vt 0.142902 0.896863
vt 0.042356 0.538557
vt 0.042286 0.281055
vt 0.610802 0.281055
vt 0.610734 0.538555
vt 0.900567 0.586226
vt 0.960671 0.586227
vt 0.900554 0.616419
vt 0.960671 0.616419
vt 0.840437 0.616415
vt 0.780321 0.616408
vt 0.840429 0.586223
vt 0.780326 0.586215
vt 0.720212 0.586203
vt 0.720206 0.616396
vt 0.900579 0.526065
vt 0.840419 0.526063
vt 0.636463 0.231624
vt 0.940959 0.231624
vt 0.636463 0.251644
vt 0.940959 0.251642
vt 0.636463 0.465203
vt 0.940962 0.465204
vt 0.636518 0.485222
vt 0.940908 0.485221
vt 0.636408 0.017987
vt 0.941016 0.017988
vt 0.960939 0.251680
vt 0.960942 0.465165
vt 0.616483 0.465163
vt 0.616484 0.251683
vt 0.067038 0.036136
vt 0.098072 0.036135
vt 0.067039 0.121324
vt 0.098072 0.121324
vt 0.395637 0.036135
vt 0.395637 0.121324
vt 0.395583 0.237569
vt 0.098127 0.237570
vt 0.395638 0.152380
vt 0.098072 0.152381
vt 0.098017 0.005078
vt 0.395692 0.005079
vt 0.776655 0.568011
vt 0.768501 0.568009
vt 0.776655 0.543865
vt 0.768502 0.543867
vt 0.760706 0.568009
vt 0.760706 0.543866
vt 0.824450 0.568013
vt 0.816309 0.568013
vt 0.824450 0.543863
vt 0.816309 0.543863
vt 0.808527 0.568011
vt 0.808527 0.543865
vt 0.800373 0.568009
vt 0.800374 0.543866
vt 0.792578 0.568011
vt 0.792578 0.543865
vt 0.784437 0.568013
vt 0.784437 0.543863
vt 0.803538 0.527176
vt 0.798299 0.515121
vt 0.810680 0.516872
vt 0.812528 0.528620
vt 0.820394 0.523960
vt 0.822474 0.514987
vt 0.817595 0.507156
vt 0.808621 0.505058
vt 0.800864 0.509920
vt 0.763422 0.522245
vt 0.771458 0.519487
vt 0.763154 0.526470
vt 0.774286 0.522639
vt 0.755784 0.518523
vt 0.752581 0.521284
vt 0.753019 0.510502
vt 0.747094 0.510069
vt 0.756746 0.502879
vt 0.752832 0.498425
vt 0.764782 0.500121
vt 0.765166 0.494209
vt 0.772420 0.503842
vt 0.776873 0.499928
vt 0.775185 0.511864
vt 0.781123 0.512184
vt 0.659868 0.528890
vt 0.659868 0.539231
vt 0.648420 0.528890
vt 0.648420 0.539231
vt 0.637023 0.528890
vt 0.637023 0.539231
vt 0.734890 0.528890
vt 0.734890 0.539231
vt 0.722758 0.528890
vt 0.722758 0.539231
vt 0.710089 0.528890
vt 0.710089 0.539231
vt 0.697403 0.528890
vt 0.697403 0.539231
vt 0.684717 0.528890
vt 0.684717 0.539231
vt 0.672048 0.528890
vt 0.672048 0.539231
vt 0.801454 0.529768
vt 0.795712 0.519876
vt 0.812822 0.532843
vt 0.824614 0.527775
vt 0.827744 0.514625
vt 0.820623 0.503036
vt 0.807359 0.499922
vt 0.795815 0.507084
vn 0.000000 0.000000 1.000000
vn 0.000000 0.000000 1.000000
vn 0.000000 0.000000 1.000000
vn 0.000000 0.000000 1.000000
vn 0.000000 0.000000 -1.000000
vn 0.000000 0.000000 -1.000000
vn 0.000000 0.000000 -1.000000
vn 0.000000 0.000000 -1.000000
vn 0.710347 0.000000 0.703852
vn 0.710347 0.000000 0.703852
vn 0.710347 0.000000 0.703852
vn 0.710347 0.000000 0.703852
vn -0.710346 0.000000 0.703852
vn -0.710346 0.000000 0.703852
vn -0.710347 0.000000 0.703851
vn -0.710347 0.000000 0.703851
vn 0.000000 -0.472545 0.881306
vn 0.000000 -0.472545 0.881306
vn 0.000000 -0.472545 0.881306
vn 0.000000 -0.472545 0.881306
vn 0.000000 0.472545 0.881307
vn 0.000000 0.472545 0.881306
vn 0.000000 0.472546 0.881306
vn 0.000000 0.472546 0.881306
vn 0.000000 1.000000 0.000000
vn 0.000000 1.000000 0.000000
vn 0.000000 1.000000 0.000000
vn 0.000000 1.000000 0.000000
vn 1.000000 0.000000 0.000000
vn 1.000000 0.000000 0.000000
vn 1.000000 0.000000 0.000000
vn 1.000000 0.000000 0.000000
vn 0.000000 -1.000000 0.000000
vn 0.000000 -1.000000 0.000000
vn 0.000000 -1.000000 0.000000
vn 0.000000 -1.000000 0.000000
vn -1.000000 0.000000 0.000000
vn -1.000000 0.000000 0.000000
vn -1.000000 0.000000 0.000000
vn -1.000000 0.000000 0.000000
vn 0.054322 0.000000 0.998523
vn 0.054322 0.000000 0.998523
vn 0.054322 0.000000 0.998523
vn 0.054322 0.000000 0.998523
vn -0.054322 0.000000 -0.998523
vn -0.054322 0.000000 -0.998523
vn -0.054322 0.000000 -0.998523
vn -0.054322 0.000000 -0.998523
vn 0.998523 0.000000 -0.054322
vn 0.998523 0.000000 -0.054322
vn 0.998523 0.000000 -0.054322
vn 0.998523 0.000000 -0.054322
vn -0.998523 0.000000 0.054322
vn -0.998523 0.000000 0.054322
vn -0.998523 0.000000 0.054322
vn -0.998523 0.000000 0.054322
vn 0.051456 0.320503 0.945849
vn 0.051456 0.320503 0.945849
vn 0.051456 0.320503 0.945849
vn 0.051456 0.320503 0.945849
vn -0.051309 -0.328430 -0.943134
vn -0.051309 -0.328430 -0.943134
vn -0.051309 -0.328430 -0.943134
vn -0.051309 -0.328430 -0.943134
vn 0.013471 -0.968767 0.247605
vn 0.013471 -0.968765 0.247613
vn 0.013471 -0.968767 0.247606
vn 0.013471 -0.968765 0.247613
vn 0.998523 0.000001 -0.054321
vn 0.998523 0.000000 -0.054322
vn 0.998523 0.000001 -0.054321
vn 0.998523 0.000000 -0.054322
vn -0.998523 0.000000 0.054322
vn -0.998523 0.000000 0.054322
vn -0.998523 -0.000000 0.054322
vn -0.998524 -0.000000 0.054322
vn 0.051771 0.302844 0.951633
vn 0.051771 0.302844 0.951633
vn 0.051771 0.302844 0.951633
vn 0.051771 0.302844 0.951633
vn -0.051387 -0.324235 -0.944580
vn -0.051387 -0.324235 -0.944580
vn -0.051387 -0.324235 -0.944580
vn -0.051387 -0.324235 -0.944580
vn 0.013471 -0.968764 0.247618
vn 0.013471 -0.968765 0.247613
vn 0.013471 -0.968764 0.247618
vn 0.013471 -0.968765 0.247613
vn 0.998523 -0.000000 -0.054322
vn 0.998523 -0.000000 -0.054322
vn 0.998523 -0.000000 -0.054322
vn 0.998523 0.000000 -0.054322
vn -0.998523 0.000000 0.054322
vn -0.998523 0.000000 0.054322
vn -0.998523 0.000000 0.054322
vn -0.998523 0.000000 0.054322
vn 0.054322 0.000000 0.998523
vn 0.054322 0.000000 0.998523
vn 0.054322 0.000000 0.998523
vn 0.054322 0.000000 0.998523
vn 0.000000 1.000000 -0.000000
vn 0.000000 1.000000 -0.000000
vn 0.000000 1.000000 -0.000000
vn 0.000000 1.000000 0.000000
vn -0.054322 0.000000 -0.998523
vn -0.054322 0.000000 -0.998523
vn -0.054322 0.000000 -0.998523
vn -0.054322 0.000000 -0.998523
vn 0.000000 -1.000000 0.000000
vn 0.000000 -1.000000 0.000000
vn 0.000000 -1.000000 0.000000
vn 0.000000 -1.000000 0.000000
vn 0.998523 0.000000 -0.054322
vn 0.998523 0.000000 -0.054322
vn 0.998523 0.000000 -0.054322
vn 0.998523 0.000000 -0.054322
vn -0.998523 0.000000 0.054322
vn -0.998523 0.000000 0.054322
vn -0.998523 0.000000 0.054322
vn -0.998523 0.000000 0.054322
vn 0.054322 0.000000 0.998523
vn 0.054322 0.000000 0.998523
vn 0.054322 0.000000 0.998523
vn 0.054322 0.000000 0.998523
vn -0.054322 0.000000 -0.998523
vn -0.054322 0.000000 -0.998523
vn -0.054322 0.000000 -0.998523
vn -0.054322 0.000000 -0.998523
vn 0.998523 0.000000 -0.054322
vn 0.998523 0.000000 -0.054322
vn 0.998523 0.000000 -0.054322
vn 0.998523 0.000000 -0.054322
vn -0.998523 0.000000 0.054322
vn -0.998523 0.000000 0.054322
vn -0.998523 0.000000 0.054322
vn -0.998523 0.000000 0.054322
vn 0.000000 -1.000000 -0.000000
vn 0.000000 -1.000000 -0.000000
vn 0.000000 -1.000000 -0.000000
vn 0.000000 -1.000000 0.000000
vn 0.054322 0.000000 0.998523
vn 0.054322 0.000000 0.998523
vn 0.054322 0.000000 0.998523
vn 0.054322 0.000000 0.998523
vn 0.000000 1.000000 -0.000000
vn 0.000000 1.000000 -0.000000
vn 0.000000 1.000000 -0.000000
vn 0.000000 1.000000 0.000000
vn -0.054322 0.000000 -0.998523
vn -0.054322 0.000000 -0.998523
vn -0.054322 0.000000 -0.998523
vn -0.054322 0.000000 -0.998523
vn 0.000000 -1.000000 0.000000
vn 0.000000 -1.000000 0.000000
vn 0.000000 -1.000000 0.000000
vn 0.000000 -1.000000 0.000000
vn 0.998523 0.000000 -0.054322
vn 0.998523 0.000000 -0.054322
vn 0.998523 0.000000 -0.054322
vn 0.998523 0.000000 -0.054322
vn -0.998523 0.000000 0.054322
vn -0.998523 0.000000 0.054322
vn -0.998523 0.000000 0.054322
vn -0.998523 0.000000 0.054322
vn 0.054322 -0.000000 0.998523
vn 0.054322 -0.000000 0.998523
vn 0.054322 -0.000000 0.998524
vn 0.054321 -0.000000 0.998524
vn 0.998523 -0.000000 -0.054322
vn 0.998523 -0.000000 -0.054322
vn 0.998523 -0.000000 -0.054322
vn 0.998523 0.000000 -0.054322
vn -0.998523 0.000000 0.054322
vn -0.998523 0.000000 0.054322
vn -0.998523 0.000000 0.054322
vn -0.998523 0.000000 0.054322
vn 0.000000 -1.000000 0.000000
vn 0.000000 -1.000000 0.000000
vn 0.000000 -1.000000 0.000000
vn 0.000000 -1.000000 0.000000
vn 0.000000 1.000000 0.000000
vn 0.000000 1.000000 0.000000
vn 0.000000 1.000000 0.000000
vn 0.000000 1.000000 0.000000
vn 0.322104 0.234002 -0.917329
vn 0.325567 0.185257 -0.927193
vn 0.331302 0.000000 -0.943525
vn 0.331302 0.000000 -0.943525
vn -0.424230 0.185257 -0.886402
vn -0.419718 0.234002 -0.876972
vn -0.431703 0.000000 -0.902016
vn -0.431703 0.000000 -0.902016
vn -0.926727 0.185425 -0.326795
vn -0.904318 0.289774 -0.313433
vn -0.943081 0.000000 -0.332562
vn -0.943081 0.000000 -0.332562
vn -0.855971 0.313579 0.411073
vn -0.874907 0.240827 0.420167
vn -0.901438 0.000000 0.432908
vn -0.901438 0.000000 0.432908
vn -0.314616 0.313359 0.896004
vn -0.321569 0.240607 0.915806
vn -0.331302 0.000000 0.943525
vn -0.331302 0.000000 0.943525
vn 0.419021 0.240607 0.875517
vn 0.409960 0.313359 0.856585
vn 0.431704 0.000000 0.902016
vn 0.431704 0.000000 0.902016
vn 0.915325 0.240827 0.322774
vn 0.895514 0.313579 0.315789
vn 0.943081 0.000000 0.332562
vn 0.943081 0.000000 0.332562
vn 0.864978 0.289774 -0.409687
vn 0.885806 0.185425 -0.425401
vn 0.901438 0.000000 -0.432908
vn 0.901438 0.000000 -0.432908
vn -0.000000 -1.000000 0.000000
vn -0.000000 -1.000000 0.000000
vn -0.000000 -1.000000 -0.000000
vn 0.000000 -1.000000 0.000000
vn 0.000001 -1.000000 0.000000
vn 0.000000 -1.000000 -0.000000
vn -0.000000 -1.000000 -0.000000
vn -0.000000 -1.000000 -0.000000
vn -0.000001 -1.000000 0.000000
vn 0.341523 0.132011 -0.930556
vn 0.327270 0.155541 -0.932041
vn -0.443800 0.138695 -0.885328
vn -0.425233 0.172478 -0.888498
vn -0.885461 0.187187 -0.425347
vn -0.861843 0.237827 -0.447956
vn -0.865360 0.280077 0.415582
vn -0.850164 0.332452 0.408284
vn -0.318095 0.279529 0.905913
vn -0.312523 0.331894 0.890043
vn 0.414495 0.279529 0.866059
vn 0.407233 0.331894 0.850886
vn 0.905337 0.280076 0.319252
vn 0.889439 0.332452 0.313646
vn 0.836276 0.169301 -0.521517
vn 0.812960 0.222717 -0.538046
vn 0.342718 -0.363596 -0.866223
vn 0.356764 -0.189662 -0.914739
vn -0.449741 -0.177467 -0.875351
vn -0.471656 -0.177060 -0.863823
vn -0.865528 -0.208120 -0.455573
vn -0.825820 -0.253198 -0.503896
vn -0.878208 -0.225555 0.421752
vn -0.877268 -0.230013 0.421301
vn -0.324899 -0.195656 0.925289
vn -0.323532 -0.215311 0.921395
vn 0.421578 -0.215311 0.880859
vn 0.423360 -0.195656 0.884582
vn 0.917795 -0.230013 0.323645
vn 0.918779 -0.225555 0.323992
vn 0.819420 -0.093374 -0.565536
vn 0.809204 -0.129077 -0.573174
vn 0.246217 -0.773584 -0.583904
vn 0.246690 -0.832315 -0.496382
vn -0.405256 -0.661696 -0.630813
vn -0.395272 -0.569121 -0.721014
vn -0.571723 -0.750859 -0.330672
vn -0.814961 -0.503239 -0.287383
vn -0.577504 -0.767835 0.277341
vn -0.577504 -0.767836 0.277341
vn -0.224236 -0.736137 0.638608
vn -0.224236 -0.736137 0.638609
vn 0.292191 -0.736137 0.610514
vn 0.292191 -0.736137 0.610514
vn 0.604183 -0.767835 0.213055
vn 0.604182 -0.767835 0.213055
vn 0.711674 -0.566604 -0.415308
vn 0.574071 -0.812849 -0.098580
s 1
f 1/17/1 2/18/2 3/20/3
f 3/20/3 2/18/2 4/19/4
s 2
f 9/9/5 10/4/6 12/10/7
f 12/10/7 10/4/6 11/3/8
s 3
f 2/5/9 8/2/10 4/6/11
f 4/6/11 8/2/10 6/1/12
s 4
f 7/7/13 1/11/14 5/8/15
f 5/8/15 1/11/14 3/12/16
s 5
f 1/17/17 7/21/18 2/18/19
f 2/18/19 7/21/18 8/22/20
s 6
f 4/19/21 6/14/22 3/20/23
f 3/20/23 6/14/22 5/13/24
s 7
f 5/13/25 6/14/26 9/9/27
f 9/9/27 6/14/26 10/4/28
s 8
f 6/1/29 8/2/30 10/4/31
f 10/4/31 8/2/30 11/3/32
s 9
f 8/15/33 7/16/34 11/3/35
f 11/3/35 7/16/34 12/10/36
s 10
f 7/7/37 5/8/38 12/10/39
f 12/10/39 5/8/38 9/9/40
s 11
f 13/23/41 14/24/42 15/25/43
f 15/25/43 14/24/42 16/26/44
s 12
f 17/27/45 18/28/46 19/29/47
f 19/29/47 18/28/46 20/30/48
s 13
f 14/24/49 20/30/50 16/26/51
f 16/26/51 20/30/50 18/28/52
s 14
f 19/31/53 13/23/54 17/32/55
f 17/32/55 13/23/54 15/25/56
s 15
f 21/33/57 22/34/58 23/35/59
f 23/35/59 22/34/58 24/36/60
s 16
f 25/37/61 26/38/62 27/39/63
f 27/39/63 26/38/62 28/40/64
s 17
f 27/39/65 28/40/66 21/33/67
f 21/33/67 28/40/66 22/34/68
s 18
f 28/41/69 26/42/70 22/34/71
f 22/34/71 26/42/70 24/36/72
s 19
f 27/43/73 21/33/74 25/44/75
f 25/44/75 21/33/74 23/35/76
s 20
f 29/45/77 30/46/78 31/47/79
f 31/47/79 30/46/78 32/48/80
s 21
f 33/49/81 34/50/82 35/51/83
f 35/51/83 34/50/82 36/52/84
s 22
f 35/51/85 36/52/86 29/45/87
f 29/45/87 36/52/86 30/46/88
s 23
f 36/52/89 34/50/90 30/53/91
f 30/53/91 34/50/90 32/54/92
s 24
f 35/51/93 29/55/94 33/49/95
f 33/49/95 29/55/94 31/56/96
s 25
f 37/57/97 38/58/98 39/59/99
f 39/59/99 38/58/98 40/60/100
s 26
f 39/59/101 40/60/102 41/61/103
f 41/61/103 40/60/102 42/62/104
s 27
f 41/63/105 42/64/106 43/65/107
f 43/65/107 42/64/106 44/66/108
s 28
f 43/65/109 44/66/110 37/57/111
f 37/57/111 44/66/110 38/58/112
s 29
f 38/67/113 44/68/114 40/60/115
f 40/60/115 44/68/114 42/62/116
s 30
f 43/69/117 37/70/118 41/61/119
f 41/61/119 37/70/118 39/59/120
s 31
f 45/71/121 46/72/122 47/73/123
f 47/73/123 46/72/122 48/74/124
s 32
f 49/75/125 50/76/126 51/77/127
f 51/77/127 50/76/126 52/78/128
s 33
f 46/79/129 52/78/130 48/80/131
f 48/80/131 52/78/130 50/76/132
s 34
f 51/77/133 45/71/134 49/75/135
f 49/75/135 45/71/134 47/73/136
s 35
f 45/71/137 51/77/138 46/81/139
f 46/81/139 51/77/138 52/82/140
s 36
f 53/83/141 54/84/142 55/85/143
f 55/85/143 54/84/142 56/86/144
s 37
f 55/85/145 56/86/146 57/87/147
f 57/87/147 56/86/146 58/88/148
s 38
f 57/87/149 58/88/150 59/89/151
f 59/89/151 58/88/150 60/90/152
s 39
f 59/91/153 60/92/154 53/83/155
f 53/83/155 60/92/154 54/84/156
s 40
f 54/93/157 60/94/158 56/86/159
f 56/86/159 60/94/158 58/88/160
s 41
f 59/95/161 53/96/162 57/87/163
f 57/87/163 53/96/162 55/85/164
s 42
f 61/97/165 62/98/166 63/99/167
f 63/99/167 62/98/166 64/100/168
s 43
f 62/98/169 68/101/170 64/100/171
f 64/100/171 68/101/170 66/102/172
s 44
f 67/103/173 61/104/174 65/105/175
f 65/105/175 61/104/174 63/106/176
s 45
f 61/107/177 67/108/178 62/98/179
f 62/98/179 67/108/178 68/101/180
s 46
f 64/100/181 66/102/182 63/106/183
f 63/106/183 66/102/182 65/105/184
s 47
f 69/109/185 70/110/186 77/111/187
f 77/111/187 70/110/186 78/112/188
s 48
f 70/110/189 71/113/190 78/112/191
f 78/112/191 71/113/190 79/114/192
s 49
f 71/115/193 72/116/194 79/117/195
f 79/117/195 72/116/194 80/118/196
s 50
f 72/116/197 73/119/198 80/118/199
f 80/118/199 73/119/198 81/120/200
s 51
f 73/119/201 74/121/202 81/120/203
f 81/120/203 74/121/202 82/122/204
s 52
f 74/121/205 75/123/206 82/122/207
f 82/122/207 75/123/206 83/124/208
s 53
f 75/123/209 76/125/210 83/124/211
f 83/124/211 76/125/210 84/126/212
s 54
f 76/125/213 69/109/214 84/126/215
f 84/126/215 69/109/214 77/111/216
s 55
f 102/127/217 101/128/218 103/129/219
f 104/130/220 102/127/217 103/129/219
f 105/131/221 104/130/220 103/129/219
f 106/132/222 105/131/221 103/129/219
f 107/133/223 106/132/222 103/129/219
f 108/134/224 107/133/223 103/129/219
f 109/135/225 108/134/224 103/129/219
f 101/128/218 109/135/225 103/129/219
s 47
f 70/136/186 69/137/185 86/138/226
f 86/138/226 69/137/185 85/139/227
s 48
f 70/136/189 86/138/228 71/140/190
f 71/140/190 86/138/228 87/141/229
s 49
f 71/140/193 87/141/230 72/142/194
f 72/142/194 87/141/230 88/143/231
s 50
f 73/144/198 72/142/197 89/145/232
f 89/145/232 72/142/197 88/143/233
s 51
f 74/146/202 73/144/201 90/147/234
f 90/147/234 73/144/201 89/145/235
s 52
f 74/146/205 90/147/236 75/148/206
f 75/148/206 90/147/236 91/149/237
s 53
f 75/148/209 91/149/238 76/150/210
f 76/150/210 91/149/238 92/151/239
s 54
f 69/137/214 76/150/213 85/139/240
f 85/139/240 76/150/213 92/151/241
s 47
f 85/152/227 93/153/242 86/154/226
f 86/154/226 93/153/242 94/155/243
s 48
f 87/156/229 86/154/228 95/157/244
f 95/157/244 86/154/228 94/155/245
s 49
f 87/158/230 95/159/246 88/160/231
f 88/160/231 95/159/246 96/161/247
s 50
f 89/162/232 88/160/233 97/163/248
f 97/163/248 88/160/233 96/161/249
s 51
f 90/164/234 89/162/235 98/165/250
f 98/165/250 89/162/235 97/163/251
s 52
f 91/166/237 90/164/236 99/167/252
f 99/167/252 90/164/236 98/165/253
s 53
f 92/168/239 91/166/238 100/169/254
f 100/169/254 91/166/238 99/167/255
s 54
f 85/152/240 92/168/241 93/153/256
f 93/153/256 92/168/241 100/169/257
s 47
f 94/170/243 93/171/242 102/127/258
f 102/127/258 93/171/242 101/128/259
s 48
f 94/170/245 102/127/260 95/172/244
f 95/172/244 102/127/260 104/130/261
s 49
f 96/173/247 95/172/246 105/131/262
f 105/131/262 95/172/246 104/130/263
s 50
f 96/173/249 105/131/264 97/174/248
f 97/174/248 105/131/264 106/132/265
s 51
f 97/174/251 106/132/266 98/175/250
f 98/175/250 106/132/266 107/133/267
s 52
f 99/176/252 98/175/253 108/134/268
f 108/134/268 98/175/253 107/133/269
s 53
f 100/177/254 99/176/255 109/135/270
f 109/135/270 99/176/255 108/134/271
s 54
f 93/171/256 100/177/257 101/128/272
f 101/128/272 100/177/257 109/135/273
