# This file uses meters as units for non-parametric coordinates.

g Reception2
v -0.463931 0.000000 2.221168
v 0.296085 0.000000 1.929756
v 0.857871 0.000000 1.119850
v 1.070898 0.000000 0.008465
v 0.878085 0.000000 -1.106604
v 0.331096 0.000000 -1.926576
v -0.423503 0.000000 -2.231740
v -0.463931 0.655226 2.221168
v 0.296085 0.655226 1.929756
v 0.857871 0.655226 1.119850
v 1.070898 0.655226 0.008465
v 0.878085 0.655226 -1.106604
v 0.331096 0.655226 -1.926576
v -0.423503 0.655226 -2.231740
v 0.138506 0.000000 0.000000
v -0.443717 0.655226 -0.005286
v -0.428417 0.000000 -1.690513
v -0.428417 0.655226 -1.690513
v 0.095159 0.655226 -1.341528
v 0.488672 0.655226 -0.782148
v 0.571543 0.655226 0.003932
v 0.417800 0.655226 0.739438
v 0.043019 0.655226 1.267832
v -0.457744 0.655226 1.539700
v -0.458035 0.000000 1.571816
v -0.463931 0.969855 2.221168
v 0.296085 0.969855 1.929756
v 0.043019 0.969855 1.267832
v -0.457744 0.969855 1.539700
v 0.857871 0.969855 1.119850
v 0.417800 0.969855 0.739438
v 1.070898 0.969855 0.008465
v 0.571543 0.969855 0.003932
v 0.878085 0.969855 -1.106604
v 0.488672 0.969855 -0.782148
v 0.331096 0.969855 -1.926576
v 0.095159 0.969855 -1.341528
v -0.423503 0.969855 -2.231740
v -0.428417 0.969855 -1.690513
v -0.625043 0.000000 -1.692299
v -0.620129 0.000000 -2.233525
v -0.625043 0.655226 -1.692299
v -0.620129 0.655226 -2.233525
v -0.625043 0.969855 -1.692299
v -0.620129 0.969855 -2.233525
v -0.654370 0.655226 1.537915
v -0.654662 0.000000 1.570031
v -0.660557 0.000000 2.219383
v -0.660557 0.655226 2.219383
v -0.660557 0.969855 2.219383
v -0.654370 0.969855 1.537915
v 0.878085 0.912411 -1.106604
v 1.070898 0.912411 0.008465
v 0.857871 0.912411 1.119850
v 0.296085 0.912411 1.929756
v -0.463931 0.912411 2.221168
v -0.660557 0.912411 2.219383
v -0.654370 0.912411 1.537915
v -0.457744 0.912411 1.539700
v 0.043019 0.912411 1.267832
v 0.417800 0.912411 0.739438
v 0.571543 0.912411 0.003932
v 0.488672 0.912411 -0.782148
v 0.095159 0.912411 -1.341528
v -0.428417 0.912411 -1.690513
v -0.625043 0.912411 -1.692299
v -0.620129 0.912411 -2.233525
v -0.423503 0.912411 -2.231740
v 0.331096 0.912411 -1.926576
v 1.035152 0.912411 -1.169295
v 1.240950 0.912411 0.010009
v 1.035152 0.969855 -1.169295
v 1.240950 0.969855 0.010009
v 1.013774 0.912411 1.185382
v 1.013774 0.969855 1.185382
v 0.398046 0.912411 2.059718
v 0.398046 0.969855 2.059718
v -0.433772 0.912411 2.388297
v -0.433772 0.969855 2.388297
v -0.662126 0.912411 2.392237
v -0.662126 0.969855 2.392237
v -0.390315 0.912411 -2.398294
v -0.390315 0.969855 -2.398294
v -0.618560 0.912411 -2.406379
v -0.618560 0.969855 -2.406379
v 0.435400 0.912411 -2.054667
v 0.435400 0.969855 -2.054667
v -0.792883 0.912411 2.218182
v -0.786696 0.912411 1.536713
v -0.792883 0.969855 2.218182
v -0.786696 0.969855 1.536713
v -0.794453 0.912411 2.391036
v -0.794453 0.969855 2.391036
v -0.757370 0.912411 -1.693500
v -0.752456 0.912411 -2.234727
v -0.757370 0.969855 -1.693500
v -0.752456 0.969855 -2.234727
v -0.750887 0.969855 -2.407581
v -0.750887 0.912411 -2.407581
v 0.206719 0.655226 1.452372
v -0.398477 0.655226 1.777603
v -0.398477 0.912411 1.777603
v 0.206719 0.912411 1.452372
v 0.645030 0.655226 0.838604
v 0.645030 0.912411 0.838604
v 0.821417 0.655226 0.016564
v 0.821417 0.912411 0.016564
v 0.718166 0.655226 -0.868281
v 0.718166 0.912411 -0.868281
v 0.268955 0.655226 -1.519750
v 0.268955 0.912411 -1.519750
v -0.357037 0.655226 -1.922499
v -0.357037 0.912411 -1.922499
v -0.622744 0.912411 -1.945539
v -0.622744 0.655226 -1.945539
v -0.656669 0.655226 1.791155
v -0.656669 0.912411 1.791155
v -0.443717 0.501622 -0.005286
v -0.428417 0.501622 -1.690513
v -0.625043 0.501622 -1.692299
v -0.620129 0.501622 -2.233525
v -0.423503 0.501622 -2.231740
v 0.331096 0.501622 -1.926576
v 0.878085 0.501622 -1.106604
v 1.070898 0.501622 0.008465
v 0.857871 0.501622 1.119850
v 0.296085 0.501622 1.929756
v -0.463931 0.501622 2.221168
v -0.660557 0.501622 2.219383
v -0.654438 0.501622 1.545444
v -0.457812 0.501622 1.547229
v 0.083685 0.000000 -1.685864
v 0.068385 0.501622 -0.000637
v 0.083685 0.501622 -1.685864
v 0.054067 0.000000 1.576466
v 0.054290 0.501622 1.551878
vn 0.230272 -0.607026 0.760588
vn 0.607115 -0.316967 0.728659
vn 0.289766 0.000000 0.957098
vn 0.640121 0.000000 0.768274
vn 0.424649 -0.889014 0.171251
vn 0.927425 0.000000 0.374010
vn 0.519323 -0.854565 0.004715
vn 0.999959 0.000000 0.009079
vn 0.427688 -0.889014 -0.163513
vn 0.934063 0.000000 -0.357109
vn 0.449619 -0.726158 -0.520132
vn 0.653965 0.000000 -0.756525
vn 0.260778 -0.528112 -0.808142
vn 0.307095 0.000000 -0.951679
vn 0.000000 -1.000000 0.000000
vn 0.000000 -1.000000 0.000000
vn 0.000000 -1.000000 0.000000
vn -0.000000 -1.000000 -0.000000
vn -0.000000 -1.000000 -0.000000
vn -0.000000 -1.000000 -0.000000
vn 0.000000 1.000000 0.000000
vn -0.000000 1.000000 -0.000000
vn 0.000000 1.000000 0.000000
vn -0.000000 1.000000 -0.000000
vn -0.000000 1.000000 -0.000000
vn 0.000000 1.000000 0.000000
vn 0.000000 1.000000 0.000000
vn 0.000000 1.000000 0.000000
vn -0.000000 1.000000 -0.000000
vn 0.000000 1.000000 0.000000
vn -0.000000 1.000000 -0.000000
vn -0.000000 1.000000 -0.000000
vn -0.000000 1.000000 -0.000000
vn -0.000000 1.000000 -0.000000
vn -0.878995 -0.345718 -0.328400
vn -0.930985 -0.364958 -0.008452
vn -0.936757 0.000000 -0.349980
vn -0.997122 0.000000 0.075811
vn -0.999959 0.000000 -0.009079
vn -0.937278 -0.348478 -0.008509
vn -0.961268 0.000000 0.275615
vn -0.898521 -0.351267 0.263194
vn -0.992068 -0.125435 0.008151
vn -0.992071 -0.125388 0.008543
vn -0.999662 -0.025946 -0.001353
vn -0.999959 0.000000 -0.009079
vn 0.000000 1.000000 0.000000
vn -0.000000 1.000000 -0.000000
vn -0.000000 1.000000 -0.000000
vn 0.000000 1.000000 0.000000
vn -0.000000 1.000000 -0.000000
vn -0.000000 1.000000 -0.000000
vn -0.000000 1.000000 -0.000000
vn 0.000000 1.000000 0.000000
vn -0.998566 -0.002177 -0.053485
vn -0.998581 -0.028553 -0.044961
vn 0.289766 0.000000 0.957098
vn 0.640121 0.000000 0.768274
vn 0.289766 0.000000 0.957098
vn 0.640122 0.000000 0.768274
vn -0.529913 0.610245 -0.588891
vn -0.284540 0.627053 -0.725149
vn -0.668903 0.000000 -0.743350
vn -0.365274 0.000000 -0.930900
vn 0.927425 0.000000 0.374010
vn 0.927425 0.000000 0.374009
vn -0.719294 0.622726 -0.307944
vn -0.919295 0.000000 -0.393569
vn 0.999959 0.000000 0.009079
vn 0.999959 0.000000 0.009078
vn -0.783359 0.620662 -0.033565
vn -0.999083 0.000000 -0.042809
vn 0.934063 0.000000 -0.357109
vn 0.934063 0.000000 -0.357109
vn -0.732953 0.627144 0.263572
vn -0.941007 0.000000 0.338388
vn 0.653965 0.000000 -0.756525
vn 0.653965 -0.000000 -0.756525
vn -0.560887 0.598466 0.572052
vn -0.700104 0.000000 0.714041
vn 0.307095 -0.000000 -0.951679
vn 0.307095 -0.000000 -0.951679
vn -0.339616 0.615474 0.711233
vn -0.430899 0.000000 0.902400
vn -0.009078 0.000000 0.999959
vn -0.009080 0.000000 0.999959
vn -0.009079 0.000000 0.999959
vn -0.009080 0.000000 0.999959
vn -0.067641 0.622070 0.780034
vn -0.086391 0.000000 0.996261
vn -0.000000 1.000000 -0.000000
vn -0.000000 1.000000 -0.000000
vn 0.000000 1.000000 0.000000
vn -0.820711 0.000000 -0.571343
vn -0.885273 0.000000 -0.465073
vn 0.009066 -0.048959 -0.998760
vn 0.009066 -0.048959 -0.998760
vn 0.009066 -0.048959 -0.998760
vn 0.009068 -0.048959 -0.998760
vn 0.009068 -0.048959 -0.998760
vn 0.009068 -0.048959 -0.998760
vn -0.938648 0.000000 0.344877
vn -0.912530 0.000000 0.409009
vn 0.000000 1.000000 0.000000
vn 0.000000 1.000000 0.000000
vn 0.000000 1.000000 0.000000
vn -0.052417 0.000000 -0.998625
vn -0.040521 0.634365 -0.771971
vn 0.999959 0.000000 0.009078
vn 0.931605 0.000000 -0.363473
vn 0.999959 0.000000 0.009078
vn 0.931605 0.000000 -0.363473
vn 0.924852 0.000000 0.380328
vn 0.924852 0.000000 0.380328
vn 0.817607 0.000000 0.575777
vn 0.817607 0.000000 0.575777
vn 0.367388 0.000000 0.930068
vn 0.367388 0.000000 0.930068
vn 0.367388 0.000000 0.930068
vn 0.367388 0.000000 0.930068
vn 0.007594 0.000000 0.999971
vn 0.017251 0.000000 0.999851
vn 0.007594 0.000000 0.999971
vn 0.017251 0.000000 0.999851
vn -0.999959 0.000000 -0.009078
vn -0.999959 0.000000 -0.009079
vn -0.999959 0.000000 -0.009079
vn -0.999959 0.000000 -0.009079
vn 0.009079 0.000000 -0.999959
vn 0.009079 0.000000 -0.999959
vn 0.009078 0.000000 -0.999959
vn 0.009079 0.000000 -0.999959
vn -0.674661 0.000000 -0.738128
vn -0.477126 0.000000 -0.878835
vn -0.674661 0.000000 -0.738128
vn -0.477126 0.000000 -0.878835
vn -0.922584 0.000000 -0.385796
vn -0.922584 0.000000 -0.385796
vn -0.998917 0.000000 -0.046527
vn -0.998917 0.000000 -0.046527
vn -0.942656 0.000000 0.333765
vn -0.942656 0.000000 0.333765
vn -0.703719 0.000000 0.710478
vn -0.703719 0.000000 0.710478
vn -0.554628 0.000000 0.832099
vn -0.554628 0.000000 0.832099
vn -0.009078 0.000000 0.999959
vn -0.009080 0.000000 0.999959
vn -0.009078 0.000000 0.999959
vn -0.009080 0.000000 0.999959
vn -0.999959 0.000000 -0.009079
vn -0.999959 0.000000 -0.009079
vn -0.999959 0.000000 -0.009079
vn -0.999959 0.000000 -0.009079
vn 0.035402 0.000000 -0.999373
vn 0.035403 0.000000 -0.999373
vn 0.025748 0.000000 -0.999668
vn 0.025748 0.000000 -0.999668
vn 0.384214 0.000000 -0.923244
vn 0.384215 0.000000 -0.923244
vn 0.384214 0.000000 -0.923244
vn 0.384215 0.000000 -0.923244
vn 0.827925 0.000000 -0.560839
vn 0.827925 0.000000 -0.560839
vn -0.000000 -1.000000 -0.000000
vn 0.000000 -1.000000 0.000000
vn -0.000000 -1.000000 -0.000000
vn 0.000000 -1.000000 0.000000
vn 0.000000 1.000000 0.000000
vn -0.000000 1.000000 -0.000000
vn 0.000000 -1.000000 0.000000
vn 0.000000 -1.000000 0.000000
vn -0.000000 1.000000 -0.000000
vn 0.000000 -1.000000 0.000000
vn 0.000000 -1.000000 0.000000
vn -0.000000 1.000000 -0.000000
vn 0.000000 -1.000000 0.000000
vn 0.000000 -1.000000 0.000000
vn 0.000000 1.000000 0.000000
vn -0.000000 -1.000000 -0.000000
vn 0.000000 -1.000000 0.000000
vn -0.000000 1.000000 -0.000000
vn -0.999959 0.000000 -0.009079
vn -0.999959 0.000000 -0.009078
vn 0.000000 -1.000000 0.000000
vn 0.000000 -1.000000 0.000000
vn 0.000000 -1.000000 0.000000
vn -0.000000 -1.000000 -0.000000
vn -0.999959 0.000000 -0.009079
vn -0.999959 0.000000 -0.009079
vn -0.000000 1.000000 -0.000000
vn 0.000000 1.000000 0.000000
vn 0.000000 -1.000000 0.000000
vn 0.000000 -1.000000 0.000000
vn -0.000000 1.000000 -0.000000
vn 0.000000 -1.000000 0.000000
vn 0.000000 -1.000000 0.000000
vn -0.000000 -1.000000 -0.000000
vn -0.000000 1.000000 -0.000000
vn 0.000000 1.000000 0.000000
vn 0.009080 0.000000 -0.999959
vn 0.009080 0.000000 -0.999959
vn -0.000000 -1.000000 -0.000000
vn -0.009078 0.000000 0.999959
vn -0.009078 0.000000 0.999959
vn -0.000000 1.000000 -0.000000
vn -0.000000 -1.000000 -0.000000
vn 0.000000 -1.000000 0.000000
vn -0.000000 -1.000000 -0.000000
vn -0.009078 0.000000 0.999959
vn -0.009078 0.000000 0.999959
vn -0.000000 1.000000 -0.000000
vn -0.000000 1.000000 -0.000000
vn -0.000000 1.000000 -0.000000
vn 0.009078 0.000000 -0.999959
vn 0.009078 0.000000 -0.999959
vn -0.000000 -1.000000 -0.000000
vn 0.000000 -1.000000 0.000000
vn 0.000000 -1.000000 0.000000
vn -0.000000 -1.000000 -0.000000
vn -0.000000 -1.000000 -0.000000
vn -0.000000 -1.000000 -0.000000
vn -0.000000 -1.000000 -0.000000
vn 0.000000 -1.000000 0.000000
vn 0.000000 -1.000000 0.000000
vn -0.000000 -1.000000 -0.000000
vn -0.000000 -1.000000 -0.000000
vn 0.000000 -1.000000 0.000000
vn 0.000000 -1.000000 0.000000
vn -0.000000 -1.000000 -0.000000
vn -0.000000 -1.000000 -0.000000
vn 0.000000 -1.000000 0.000000
vn 0.000000 -1.000000 0.000000
vn -0.000000 1.000000 -0.000000
vn 0.000000 1.000000 0.000000
vn 0.000000 -1.000000 0.000000
vn 0.000000 -1.000000 0.000000
vn -0.999959 0.000000 -0.009079
vn -0.999959 0.000000 -0.009079
vn -0.999959 0.000000 -0.009079
vn -0.999959 0.000000 -0.009079
vn -0.999959 0.000000 -0.009079
vn -0.999959 0.000000 -0.009079
vn -0.999959 0.000000 -0.009079
vn -0.999959 0.000000 -0.009079
vn -0.999959 0.000000 -0.009079
vn -0.999959 0.000000 -0.009079
vn -0.009079 0.000000 0.999959
vn -0.942957 0.000000 0.332914
vn -0.009079 0.000000 0.999959
vn -0.999959 0.000000 -0.009079
vn 0.009067 -0.048959 -0.998760
vn 0.009067 -0.048959 -0.998760
vn 0.009067 -0.048959 -0.998760
vn 0.009068 -0.048960 -0.998760
vn 0.009068 -0.048960 -0.998760
vn 0.009068 -0.048960 -0.998760
vn -0.999959 0.000000 -0.009079
vn -0.999959 0.000000 -0.009079
vn -0.999959 0.000000 -0.009079
vn -0.999959 0.000000 -0.009078
vn -0.999959 0.000000 -0.009078
vn -0.999959 0.000000 -0.009079
vn 0.000000 -1.000000 0.000000
vn 0.000000 -1.000000 0.000000
vn 0.000000 -1.000000 0.000000
vn -0.000000 -1.000000 -0.000000
vn -0.000000 -1.000000 -0.000000
vn -0.000000 -1.000000 -0.000000
vn -0.009078 0.000000 0.999959
vn -0.009078 0.000000 0.999959
vn -0.009078 0.000000 0.999959
vn -0.009078 0.000000 0.999959
vn -0.009078 0.000000 0.999959
vn -0.009078 0.000000 0.999959
vn 0.009068 -0.048959 -0.998760
vn 0.009068 -0.048959 -0.998760
vn 0.009068 -0.048959 -0.998760
vn 0.009067 -0.048959 -0.998760
vn 0.009067 -0.048959 -0.998760
vn 0.009067 -0.048959 -0.998760
vn 0.000000 -1.000000 0.000000
vn 0.000000 -1.000000 0.000000
vn 0.000000 -1.000000 0.000000
vn -0.000000 -1.000000 -0.000000
vn -0.000000 -1.000000 -0.000000
vn -0.000000 -1.000000 -0.000000
vn -0.000000 -1.000000 -0.000000
vn 0.000000 -1.000000 0.000000
s 1
f 1//1 2//2 128//3
f 128//3 2//2 127//4
f 2//2 3//5 127//4
f 127//4 3//5 126//6
f 3//5 4//7 126//6
f 126//6 4//7 125//8
f 4//7 5//9 125//8
f 125//8 5//9 124//10
f 5//9 6//11 124//10
f 124//10 6//11 123//12
f 6//11 7//13 123//12
f 123//12 7//13 122//14
f 2//2 1//1 135//15
f 135//15 1//1 25//16
f 3//5 2//17 15//18
f 4//7 3//5 15//18
f 5//9 4//7 15//18
f 6//11 5//9 15//18
f 6//11 132//19 7//13
f 7//13 132//19 17//20
s 3
f 26//21 27//22 29//23
f 29//23 27//22 28//24
f 27//22 30//25 28//24
f 28//24 30//25 31//26
f 30//25 32//27 31//26
f 31//26 32//27 33//28
f 34//29 35//30 32//27
f 32//27 35//30 33//28
f 36//31 37//32 34//29
f 34//29 37//32 35//30
f 38//33 39//34 36//31
f 36//31 39//34 37//32
s 1
f 41//35 40//36 121//37
f 121//37 40//36 120//38
f 130//39 47//40 129//41
f 129//41 47//40 48//42
s 8
f 15//43 133//44 132//45
f 132//45 133//44 134//46
s 9
f 19//47 18//48 16//49
f 20//50 19//47 16//49
f 21//51 20//50 16//49
f 22//52 21//51 16//49
f 23//53 22//52 16//49
f 24//54 23//53 16//49
s 8
f 135//55 136//56 15//43
f 15//43 136//56 133//44
s 1
f 8//57 9//58 56//59
f 56//59 9//58 55//60
s 9
f 100//61 101//62 103//63
f 103//63 101//62 102//64
s 1
f 9//58 10//65 55//60
f 55//60 10//65 54//66
s 9
f 104//67 100//61 105//68
f 105//68 100//61 103//63
s 1
f 10//65 11//69 54//66
f 54//66 11//69 53//70
s 9
f 106//71 104//67 107//72
f 107//72 104//67 105//68
s 1
f 11//69 12//73 53//70
f 53//70 12//73 52//74
s 9
f 108//75 106//71 109//76
f 109//76 106//71 107//72
s 1
f 12//73 13//77 52//74
f 52//74 13//77 69//78
s 9
f 110//79 108//75 111//80
f 111//80 108//75 109//76
s 1
f 13//77 14//81 69//78
f 69//78 14//81 68//82
s 9
f 112//83 110//79 113//84
f 113//84 110//79 111//80
s 1
f 7//13 17//20 41//35
f 41//35 17//20 40//36
s 17
f 17//85 119//86 40//87
f 40//87 119//86 120//88
s 1
f 122//14 7//13 121//37
f 121//37 7//13 41//35
s 9
f 112//83 113//84 115//89
f 115//89 113//84 114//90
s 3
f 39//91 38//33 44//92
f 44//92 38//33 45//93
s 1
f 68//82 14//81 67//94
f 67//94 14//81 43//95
s off
f 131//96 25//97 130//98
f 130//99 25//100 47//101
s 1
f 25//16 1//1 47//40
f 47//40 1//1 48//42
f 1//1 128//3 48//42
f 48//42 128//3 129//41
f 8//57 56//59 49//102
f 49//102 56//59 57//103
s 3
f 26//21 29//104 50//105
f 50//105 29//104 51//106
s 9
f 102//64 101//62 117//107
f 117//107 101//62 116//108
s 20
f 71//109 70//110 73//111
f 73//111 70//110 72//112
f 74//113 71//109 75//114
f 75//114 71//109 73//111
f 76//115 74//113 77//116
f 77//116 74//113 75//114
s 21
f 78//117 76//118 79//119
f 79//119 76//118 77//120
s 22
f 80//121 78//122 81//123
f 81//123 78//122 79//124
s 23
f 89//125 88//126 91//127
f 91//127 88//126 90//128
s 24
f 29//129 59//130 51//131
f 51//131 59//130 58//132
s 25
f 60//133 59//134 28//135
f 28//135 59//134 29//136
f 61//137 60//133 31//138
f 31//138 60//133 28//135
f 62//139 61//137 33//140
f 33//140 61//137 31//138
f 63//141 62//139 35//142
f 35//142 62//139 33//140
f 64//143 63//141 37//144
f 37//144 63//141 35//142
f 65//145 64//143 39//146
f 39//146 64//143 37//144
s 26
f 66//147 65//148 44//149
f 44//149 65//148 39//150
s 27
f 95//151 94//152 97//153
f 97//153 94//152 96//154
s 28
f 83//155 82//156 85//157
f 85//157 82//156 84//158
s 29
f 86//159 82//160 87//161
f 87//161 82//160 83//162
s 20
f 70//110 86//163 72//112
f 72//112 86//163 87//164
s 30
f 53//165 52//166 71//167
f 71//167 52//166 70//168
s 3
f 32//27 73//169 34//29
f 34//29 73//169 72//170
s 30
f 53//165 71//167 54//171
f 54//171 71//167 74//172
s 3
f 32//27 30//25 73//169
f 73//169 30//25 75//173
s 30
f 54//171 74//172 55//174
f 55//174 74//172 76//175
s 3
f 30//25 27//22 75//173
f 75//173 27//22 77//176
s 30
f 56//177 55//174 78//178
f 78//178 55//174 76//175
s 3
f 26//21 79//179 27//22
f 27//22 79//179 77//176
s 30
f 57//180 56//177 80//181
f 80//181 56//177 78//178
s 3
f 50//105 81//182 26//21
f 26//21 81//182 79//179
s 23
f 90//128 88//126 93//183
f 93//183 88//126 92//184
s 30
f 67//185 84//186 68//187
f 68//187 84//186 82//188
s 27
f 95//151 97//153 99//189
f 99//189 97//153 98//190
s 3
f 45//93 38//33 85//191
f 85//191 38//33 83//192
s 30
f 68//187 82//188 69//193
f 69//193 82//188 86//194
s 3
f 38//33 36//31 83//192
f 83//192 36//31 87//195
s 30
f 52//166 69//193 70//168
f 70//168 69//193 86//194
s 3
f 34//29 72//170 36//31
f 36//31 72//170 87//195
s 30
f 58//196 57//180 89//197
f 89//197 57//180 88//198
s 3
f 50//105 51//106 90//199
f 90//199 51//106 91//200
s 24
f 51//131 58//132 91//201
f 91//201 58//132 89//202
s 30
f 57//180 80//181 88//198
f 88//198 80//181 92//203
s 22
f 80//121 81//123 92//204
f 92//204 81//123 93//205
s 3
f 81//182 50//105 93//206
f 93//206 50//105 90//199
s 30
f 67//185 66//207 95//208
f 95//208 66//207 94//209
s 26
f 66//147 44//149 94//210
f 94//210 44//149 96//211
s 3
f 44//92 45//93 96//212
f 96//212 45//93 97//213
f 45//93 85//191 97//213
f 97//213 85//191 98//214
s 28
f 85//157 84//158 98//215
f 98//215 84//158 99//216
s 30
f 84//186 67//185 99//217
f 99//217 67//185 95//208
s 9
f 23//53 24//54 100//61
f 100//61 24//54 101//62
s 34
f 60//218 103//219 59//220
f 59//220 103//219 102//221
s 9
f 22//52 23//53 104//67
f 104//67 23//53 100//61
s 34
f 61//222 105//223 60//218
f 60//218 105//223 103//219
s 9
f 21//51 22//52 106//71
f 106//71 22//52 104//67
s 34
f 62//224 107//225 61//222
f 61//222 107//225 105//223
s 9
f 21//51 106//71 20//50
f 20//50 106//71 108//75
s 34
f 62//224 63//226 107//225
f 107//225 63//226 109//227
s 9
f 19//47 20//50 110//79
f 110//79 20//50 108//75
s 34
f 64//228 111//229 63//226
f 63//226 111//229 109//227
s 9
f 19//47 110//79 18//48
f 18//48 110//79 112//83
s 34
f 64//228 65//230 111//229
f 111//229 65//230 113//231
f 66//232 114//233 65//230
f 65//230 114//233 113//231
s 9
f 42//234 18//48 115//89
f 115//89 18//48 112//83
f 46//235 116//108 24//54
f 24//54 116//108 101//62
s 34
f 58//236 59//220 117//237
f 117//237 59//220 102//221
s 1
f 67//94 43//95 114//238
f 114//238 43//95 115//239
f 49//102 57//103 116//240
f 116//240 57//103 117//241
s off
f 119//242 118//243 18//244
f 18//245 118//246 16//247
s 1
f 120//38 119//248 42//249
f 42//249 119//248 18//250
f 121//37 120//38 43//95
f 43//95 120//38 42//249
f 14//81 122//14 43//95
f 43//95 122//14 121//37
f 123//12 122//14 13//77
f 13//77 122//14 14//81
f 124//10 123//12 12//73
f 12//73 123//12 13//77
f 125//8 124//10 11//69
f 11//69 124//10 12//73
f 126//6 125//8 10//65
f 10//65 125//8 11//69
f 127//4 126//6 9//58
f 9//58 126//6 10//65
f 128//3 127//4 8//57
f 8//57 127//4 9//58
f 129//41 128//3 49//102
f 49//102 128//3 8//57
f 46//251 130//39 49//102
f 49//102 130//39 129//41
s off
f 24//252 131//253 46//254
f 46//255 131//256 130//257
f 131//258 24//259 118//260
f 118//261 24//262 16//263
f 118//264 119//265 133//266
f 133//267 119//268 134//269
f 119//270 17//271 134//272
f 134//273 17//274 132//275
f 25//276 131//277 135//278
f 135//279 131//280 136//281
f 131//282 118//283 136//284
f 136//285 118//286 133//287
s 1
f 132//288 6//11 15//18
f 2//17 135//289 15//18
