# This file uses meters as units for non-parametric coordinates.

mtllib Recption1FIXEDSIZE.mtl
g Recption1FIXEDSIZE
v -2.130398 -0.008733 0.452156
v -0.225415 -0.008733 0.435934
v -2.130398 0.778570 0.452156
v -0.225415 0.778570 0.435934
v -2.130398 0.778570 -0.452156
v -0.465467 0.778570 -0.435934
v -2.130398 -0.008733 -0.452156
v -0.465467 -0.008733 -0.435934
v 0.003670 -0.008733 -0.815904
v 0.826005 -0.008733 -0.439680
v 0.003670 0.778570 -0.815904
v 0.826005 0.778570 -0.439680
v 0.016367 -0.002602 -2.687033
v 0.919658 -0.002602 -2.729981
v 0.016367 0.784701 -2.687033
v 0.919658 0.784701 -2.729981
v -0.330334 0.778570 0.177474
v -2.130398 0.778570 0.179516
v -2.130398 -0.008733 0.056911
v -0.330334 -0.008733 0.054869
v 0.466590 -0.008733 -0.604115
v 0.524860 -0.002602 -2.711210
v 0.634440 0.784701 -2.711210
v 0.576170 0.778570 -0.604115
v -2.130398 1.171022 0.452156
v -0.225415 1.171022 0.435934
v -0.330334 1.171022 0.177474
v -2.130398 1.171022 0.179516
v 0.578930 1.170482 -0.618406
v 0.828765 1.170482 -0.453971
v 0.925178 1.176072 -2.758562
v 0.639960 1.176072 -2.739791
v -2.152125 1.251044 0.452156
v -0.247129 1.251044 0.435923
v -0.352048 1.251044 0.177463
v -2.152125 1.251044 0.179516
v 0.558004 1.250391 -0.621312
v 0.807839 1.250391 -0.456877
v 0.905028 1.255869 -2.764354
v 0.619810 1.255869 -2.745583
v -0.383797 1.170178 0.035611
v -2.130582 1.171011 0.017569
v -2.152309 1.251033 0.017569
v -0.405511 1.250199 0.035601
v 0.444629 1.170715 -0.681719
v 0.423703 1.250625 -0.684625
v 0.478100 1.178218 -2.744638
v 0.457950 1.258015 -2.750430
v -2.252535 1.171027 0.522358
v -0.179500 1.171774 0.559752
v -0.201214 1.251796 0.559741
v -2.274262 1.251048 0.522358
v -2.270808 1.171022 0.179596
v -2.292535 1.251044 0.179596
v 0.944218 1.170348 -0.397350
v 0.923292 1.250258 -0.400256
v 0.990715 1.170211 -2.867322
v 0.970565 1.250007 -2.873113
v 0.637389 1.165971 -2.879657
v 0.617239 1.245767 -2.885449
v -2.292719 1.251033 0.017729
v -2.270992 1.171011 0.017729
v 0.482156 1.167978 -2.884616
v 0.462006 1.247774 -2.890408
v 0.919658 0.526440 -2.729981
v 0.826005 0.520309 -0.439680
v -0.225415 0.520309 0.435934
v -2.130398 0.520309 0.452156
v -2.130398 0.520309 0.139297
v -2.130398 0.520309 -0.452156
v -0.465467 0.520309 -0.435934
v 0.003670 0.520309 -0.815904
v 0.016367 0.526440 -2.687033
v 0.598494 0.526440 -2.711210
v 0.940857 0.520309 -0.382974
v 0.940857 0.778570 -0.382974
v 0.985340 0.526742 -2.856313
v 0.985340 0.785002 -2.856313
v -0.179978 0.520309 0.559845
v -0.179978 0.778570 0.559845
v -2.259618 0.520309 0.522223
v -2.259618 0.778570 0.522223
v -2.270537 0.520309 0.139297
v -2.270537 0.778570 0.179516
v -2.270537 0.520309 -0.452156
v -2.270537 0.778570 -0.452156
v 0.591344 0.526938 -2.851158
v 0.627290 0.785199 -2.851158
v 0.010726 0.526833 -2.827059
v 0.010726 0.785094 -2.827059
vt 0.262550 0.793165
vt 0.301761 0.792551
vt 0.271546 0.845520
vt 0.302583 0.845034
vt 0.212872 0.846439
vt 0.212049 0.793956
vt 0.213651 0.934731
vt 0.240701 0.934600
vt 0.213839 0.973668
vt 0.240890 0.973537
vt 0.161458 0.479287
vt 0.127562 0.476240
vt 0.162166 0.471378
vt 0.128268 0.468333
vt 0.185234 0.471486
vt 0.178221 0.471975
vt 0.143374 0.267340
vt 0.170035 0.279299
vt 0.135654 0.456481
vt 0.162686 0.457457
vt 0.131966 0.262669
vt 0.183204 0.284794
vt 0.178743 0.458052
vt 0.210766 0.743465
vt 0.019086 0.748212
vt 0.209766 0.704263
vt 0.019086 0.796551
vt 0.019086 0.710681
vt 0.019086 0.935593
vt 0.019086 0.874654
vt 0.213276 0.872060
vt 0.206219 0.280644
vt 0.202726 0.458928
vt 0.192055 0.285937
vt 0.186717 0.457215
vt 0.132717 0.489218
vt 0.124066 0.260374
vt 0.111781 0.264921
vt 0.207982 0.651804
vt 0.019086 0.658222
vt 0.019086 0.849034
vt 0.429699 0.932599
vt 0.429898 0.973709
vt 0.019086 0.974530
vt 0.186382 0.470022
vt 0.178391 0.471976
vt 0.503326 0.553805
vt 0.486871 0.584532
vt 0.365916 0.555110
vt 0.384514 0.585427
vt 0.459675 0.624292
vt 0.401129 0.624292
vt 0.261485 0.180981
vt 0.246182 0.155799
vt 0.184862 0.282100
vt 0.265041 0.193178
vt 0.229816 0.151877
vt 0.133836 0.258494
vt 0.485721 0.748160
vt 0.373062 0.748437
vt 0.460255 0.691402
vt 0.400550 0.691402
vt 0.203348 0.290619
vt 0.195791 0.285613
vt 0.271599 0.212708
vt 0.267952 0.203501
vt 0.216495 0.140766
vt 0.223126 0.146135
vt 0.122650 0.249599
vt 0.128846 0.254538
vt 0.460343 0.669387
vt 0.400462 0.669387
vt 0.503897 0.508856
vt 0.363576 0.509875
vt 0.485721 0.793111
vt 0.371609 0.793111
vt 0.569009 0.932599
vt 0.570640 0.971929
vt 0.953323 0.805447
vt 0.953323 0.856481
vt 0.795201 0.805447
vt 0.795201 0.856481
vt 0.953323 0.880590
vt 0.795201 0.880590
vt 0.953323 0.730355
vt 0.795201 0.730355
vt 0.953323 0.684473
vt 0.795201 0.684473
vt 0.770486 0.934267
vt 0.770486 0.970596
vt 0.953323 0.934267
vt 0.953323 0.970596
vt 0.795201 0.934267
vt 0.795201 0.970596
vt 0.242420 0.140182
vt 0.456683 0.143808
vt 0.242557 0.147118
vt 0.457068 0.150742
vt 0.269942 0.202540
vt 0.265647 0.191317
vt 0.444180 0.201707
vt 0.444836 0.194796
vt 0.456834 0.195143
vt 0.456283 0.202872
vt 0.953323 0.758080
vt 0.795201 0.758080
vt 0.447444 0.156081
vt 0.444927 0.180749
vt 0.457045 0.181404
vt 0.275055 0.213355
vt 0.443270 0.215718
vt 0.454945 0.216278
vt 0.473636 0.154438
vt 0.464012 0.149083
vt 0.247311 0.130157
vt 0.753901 0.730355
vt 0.753901 0.684473
vt 0.704427 0.684473
vt 0.704427 0.730355
vt 0.463988 0.179746
vt 0.463643 0.193204
vt 0.447249 0.138141
vt 0.476107 0.179110
vt 0.159491 0.493078
vt 0.177907 0.480329
vt 0.113391 0.453926
vt 0.201239 0.472781
vt 0.161884 0.479313
vt 0.120344 0.466037
vt 0.617665 0.406775
vt 0.618222 0.195221
vt 0.639755 0.406776
vt 0.640313 0.195221
vt 0.617662 0.487418
vt 0.639752 0.487419
vt 0.617655 0.698051
vt 0.617655 0.665298
vt 0.639745 0.694611
vt 0.639745 0.665298
vt 0.639745 0.748641
vt 0.617655 0.748641
vt 0.618200 0.099881
vt 0.640290 0.099883
vt 0.618233 0.111858
vt 0.640323 0.111859
vt 0.941336 0.427182
vt 0.949346 0.231284
vt 0.951159 0.432033
vt 0.954964 0.220478
vt 0.851404 0.502077
vt 0.921264 0.220919
vt 0.855290 0.512676
vt 0.921875 0.232890
vt 0.688463 0.503465
vt 0.871602 0.222981
vt 0.677410 0.509458
vt 0.872084 0.234957
vt 0.676476 0.476705
vt 0.688463 0.476705
vt 0.676476 0.426115
vt 0.688463 0.426115
vt 0.880905 0.521900
vt 0.885769 0.531717
vt 0.685018 0.530191
vt 0.955670 0.431861
vt 0.674220 0.535825
vt 0.966274 0.435732
vt 0.674617 0.505199
vt 0.956824 0.268918
vt 0.686589 0.505793
vt 0.962802 0.257857
vt 0.676603 0.452459
vt 0.933487 0.256965
vt 0.688581 0.452924
vt 0.933504 0.268952
vt 0.879475 0.269029
vt 0.879458 0.257042
vt 0.640330 0.164596
vt 0.618241 0.161521
vt 0.639745 0.760627
vt 0.617655 0.760628
vn 0.008515 0.000000 0.999964
vn 0.288808 0.000000 0.957387
vn 0.008515 0.000000 0.999964
vn 0.288808 0.000000 0.957387
vn -0.000418 0.999997 -0.002433
vn -0.000183 0.999999 -0.001362
vn -0.000106 1.000000 -0.000280
vn 0.000154 1.000000 -0.000117
vn 0.009481 -0.000000 -0.999955
vn -0.168025 -0.000000 -0.985783
vn 0.009743 -0.000000 -0.999953
vn -0.168025 -0.000000 -0.985783
vn 0.000000 -1.000000 -0.000000
vn 0.000000 -1.000000 0.000000
vn 0.000000 -1.000000 0.000000
vn 0.000000 -1.000000 0.000000
vn -0.045390 0.004516 -0.998959
vn -0.046499 0.004606 -0.998908
vn -0.050778 0.004609 -0.998699
vn -0.058348 -0.000000 -0.998296
vn -1.000000 0.000000 0.000000
vn -1.000000 0.000000 0.000000
vn -1.000000 0.000000 0.000000
vn -1.000000 0.000000 0.000000
vn 0.000827 -0.999998 -0.001808
vn 0.000833 -0.999998 -0.001943
vn -0.629390 -0.000000 -0.777089
vn -0.629390 -0.000000 -0.777089
vn -0.000553 0.999999 0.001518
vn -0.000246 0.999999 0.001367
vn 0.639939 0.000000 0.768426
vn 0.639939 0.000000 0.768426
vn 0.000016 -0.999996 -0.002881
vn -0.000022 -0.999995 -0.003066
vn -0.999977 -0.000000 -0.006786
vn -0.999977 -0.000000 -0.006786
vn -0.999977 -0.000000 -0.006786
vn -0.999984 -0.000000 -0.005659
vn 0.026444 0.999649 -0.001723
vn 0.004335 0.999990 -0.001431
vn 0.999165 0.000000 0.040857
vn 0.999165 0.000000 0.040857
vn 0.999165 0.000000 0.040857
vn 0.999165 0.000000 0.040857
vn 0.000000 1.000000 -0.000000
vn 0.000000 1.000000 0.000000
vn 0.000000 1.000000 0.000000
vn 0.000000 1.000000 0.000000
vn -1.000000 0.000000 0.000000
vn -1.000000 0.000000 0.000000
vn 0.000000 -1.000000 0.000000
vn 0.000000 -1.000000 -0.000000
vn 0.000877 -0.999997 -0.002275
vn -0.000156 -0.999995 -0.003278
vn -0.044220 0.003153 -0.999017
vn -0.047492 -0.000000 -0.998872
vn -0.000790 0.999997 0.002136
vn -0.000097 0.999995 0.003225
vn -0.000682 0.999997 0.002285
vn 0.000127 0.999995 0.003245
vn 0.008515 0.000000 0.999964
vn 0.008515 0.000000 0.999964
vn 0.008515 0.000000 0.999964
vn 0.008515 0.000000 0.999964
vn -0.001134 -0.000000 -0.999999
vn -0.001134 -0.000000 -0.999999
vn -0.001134 -0.000000 -0.999999
vn -0.001134 -0.000000 -0.999999
vn -1.000000 0.000000 0.000000
vn -1.000000 0.000000 0.000000
vn -1.000000 0.000000 0.000000
vn -1.000000 0.000000 0.000000
vn -0.652997 -0.000000 -0.757360
vn -0.654138 -0.004625 -0.756361
vn -0.657423 -0.018311 -0.753299
vn -0.658470 -0.022793 -0.752262
vn 0.639939 0.000000 0.768426
vn 0.644057 0.019267 0.764735
vn 0.640851 0.004166 0.767654
vn 0.644889 0.023314 0.763921
vn 0.999150 -0.005547 0.040842
vn 0.999076 -0.010474 0.041674
vn 0.999143 -0.006131 0.040940
vn 0.999066 -0.011040 0.041769
vn -0.065504 -0.071759 -0.995269
vn -0.065502 -0.071758 -0.995269
vn -0.065503 -0.071758 -0.995269
vn -0.065501 -0.071758 -0.995269
vn -0.999600 0.006032 -0.027626
vn -0.999592 0.006721 -0.027752
vn -0.999527 0.011332 -0.028601
vn -0.999515 0.011999 -0.028723
vn -0.018033 -0.004757 0.999826
vn -0.018033 -0.004760 0.999826
vn -0.018028 -0.004892 0.999826
vn -0.018028 -0.004895 0.999826
vn 0.010330 0.002670 -0.999943
vn 0.009704 0.002632 -0.999949
vn 0.010329 0.002674 -0.999943
vn 0.009159 0.002487 -0.999955
vn -0.964455 -0.261867 0.035383
vn -0.963785 -0.261682 0.051385
vn -0.964462 -0.261868 0.035185
vn -0.963785 -0.261681 0.051385
vn -0.644437 -0.174969 -0.744370
vn -0.644370 -0.176061 -0.744171
vn -0.643136 -0.194278 -0.740697
vn -0.643058 -0.195330 -0.740488
vn 0.638715 0.173419 0.749646
vn 0.637174 0.193179 0.746118
vn 0.638656 0.174242 0.749505
vn 0.637106 0.193973 0.745969
vn 0.967058 0.253906 0.018191
vn 0.969039 0.246213 0.018494
vn 0.967100 0.253743 0.018197
vn 0.969080 0.246052 0.018501
vn 0.034487 -0.063684 -0.997374
vn 0.033873 -0.063840 -0.997385
vn 0.035581 -0.063404 -0.997353
vn 0.035581 -0.063403 -0.997353
vn -0.967099 -0.253858 -0.016615
vn -0.967150 -0.253662 -0.016623
vn -0.969101 -0.246112 -0.016519
vn -0.969148 -0.245928 -0.016494
vn 0.001399 -0.999984 0.005426
vn -0.000374 -1.000000 0.000286
vn 0.001273 -0.999986 0.005111
vn -0.000442 -1.000000 0.000066
vn -0.965060 -0.262028 0.001115
vn -0.965060 -0.262028 0.001115
vn -0.001242 0.999986 -0.005124
vn 0.000442 1.000000 -0.000067
vn -0.000450 -0.999998 -0.002089
vn -0.001006 -0.999997 -0.002394
vn 0.001040 0.999997 0.002321
vn -0.011117 -0.999907 0.007936
vn -0.013280 -0.999911 0.000945
vn 0.013281 0.999911 -0.000990
vn 0.031029 -0.064564 -0.997431
vn 0.031030 -0.064566 -0.997431
vn 0.001255 -0.999984 0.005490
vn 0.001348 -0.999984 0.005512
vn 0.000272 -1.000000 0.000718
vn 0.000209 -1.000000 0.000428
vn -0.001318 0.999984 -0.005525
vn -0.000209 1.000000 -0.000429
vn -0.000006 -1.000000 0.000028
vn 0.000005 1.000000 -0.000028
vn -0.000323 -0.999999 -0.001698
vn -0.000997 -0.999998 -0.001497
vn 0.001026 0.999998 0.001436
vn -0.072415 -0.997332 0.009174
vn -0.057757 -0.998150 0.018992
vn 0.057736 0.998151 -0.019004
vn -0.001995 -0.997523 0.070314
vn 0.001995 0.997523 -0.070315
vn -0.000000 1.000000 -0.000066
vn -0.001138 -0.000309 -0.999999
vn -0.001138 -0.000309 -0.999999
vn 0.000000 -1.000000 0.000067
vn -0.015209 -0.997251 0.072515
vn -0.969340 -0.245514 -0.010127
vn -0.969340 -0.245513 -0.010127
vn 0.015210 0.997251 -0.072515
vn 0.999838 0.000000 0.017982
vn 0.999838 0.000000 0.017982
vn 0.999838 0.000000 0.017982
vn 0.999838 0.000000 0.017982
vn 0.272156 0.000000 0.962253
vn 0.272156 0.000000 0.962253
vn 0.643719 0.000000 0.765262
vn 0.643719 0.000000 0.765262
vn -0.018088 0.000000 0.999836
vn -0.018088 0.000000 0.999836
vn -0.999953 -0.001491 0.009573
vn -0.999536 -0.001945 0.030383
vn -0.999923 -0.001201 0.012318
vn -0.999493 0.000000 0.031847
vn -1.000000 0.000000 0.000000
vn -1.000000 0.000000 0.000000
vn 0.008986 -0.000000 -0.999960
vn -0.168025 -0.000000 -0.985783
vn -0.629390 -0.000000 -0.777089
vn -0.999977 -0.000000 -0.006786
vn -0.999994 -0.000000 -0.003497
vn -0.028236 0.003638 -0.999595
vn -0.030283 0.003340 -0.999536
vn -0.040800 0.001512 -0.999166
vn -0.041471 -0.000000 -0.999140
vn -0.013843 0.000767 -0.999904
vn -0.014395 -0.000000 -0.999896
vn 0.000811 -0.999998 -0.001643
vn -0.000395 -0.999996 -0.002650
vn 0.000783 -0.999998 -0.001616
vn -0.000474 -0.999996 -0.002631
vn -0.000811 0.999998 0.001643
vn -0.000783 0.999998 0.001616
vn 0.000401 0.999996 0.002653
vn 0.000493 0.999996 0.002641
vn 0.000000 -1.000000 -0.000000
vn 0.000000 -1.000000 -0.000000
vn 0.000000 1.000000 0.000000
vn 0.000000 1.000000 0.000000
vn 0.000000 -1.000000 0.000000
vn 0.000000 -1.000000 0.000000
vn 0.000000 1.000000 0.000002
vn 0.000000 1.000000 0.000001
vn 0.000000 -1.000000 0.000000
vn 0.000000 -1.000000 0.000000
vn 0.000000 1.000000 0.000000
vn 0.000000 -1.000000 0.000000
vn 0.000000 -1.000000 0.000000
vn 0.000000 1.000000 0.000000
vn 0.000000 -0.000000 -1.000000
vn 0.000000 -0.000000 -1.000000
vn -0.000116 -0.999996 -0.002799
vn -0.000094 -0.999996 -0.002912
vn -0.000067 -0.999994 -0.003479
vn -0.000082 -0.999994 -0.003473
vn -0.999189 0.000000 0.040256
vn -0.999189 0.000000 0.040255
vn 0.000090 0.999996 0.002905
vn 0.000085 0.999994 0.003475
s 1
g Recption1FIXEDSIZE
usemtl lambert2SG
f 1/26/1 2/28/2 68/39/3
f 68/39/3 2/28/2 67/40/4
s 2
f 34/17/5 35/18/6 33/19/7
f 33/19/7 35/18/6 36/20/8
s 3
f 70/5/9 71/41/10 7/6/11
f 7/6/11 71/41/10 8/27/12
s 4
f 19/24/13 20/25/14 1/26/15
f 1/26/15 20/25/14 2/28/16
s 5
f 22/116/17 74/117/18 14/86/19
f 14/86/19 74/117/18 65/88/20
s 6
f 19/1/21 1/2/22 69/3/23
f 69/3/23 1/2/22 68/4/24
s 4
f 2/47/16 20/48/14 10/49/25
f 10/49/25 20/48/14 21/50/26
s 3
f 8/51/12 71/71/10 9/52/27
f 9/52/27 71/71/10 72/72/28
s 2
f 37/53/29 35/18/6 38/54/30
f 38/54/30 35/18/6 34/17/5
s 1
f 67/73/4 2/47/2 66/74/31
f 66/74/31 2/47/2 10/49/32
s 4
f 10/85/25 21/105/26 14/86/33
f 14/86/33 21/105/26 22/106/34
s 8
f 9/79/35 72/80/36 13/81/37
f 13/81/37 72/80/36 73/82/38
s 2
f 38/54/30 39/107/39 37/53/29
f 37/53/29 39/107/39 40/108/40
s 9
f 10/85/41 14/86/42 66/87/43
f 66/87/43 14/86/42 65/88/44
s 10
f 17/29/45 6/30/46 18/7/47
f 18/7/47 6/30/46 5/31/48
s 6
f 7/6/49 19/1/21 70/5/50
f 70/5/50 19/1/21 69/3/23
s 4
f 7/6/51 8/27/52 19/24/13
f 19/24/13 8/27/52 20/25/14
f 20/48/14 8/51/52 21/50/26
f 21/50/26 8/51/52 9/52/53
f 21/105/26 9/79/53 22/106/34
f 22/106/34 9/79/53 13/81/54
s 5
f 74/117/18 22/116/17 73/118/55
f 73/118/55 22/116/17 13/119/56
s 10
f 24/91/57 23/93/58 11/83/59
f 11/83/59 23/93/58 15/84/60
f 17/59/45 24/60/57 6/61/46
f 6/61/46 24/60/57 11/62/59
s 12
f 3/8/61 4/42/62 25/10/63
f 25/10/63 4/42/62 26/43/64
s 13
f 17/29/65 18/7/66 27/44/67
f 27/44/67 18/7/66 28/9/68
s 14
f 18/7/69 3/8/70 28/9/71
f 28/9/71 3/8/70 25/10/72
s 15
f 17/59/73 27/75/74 24/60/75
f 24/60/75 27/75/74 29/76/76
s 16
f 4/42/77 12/77/78 26/43/79
f 26/43/79 12/77/78 30/78/80
s 17
f 12/77/81 16/89/82 30/78/83
f 30/78/83 16/89/82 31/90/84
s 18
f 31/90/85 16/89/86 32/94/87
f 32/94/87 16/89/86 23/93/88
s 19
f 24/91/89 29/92/90 23/93/91
f 23/93/91 29/92/90 32/94/92
s 20
f 50/37/93 51/21/94 49/129/95
f 49/129/95 51/21/94 52/14/96
s 21
f 41/34/97 42/35/98 44/22/99
f 44/22/99 42/35/98 43/23/100
s 22
f 53/11/101 49/12/102 54/13/103
f 54/13/103 49/12/102 52/14/104
s 23
f 41/64/105 44/55/106 45/66/107
f 45/66/107 44/55/106 46/56/108
s 24
f 50/70/109 55/68/110 51/58/111
f 51/58/111 55/68/110 56/57/112
s 25
f 55/95/113 57/96/114 56/97/115
f 56/97/115 57/96/114 58/98/116
s 26
f 59/120/117 60/109/118 57/114/119
f 57/114/119 60/109/118 58/98/120
s 27
f 45/99/121 46/100/122 47/101/123
f 47/101/123 46/100/122 48/102/124
s 28
f 27/32/125 28/33/126 41/34/127
f 41/34/127 28/33/126 42/35/128
s 22
f 53/128/101 54/13/103 62/125/129
f 62/125/129 54/13/103 61/16/130
s 2
f 35/18/6 44/22/131 36/20/8
f 36/20/8 44/22/131 43/23/132
s 28
f 27/63/125 41/64/127 29/65/133
f 29/65/133 41/64/127 45/66/134
s 2
f 35/18/6 37/53/29 44/55/131
f 44/55/131 37/53/29 46/56/135
s 28
f 29/110/133 45/99/134 32/111/136
f 32/111/136 45/99/134 47/101/137
s 2
f 37/53/29 40/108/40 46/100/135
f 46/100/135 40/108/40 48/102/138
s 26
f 59/120/117 63/121/139 60/109/118
f 60/109/118 63/121/139 64/103/140
s 28
f 26/38/141 50/37/142 25/126/143
f 25/126/143 50/37/142 49/129/144
s 2
f 34/17/5 33/19/7 51/21/145
f 51/21/145 33/19/7 52/14/146
s 28
f 28/124/126 25/36/143 53/11/147
f 53/11/147 25/36/143 49/12/144
s 2
f 36/20/8 54/13/148 33/19/7
f 33/19/7 54/13/148 52/14/146
s 28
f 30/67/149 55/68/150 26/69/141
f 26/69/141 55/68/150 50/70/142
s 2
f 38/54/30 34/17/5 56/57/151
f 56/57/151 34/17/5 51/58/145
s 28
f 30/115/149 31/122/152 55/95/150
f 55/95/150 31/122/152 57/96/153
s 2
f 38/54/30 56/97/151 39/107/39
f 39/107/39 56/97/151 58/98/154
s 28
f 32/123/136 59/120/155 31/113/152
f 31/113/152 59/120/155 57/114/153
s 2
f 40/108/40 39/107/39 60/109/156
f 60/109/156 39/107/39 58/98/154
f 43/23/132 61/16/157 36/20/8
f 36/20/8 61/16/157 54/13/148
s 21
f 42/35/98 62/45/158 43/23/100
f 43/23/100 62/45/158 61/46/159
s 28
f 42/35/128 28/33/126 62/15/160
f 62/15/160 28/33/126 53/127/147
f 32/111/136 47/101/137 59/112/155
f 59/112/155 47/101/137 63/104/161
s 27
f 48/102/124 64/103/162 47/101/123
f 47/101/123 64/103/162 63/104/163
s 2
f 40/108/40 60/109/156 48/102/138
f 48/102/138 60/109/156 64/103/164
s 31
f 75/130/165 77/131/166 76/132/167
f 76/132/167 77/131/166 78/133/168
s 32
f 80/135/169 79/134/170 76/132/171
f 76/132/171 79/134/170 75/130/172
f 81/137/173 79/134/170 82/139/174
f 82/139/174 79/134/170 80/135/169
s 33
f 83/136/175 81/137/176 84/138/177
f 84/138/177 81/137/176 82/139/178
f 85/141/179 83/136/175 86/140/180
f 86/140/180 83/136/175 84/138/177
s 3
f 5/31/181 6/30/182 70/5/9
f 70/5/9 6/30/182 71/41/10
f 72/72/28 71/71/10 11/62/183
f 11/62/183 71/71/10 6/61/182
s 8
f 72/80/36 11/83/184 73/82/38
f 73/82/38 11/83/184 15/84/185
s 34
f 88/178/186 87/179/187 90/145/188
f 90/145/188 87/179/187 89/144/189
f 87/179/187 88/178/186 77/131/190
f 77/131/190 88/178/186 78/133/191
s 35
f 66/146/192 65/147/193 75/148/194
f 75/148/194 65/147/193 77/149/195
s 10
f 12/162/196 76/163/197 16/164/198
f 16/164/198 76/163/197 78/166/199
s 35
f 66/146/192 75/148/194 67/150/200
f 67/150/200 75/148/194 79/152/201
s 10
f 12/162/196 4/165/202 76/163/197
f 76/163/197 4/165/202 80/167/203
s 35
f 67/150/200 79/152/201 68/154/204
f 68/154/204 79/152/201 81/156/205
s 10
f 4/165/202 3/169/206 80/167/203
f 80/167/203 3/169/206 82/171/207
s 35
f 69/159/208 68/154/204 83/158/209
f 83/158/209 68/154/204 81/156/205
s 10
f 18/175/47 84/173/210 3/169/206
f 3/169/206 84/173/210 82/171/207
s 35
f 70/161/211 69/159/208 85/160/212
f 85/160/212 69/159/208 83/158/209
s 10
f 18/175/47 5/176/48 84/173/210
f 84/173/210 5/176/48 86/177/213
s 3
f 5/180/181 70/181/9 86/140/214
f 86/140/214 70/181/9 85/141/215
s 35
f 73/157/216 89/155/217 74/153/218
f 74/153/218 89/155/217 87/151/219
s 8
f 73/142/38 15/143/185 89/144/220
f 89/144/220 15/143/185 90/145/221
s 10
f 15/174/60 23/170/58 90/172/222
f 90/172/222 23/170/58 88/168/223
s 35
f 74/153/218 87/151/219 65/147/193
f 65/147/193 87/151/219 77/149/195
s 10
f 23/170/58 16/164/198 88/168/223
f 88/168/223 16/164/198 78/166/199
